<?xml version="1.0" encoding="UTF-8" standalone="no"?>
<!-- Created with Inkscape (http://www.inkscape.org/) -->

<svg
   width="210mm"
   height="297mm"
   viewBox="0 0 210 297"
   version="1.1"
   id="svg5"
   inkscape:version="1.1.1 (3bf5ae0d25, 2021-09-20)"
   sodipodi:docname="phase portrait.svg"
   inkscape:export-filename="C:\Users\Rishibh P\Desktop\OneDrive - University of Toronto\Courses\MAT267\images\phase portrait.png"
   inkscape:export-xdpi="96"
   inkscape:export-ydpi="96"
   xmlns:inkscape="http://www.inkscape.org/namespaces/inkscape"
   xmlns:sodipodi="http://sodipodi.sourceforge.net/DTD/sodipodi-0.dtd"
   xmlns="http://www.w3.org/2000/svg"
   xmlns:svg="http://www.w3.org/2000/svg">
  <sodipodi:namedview
     id="namedview7"
     pagecolor="#ffffff"
     bordercolor="#666666"
     borderopacity="1.0"
     inkscape:pageshadow="2"
     inkscape:pageopacity="0.0"
     inkscape:pagecheckerboard="0"
     inkscape:document-units="mm"
     showgrid="false"
     inkscape:zoom="1"
     inkscape:cx="441.5"
     inkscape:cy="393.5"
     inkscape:window-width="1920"
     inkscape:window-height="986"
     inkscape:window-x="-11"
     inkscape:window-y="-11"
     inkscape:window-maximized="1"
     inkscape:current-layer="layer1" />
  <defs
     id="defs2">
    <inkscape:path-effect
       effect="powerstroke"
       id="path-effect4014"
       is_visible="true"
       lpeversion="1"
       offset_points="0,4.99214"
       not_jump="false"
       sort_points="true"
       interpolator_type="CubicBezierJohan"
       interpolator_beta="0.2"
       start_linecap_type="zerowidth"
       linejoin_type="extrp_arc"
       miter_limit="4"
       scale_width="1"
       end_linecap_type="zerowidth" />
    <inkscape:path-effect
       effect="powerstroke"
       id="path-effect4010"
       is_visible="true"
       lpeversion="1"
       offset_points="0,4.99214"
       not_jump="false"
       sort_points="true"
       interpolator_type="CubicBezierJohan"
       interpolator_beta="0.2"
       start_linecap_type="zerowidth"
       linejoin_type="extrp_arc"
       miter_limit="4"
       scale_width="1"
       end_linecap_type="zerowidth" />
    <inkscape:path-effect
       effect="powerstroke"
       id="path-effect4006"
       is_visible="true"
       lpeversion="1"
       offset_points="0,4.99214"
       not_jump="false"
       sort_points="true"
       interpolator_type="CubicBezierJohan"
       interpolator_beta="0.2"
       start_linecap_type="zerowidth"
       linejoin_type="extrp_arc"
       miter_limit="4"
       scale_width="1"
       end_linecap_type="zerowidth" />
    <clipPath
       clipPathUnits="userSpaceOnUse"
       id="clipPath6395">
      <path
         id="path6397"
         style="fill:#ff0000;fill-opacity:1;fill-rule:nonzero;stroke:none;stroke-width:0.264583"
         d="m 49.895146,74.243015 c -0.0096,0.02077 -0.01823,0.04205 -0.02946,0.06201 -0.01532,0.02724 -0.03429,0.05584 -0.05633,0.08527 -0.03733,0.143291 -0.139473,0.307361 -0.322977,0.496094 -0.01805,0.01855 -0.05899,0.05975 -0.08165,0.0832 V 116.25698 H 95.322348 V 74.243015 Z" />
    </clipPath>
    <clipPath
       clipPathUnits="userSpaceOnUse"
       id="clipPath6479">
      <path
         id="path6481"
         style="fill:#ff0000;fill-opacity:1;fill-rule:nonzero;stroke:none;stroke-width:0.264583"
         d="m 45.658712,134.25744 v 33.94831 h 96.336238 v -8.75812 c -0.0215,-0.0168 -0.0431,-0.0334 -0.0646,-0.0501 -1.487,-1.15858 -1.06047,-2.56137 0.0646,-2.65875 v -22.48131 z m 102.548778,32.20578 c -0.11743,0.0425 -0.12897,0.0413 0,0 z" />
    </clipPath>
    <clipPath
       clipPathUnits="userSpaceOnUse"
       id="clipPath8371">
      <path
         id="path8373"
         style="fill:#ff0000;fill-opacity:1;fill-rule:nonzero;stroke:none;stroke-width:0.264583"
         d="m 106.69581,91.307089 v 66.050741 h 34.37465 c 0.16999,-0.38196 0.55662,-0.63462 1.06815,-0.62787 0.41056,0.005 0.89935,0.1769 1.41593,0.5793 0.0208,0.0162 0.0417,0.0324 0.0625,0.0486 h 2.28255 V 91.596477 c -0.0838,-0.0917 -0.16068,-0.189632 -0.23616,-0.289388 z m 41.51168,75.156131 c -0.11743,0.0425 -0.12897,0.0413 0,0 z" />
    </clipPath>
    <clipPath
       clipPathUnits="userSpaceOnUse"
       id="clipPath8433">
      <path
         id="path8435"
         style="fill:#ff0000;fill-opacity:1;fill-rule:nonzero;stroke:none;stroke-width:0.264583"
         d="m 40.200646,63.109327 c -0.01196,0.283959 -0.02772,0.567986 -0.05013,0.851627 0.221792,-0.31633 0.504391,-0.5965 0.804084,-0.851627 z m 5.08548,0 c -0.05424,0.07277 -0.108276,0.145716 -0.161748,0.219107 0.01908,0.07375 0.03493,0.203493 0.05323,0.417028 0.02521,0.294198 0.05117,0.592262 0.0186,0.885735 -0.08904,0.802391 -0.254942,1.594395 -0.382405,2.391585 -0.02461,0.134146 -0.05085,0.268205 -0.07803,0.402042 0.233018,-0.117293 0.492056,-0.201726 0.643887,-0.244946 0.224647,-0.619964 -0.01929,-0.458965 1.228865,-0.532784 0.329213,0.343308 0.719066,0.637633 0.988055,1.029912 0.100438,0.146476 0.129402,0.356108 0.07958,0.526582 -0.08274,0.283107 -0.187447,0.544309 -0.307475,0.791683 0.356135,-0.474609 0.698204,-0.959048 1.00769,-1.466577 0.468757,-0.768715 1.036542,-1.099987 1.524455,-1.112594 0.842243,-0.02175 1.442373,0.906608 0.888836,2.169377 0.772356,-0.0049 1.42934,0.847855 1.017508,2.289267 -0.167241,0.585341 -0.289645,1.159378 -0.592212,1.695503 -0.109413,0.193869 -0.296854,0.335992 -0.405659,0.530202 -0.0346,0.06176 0.105148,-0.125175 0.175699,-0.119375 0.04444,0.0037 -0.0208,0.08778 -0.0181,0.132292 0.0019,0.03279 0.02101,0.06242 0.03152,0.09354 0.334587,0.745178 -0.486738,1.306891 -0.913122,1.646412 -0.03007,0.02394 -0.06516,0.04032 -0.101285,0.05529 0.0024,0.03965 0.0043,0.07927 0.0072,0.118856 0.03117,0.51367 0.131297,1.147254 -0.434083,1.518769 -0.464013,0.304914 -1.142421,0.03735 -1.642277,0.279054 -0.408027,0.197302 0.900234,-0.107599 1.352373,-0.13901 0.09516,-0.0066 -0.186994,0.411636 -0.197403,0.430464 -0.04912,0.07603 -0.08922,0.158454 -0.147278,0.227893 -0.381801,0.45661 -0.266821,0.29544 -0.669726,0.594797 -0.02619,0.01947 -0.04019,0.05165 -0.06408,0.0739 0.131929,-0.197532 0.263912,-0.395197 0.395841,-0.59273 0.04322,-0.951876 0.04568,-0.117038 -0.486275,0.674378 0.33729,0.192847 -0.655524,1.513782 -0.822688,1.774052 -0.190055,0.206942 -0.369567,0.423823 -0.568441,0.622184 -0.101293,0.17404 -0.263671,0.346086 -0.342615,0.520898 -0.309131,0.684522 -0.546769,0.630807 -0.746207,0.266134 -0.09334,0.03515 -0.170344,0.04302 -0.218074,0.01035 -0.370025,0.313688 -0.97313,-0.817816 -1.268656,-1.316199 -0.114684,-0.193399 0.129164,-0.431112 0.193786,-0.646472 0.1383,-0.460923 0.258141,-0.613883 0.368453,-0.57309 0.01823,-0.01222 0.03471,-0.02373 0.04547,-0.03359 0.140227,-0.128232 0.265322,-0.272642 0.39791,-0.40876 0.522147,-0.511759 0.318849,-0.194683 0.547769,-0.988052 0.09044,-0.09176 0.189056,-0.174326 0.291971,-0.252182 0.0029,-0.04331 0.0042,-0.08337 0.0026,-0.114205 0.188532,-0.382862 0.273347,-0.603922 0.378789,-0.777213 -0.325187,0.110688 -0.653299,0.214934 -0.974101,0.334864 -0.229804,0.341196 -0.487397,0.66371 -0.727604,0.997871 -0.115208,0.126204 -0.229992,0.252585 -0.345199,0.378788 -0.04201,0.09542 -0.08295,0.191585 -0.122473,0.288356 -0.05151,0.243065 -0.115827,0.483844 -0.197403,0.718302 -0.464418,1.33477 -0.952892,0.09329 -2.606043,-0.744141 0.0757,-0.238765 0.159523,-0.473247 0.249081,-0.704866 0.0097,-0.07607 0.02421,-0.151169 0.04909,-0.223761 0.144841,-0.422439 0.253193,-0.628967 0.401526,-0.813384 0.512112,-1.06875 1.135661,-2.080959 1.760099,-3.095419 0.05162,-0.08432 0.103724,-0.169696 0.15503,-0.254765 -0.265623,0.04951 -0.337315,0.02551 -0.343649,-0.257349 -2.62e-4,-3e-6 -7.94e-4,2e-6 -0.0011,0 0,0 5.29e-4,-0.03207 5.29e-4,-0.03772 -7.94e-4,-0.06312 -7.94e-4,-0.133295 -5.29e-4,-0.220142 5e-6,-0.0057 -8e-6,-0.01138 0,-0.01706 -0.538872,0.927184 -1.070875,1.865265 -1.785422,2.662885 -0.156594,0.1748 -0.362762,0.297318 -0.546219,0.4439 -0.0047,0.01416 -0.0096,0.02829 -0.01447,0.04238 -0.0065,0.625134 0.03896,1.609516 -0.879017,1.776635 -0.665038,0.121076 -1.293823,-0.465106 -1.826244,-0.881599 -0.214551,-0.167834 0.200139,-1.701647 0.225308,-1.812293 0.17621,-0.433456 0.321247,-0.880753 0.528651,-1.300178 0.146876,-0.297019 0.363143,-0.554623 0.530201,-0.840775 0.07849,-0.134458 0.15693,-0.269118 0.234609,-0.404111 -0.386879,0.373925 -1.074666,1.088477 -1.673799,0.815972 -1.699361,-0.772924 -1.286494,-1.356228 -1.467093,-2.599841 -0.02434,-0.259969 -0.05824,-0.519104 -0.07286,-0.779798 -0.02699,-0.480907 0.129394,-1.761445 0.141594,-1.874303 0.05925,-0.548169 0.129945,-1.097103 0.200504,-1.646412 -0.144883,-0.143666 -0.287626,-0.291561 -0.429948,-0.442352 -0.07495,-0.08921 -0.144404,-0.182385 -0.214458,-0.274918 v 34.76478 H 159.1846 V 86.451567 c -0.33494,0.159361 -0.67953,0.298336 -1.03456,0.42323 -0.82826,0.180414 -1.08067,0.216207 -1.89342,0.174667 -0.0254,-0.0013 -0.10172,-0.0098 -0.19224,-0.02066 -0.052,0.03104 -0.10205,0.06013 -0.15038,0.08733 -0.004,0.01418 -0.009,0.02799 -0.0145,0.03824 -0.17965,0.337109 -0.75574,0.956781 -0.91209,1.06402 -0.11169,0.194619 -0.21876,0.388858 -0.31057,0.598413 -0.0606,0.13838 -0.0143,0.423101 -0.16537,0.422196 -0.14479,-7.94e-4 -0.19873,-0.258625 -0.21446,-0.526066 -0.0243,0.325869 -0.0661,0.798716 -0.13849,1.493964 -7.9e-4,7.94e-4 -0.002,0.0016 -0.003,0.0026 0.24781,0.526968 0.45419,1.067001 0.49196,1.657779 0.0132,0.206338 -0.0467,0.411041 -0.0698,0.6165 0.3957,0.2441 0.2019,1.364049 0.2465,1.835031 0.0267,0.281607 0.0817,0.501737 0.14572,0.747242 -0.0281,-0.03737 -0.0502,-0.06307 -0.0418,-0.04289 0.027,0.0643 0.053,0.123606 0.078,0.179835 -0.0121,-0.04643 -0.0236,-0.09077 -0.0351,-0.134877 0.0672,0.08982 0.17349,0.258276 0.0512,0.170532 -0.005,-0.01199 -0.0105,-0.02331 -0.016,-0.03566 0.003,0.01032 0.005,0.01953 0.008,0.02997 0.003,0.0024 0.004,0.0037 0.007,0.0057 0.38389,0.854316 0.51302,0.811091 0.21291,1.805059 -0.72533,-0.114988 -1.46632,-0.157908 -2.18333,-0.310576 0.0826,0.07871 0.14151,0.159097 0.10284,0.253215 -0.0653,0.159004 -0.19656,-0.03322 -0.32918,-0.30489 -0.0605,-0.01514 -0.12079,-0.03094 -0.18087,-0.04806 -0.10461,-0.02984 0.0346,-0.222068 0.004,-0.326597 -0.0336,-0.115316 -0.13912,-0.198056 -0.18862,-0.307475 -0.27663,-0.611161 -0.27649,-0.816956 -0.71778,-1.356505 -0.55894,-0.537636 -1.0399,-1.136846 -1.50224,-1.751833 -0.0982,0.29478 -0.2212,0.575054 -0.41289,0.816488 -0.33502,0.421982 -0.89712,0.04065 -1.37563,-0.492992 -0.30482,0.02169 -0.17806,-0.169895 -0.92553,-0.915707 -0.12027,-0.07588 -0.23866,-0.153874 -0.34364,-0.248047 -0.01,-0.0041 -0.0192,-0.0088 -0.0289,-0.01291 -0.009,-0.0141 -0.0153,-0.02437 -0.0222,-0.03514 -7.9e-4,-7.94e-4 -0.001,-0.0013 -0.002,-0.0021 0.005,0.0113 0.009,0.02021 0.015,0.03307 0.003,0.0013 0.006,0.0029 0.009,0.0041 0.0386,0.05955 0.0929,0.145386 0.15606,0.263033 0.0579,0.107891 -0.0918,-0.120806 -0.16537,-0.267169 -0.12946,-0.0567 -0.25564,-0.121192 -0.38085,-0.188102 -0.2353,0.03847 -0.5208,0.0729 -0.59738,0.0088 -0.4371,-0.365975 -0.73108,-0.872506 -1.05317,-1.34669 0.006,0.01868 0.0116,0.03759 0.0155,0.05685 0.0193,0.09494 -0.0429,-0.02981 -0.0997,-0.178284 -0.0101,-0.01437 -0.0198,-0.02914 -0.03,-0.04341 -0.01,-0.01344 -0.008,-0.03005 -0.003,-0.04703 -0.0234,-0.06895 -0.0426,-0.134731 -0.0481,-0.1788 -0.0422,-0.341056 -0.23416,-0.736878 -0.0537,-1.029396 0.21473,-0.348236 0.38636,-0.582983 0.54312,-0.74259 -0.0102,-0.01995 -0.0201,-0.03818 -0.0289,-0.05219 -0.19456,-0.361603 -0.36925,-0.736584 -0.54777,-1.108977 -0.10913,-0.08164 -0.21642,-0.165923 -0.32143,-0.252698 -0.1551,-0.128175 -0.30187,-0.374851 -0.5302,-0.411861 -0.63899,-0.823632 -0.76942,-0.814472 -0.69505,-1.075386 -0.14082,-0.274936 -0.11682,-0.22547 -0.2036,-0.651124 0.11161,0.138449 0.20072,0.256929 0.27646,0.361736 0.0152,-0.06885 0.0316,-0.138811 0.0496,-0.212907 -0.11852,-0.153398 -0.23378,-0.308124 -0.33847,-0.469739 -0.14926,-0.320053 -0.32665,-0.62852 -0.44804,-0.960147 -0.0788,-0.215355 -0.10514,-0.446756 -0.14935,-0.671795 -0.12059,-0.612997 -0.30136,-1.397299 -0.12764,-2.035016 0.0541,-0.198716 0.17586,-0.372068 0.27285,-0.55449 0.0928,-0.278929 0.23371,-0.478206 0.46974,-0.464572 0.018,0.0011 0.0362,0.0031 0.0553,0.0067 0.85541,0.15971 1.00564,1.420894 1.50843,2.131137 0.0761,-0.1215 0.15231,-0.243335 0.22841,-0.364834 0.0171,-0.0054 0.0452,-0.033 0.0512,-0.01603 0.0217,0.06591 0.001,0.139295 0.0129,0.20774 0.003,0.01894 0.0566,0.266946 0.10801,0.504878 0.97498,0.0069 0.91758,-0.461539 0.60926,-0.916739 -0.0702,-0.03286 -0.13911,-0.06809 -0.20567,-0.108006 -0.19769,-0.118567 -0.34842,-0.303048 -0.50436,-0.472839 -0.56321,-0.613235 0.29741,-0.02835 0.71003,0.580845 0.24791,0.116105 0.51338,0.197194 0.76585,0.304374 0.52565,0.456192 1.05149,0.912715 1.57716,1.368907 -0.0715,-0.116719 -0.35127,-0.346369 -0.21445,-0.350364 0.14246,-0.0042 0.14694,0.247838 0.24701,0.349332 0.058,0.05881 0.11772,0.116041 0.17777,0.173114 0.55046,-1.543055 3.12851,-1.565619 2.53834,0.534337 -0.19237,0.68454 0.36549,1.157922 0.48059,1.752864 0.0248,0.128445 -0.0919,-0.451755 -0.17518,-0.350885 -0.0603,0.07299 -0.1168,0.148418 -0.17157,0.225311 0.29063,0.08268 0.33055,0.180785 0.79479,0.590661 0.1431,0.08802 0.18886,0.236691 0.23978,0.381371 0.22695,-0.148061 0.45004,-0.300133 0.68781,-0.414959 0.41491,-0.485987 0.93361,-1.013442 1.5937,-1.157553 0.0115,-0.0026 0.0231,-0.0043 0.0346,-0.0067 -0.23686,-0.160457 0.36726,-0.217191 0.88729,-0.22479 0.25338,-0.175736 0.52446,-0.32648 0.81804,-0.414446 0.0523,-0.01569 0.10818,0.02307 0.16278,0.02066 0.0319,-0.0013 0.034,-0.07143 0.0698,-0.06563 0.59617,-0.897628 1.35017,-1.312775 2.44585,-1.240235 0.17879,2.39e-4 0.35759,-0.0016 0.5364,-0.0011 V 63.109303 Z m -0.592212,15.643489 c -0.08502,0.05694 -0.22253,0.127836 -0.157615,0.107487 0.03912,-0.01228 0.112533,-0.04439 0.198954,-0.0832 -0.0136,-0.01111 -0.02744,-0.01916 -0.04134,-0.02429 z m 0.04134,0.02429 c 0.11232,0.09163 0.215569,0.378849 0.319362,0.735357 0.01937,-0.37473 0.131694,-0.708089 0.409276,-0.927593 0.398111,-0.314811 0.812028,0.36189 1.090372,0.980819 0.200409,-0.370642 0.305636,-0.649438 0.337966,-0.855245 -0.10957,-0.01648 -0.160603,-0.0509 -0.077,-0.102835 0.03082,-0.01913 0.05829,-0.03472 0.08785,-0.05271 -0.03066,-0.795848 -1.570709,-0.0459 -2.167826,0.222207 z m 0.319362,0.735357 c -0.02886,0.558374 0.149715,1.209201 0.301789,1.714108 0.0087,0.02895 0.02408,0.04842 0.04393,0.06201 0.01873,-0.01587 0.03731,-0.03431 0.05478,-0.05788 0.02939,-0.03965 0.05692,-0.07759 0.08526,-0.116271 -0.183285,-0.425434 -0.335299,-1.085173 -0.485757,-1.60197 z M 42.459942,65.287491 c -0.01132,0.01246 -0.02339,0.02455 -0.03411,0.03721 -0.07543,0.08898 -0.07128,0.246182 -0.172082,0.304893 -0.05433,0.03164 -0.130352,-0.180978 -0.145211,-0.119891 -0.0098,0.04017 -0.01281,0.08051 -0.01138,0.121441 0.09222,0.05687 0.181316,0.11243 0.264067,0.16433 0.03454,-0.169121 0.06818,-0.338264 0.0987,-0.507978 z m 2.894396,1.96112 c -0.177962,0.06195 -0.298442,0.180137 -0.417028,0.419095 0.05819,0.04133 0.113315,0.08164 0.165364,0.120923 0.119065,-0.221372 0.197139,-0.398807 0.251664,-0.540018 z m -4.534091,0.91829 c -0.01183,0.0031 -0.01691,0.02819 -0.01188,0.0832 0.04176,0.457729 0.470146,0.800963 0.609264,1.238168 0.04073,-0.111019 0.07994,-0.222475 0.11834,-0.334346 -0.02141,-0.02336 -0.04389,-0.04926 -0.0677,-0.07751 -0.01902,0.06017 -0.03918,0.120211 -0.06098,0.179319 -0.107164,-0.179981 -0.2804,-0.564111 -0.413927,-0.825273 -0.05903,-0.08756 -0.116579,-0.174916 -0.173117,-0.263551 z m 7.207311,0.448551 c -0.01712,-0.0063 -0.114821,0.06534 -0.229441,0.168984 0.06696,-0.04668 0.142346,-0.09968 0.232542,-0.164849 -2.9e-5,-0.0021 -0.0013,-0.0035 -0.0031,-0.0041 z m -6.458003,0.09302 c -0.0032,0.01312 -0.0066,0.02617 -0.0098,0.03927 0.007,0.009 0.01246,0.01622 0.02119,0.02739 0.01715,0.04019 0.03087,0.07454 0.04496,0.109553 0.01312,-0.04042 0.02593,-0.08093 0.03876,-0.121438 -0.0342,-0.01992 -0.07533,-0.04392 -0.09509,-0.05478 z m -2.717146,0.465087 c -0.01582,0.0048 -0.05243,0.03552 -0.04651,0.05219 0.0056,0.01582 0.01342,0.03973 0.01963,0.05788 0.01143,-0.03491 0.02315,-0.0696 0.03359,-0.104388 0.0016,-0.0056 -0.0013,-0.0073 -0.0067,-0.0057 z m 10.098609,5.123717 c -0.07367,0.0019 -0.206796,0.0294 -0.360186,0.0708 -1.27e-4,1e-4 -2.64e-4,5.29e-4 -5.29e-4,5.29e-4 -0.06597,0.052 -0.180329,0.140785 -0.294555,0.232545 -0.03887,0.03891 -0.0837,0.07307 -0.124542,0.110072 0.274733,-0.07632 0.543742,-0.163431 0.775663,-0.322461 0.09767,-0.06697 0.08448,-0.09344 0.0041,-0.09147 z m -1.655197,1.638142 c -0.168227,-0.0032 -0.456327,0.06558 -0.547769,0.167431 -0.170635,0.190066 -0.262311,0.433726 -0.348816,0.681095 0.34535,-0.217649 0.698502,-0.426273 0.969965,-0.723468 0.01696,-0.0297 0.0327,-0.05969 0.04806,-0.08992 -0.01312,-0.02297 -0.0589,-0.03395 -0.121439,-0.03514 z m 98.235859,8.131804 c -4e-5,0.0016 0.003,0.0088 0.0109,0.02326 0.0186,0.03587 0.0429,0.07002 0.0687,0.103352 -0.0424,-0.0735 -0.0795,-0.132215 -0.0796,-0.126606 z m -1.90014,0.160195 c -0.0389,0.112853 -0.12416,0.419888 -0.19585,0.714169 0.01,0.01291 0.0199,0.02588 0.03,0.03876 0.0532,-0.176043 0.11363,-0.403984 0.17518,-0.717269 0.002,-0.01027 0.003,-0.01503 0.004,-0.02326 -0.004,-0.004 -0.009,-0.0084 -0.0134,-0.01241 z m -0.16588,0.752927 c -0.0223,0.07389 -0.0434,0.14073 -0.0625,0.196887 0.46654,0.650553 0.32326,0.680959 0.74776,0.701249 -0.21119,-0.309969 -0.45377,-0.600797 -0.68523,-0.898136 z m -0.0625,0.196887 c -0.005,-0.0071 -0.0119,-0.0155 -0.017,-0.02273 -0.0142,0.06428 -0.0261,0.122179 -0.0362,0.176218 0.0162,-0.04644 0.0313,-0.08912 0.0532,-0.15348 z m 11.81065,-0.664043 c -0.0208,1.51e-4 -0.0408,1.96e-4 -0.062,5.29e-4 -0.0461,0.03195 -0.0916,0.06476 -0.13643,0.09819 0.0662,-0.03292 0.13241,-0.0655 0.19844,-0.0987 z m -0.19844,0.0987 c -0.0191,0.0095 -0.0382,0.01894 -0.0574,0.02842 0.005,5.29e-4 0.01,0.0019 0.0145,0.0031 0.0141,-0.01069 0.0287,-0.02093 0.0429,-0.03152 z m -0.0429,0.03152 c -0.003,0.0026 -0.007,0.0052 -0.0103,0.0078 0.008,-7.94e-4 0.0169,-0.0013 0.0253,-0.0021 -0.004,-0.0021 -0.009,-0.004 -0.015,-0.0057 z m -0.0103,0.0078 c -0.0103,7.93e-4 -0.0206,0.0019 -0.031,0.0026 -0.0333,0.01643 -0.0663,0.03335 -0.0997,0.04961 0.0317,-0.0072 0.0631,-0.01482 0.0941,-0.02376 0.0123,-0.0095 0.0243,-0.019 0.0367,-0.02842 z m -0.13075,0.05219 c -0.004,0.0011 -0.009,0.0021 -0.0129,0.0031 -0.01,0.0066 -0.0136,0.0097 -0.001,0.0036 0.005,-0.0024 0.009,-0.0045 0.014,-0.0067 z m -0.0129,0.0031 c 0.0172,-0.01175 0.0559,-0.03482 0.0899,-0.05116 -0.21635,0.01762 -0.4319,0.0395 -0.64389,0.0832 0.0422,0.02862 0.11279,0.0606 0.21394,0.09612 0.0267,-0.01519 0.0457,-0.02545 0.0744,-0.04186 0.0811,-0.04626 0.17351,-0.06567 0.26561,-0.0863 z m -11.48663,0.774113 c 0.0175,0.105621 0.14854,0.295373 0.11162,0.22066 -0.0513,-0.103849 -0.0794,-0.15757 -0.11162,-0.22066 z m 6.97787,0.03617 c 0.006,0.05111 0.0107,0.101626 0.017,0.155545 0.012,0.0069 0.0262,0.01638 0.0377,0.02273 5.3e-4,-0.0569 -0.0207,-0.117864 -0.0548,-0.178284 z m 6.19703,1.27124 c -0.01,0.0033 -0.02,0.0066 -0.03,0.0098 -0.0312,0.0208 -0.0623,0.04163 -0.0925,0.06408 -0.0383,0.02843 0.0816,-0.04936 0.12247,-0.0739 z m -10.80657,0.98547 c -0.0992,0.115422 -0.19304,0.224436 -0.27234,0.311092 -0.06,0.06556 -0.0213,0.145574 0.0372,0.230994 0.20319,-0.197199 0.38285,-0.265665 0.59893,-0.279053 -0.16265,-0.136435 -0.26137,-0.190323 -0.3638,-0.263033 z m 0.36742,2.781742 c 0.003,0.0069 0.0258,0.03631 0.0729,0.09922 0.19489,0.20625 0.35904,0.330996 0.49816,0.393774 -0.0397,-0.08053 -0.0812,-0.159938 -0.12299,-0.239263 -0.0197,-0.0064 -0.0293,-0.0098 -0.0501,-0.01654 -0.23766,-0.07683 -0.40726,-0.257808 -0.39791,-0.237194 z m 0.015,0.949296 c -0.0133,0.0104 0.13142,0.135848 0.19792,0.152963 0.0757,0.01947 0.14877,0.03515 0.21963,0.04806 -0.13182,-0.07038 -0.26459,-0.139215 -0.40153,-0.197921 -0.009,-0.0039 -0.0141,-0.0046 -0.016,-0.0031 z m 1.20768,0.588595 c 0.0357,0.02843 0.0857,0.06697 0.13333,0.10387 -0.03,-0.02875 -0.0616,-0.05863 -0.0941,-0.08888 -0.0132,-0.0047 -0.0262,-0.01006 -0.0393,-0.01498 z" />
    </clipPath>
    <clipPath
       clipPathUnits="userSpaceOnUse"
       id="clipPath8445">
      <path
         id="path8447"
         style="fill:#ff0000;fill-opacity:1;fill-rule:nonzero;stroke:none;stroke-width:0.264583"
         d="m 44.071212,123.40952 v 18.11621 c 0.127164,0.25931 0.228028,0.53387 0.388091,0.77411 0.03863,0.47311 0.573754,0.46298 0.783931,0.76016 0.78672,1.11241 0.874906,1.67269 1.209228,2.90628 0.0782,0.69393 0.537559,1.23302 0.819071,1.84382 0.131542,0.28541 0.245885,0.57898 0.348816,0.87591 0.213354,0.61548 -0.06252,0.53986 0.346233,0.55656 0.675654,0.55251 1.608664,1.37452 1.620055,2.34456 2.64e-4,0.0281 -0.0011,0.0563 -0.0026,0.0842 0.0095,0.0145 0.01939,0.032 0.02945,0.0537 0.0688,0.0516 0.163825,0.23079 0.106971,0.18656 -0.0423,-0.0329 -0.07623,-0.1202 -0.106971,-0.18656 -0.0047,-0.004 -0.0096,-0.008 -0.01394,-0.0103 -0.0048,-0.002 -0.01233,-0.006 -0.01757,-0.008 -0.004,0.0517 -0.01045,0.10311 -0.0186,0.15451 0.223205,0.1008 0.451625,0.19279 0.670245,0.30128 0.305898,0.58584 0.371073,0.55156 0.372068,1.26659 2.14e-4,0.15269 -0.05099,0.30058 -0.0801,0.45062 -0.0019,0.0103 -0.0026,0.0183 -0.0047,0.0289 -0.0013,0.006 -0.0019,0.0116 -0.0031,0.0176 -0.0081,0.0378 -0.01524,0.0756 -0.02429,0.11317 -0.01172,0.0485 0.02037,-0.0977 0.02945,-0.14676 7.94e-4,-0.004 0.0019,-0.009 0.0026,-0.0129 0.256857,-1.3733 -0.512606,-0.36681 -1.287777,0.38602 0,0 0,5.3e-4 0,5.3e-4 0.01598,0.10415 -0.03905,0.14157 -0.13901,0.13229 -0.584462,0.53928 -1.13625,0.8407 -1.211813,-0.24339 -0.0049,-0.0715 -0.01,-0.14296 -0.01497,-0.21446 0.0028,-0.049 0.0074,-0.12623 0.01291,-0.21136 -0.115983,-0.0896 -0.220475,-0.17737 -0.299207,-0.25424 -0.787038,-0.76848 -0.08114,-1.11389 -0.33228,-2.47582 -0.0332,-0.18004 -0.186417,0.31523 -0.279569,0.47284 -0.0036,0.14561 -0.02511,0.29171 -0.01241,0.43666 0.04341,0.058 0.08285,0.11818 0.116787,0.18139 0.0073,0.0136 -0.02679,0.0415 -0.03565,0.0289 -0.04023,-0.0571 -0.07271,-0.12431 -0.0801,-0.19379 -5.29e-4,-0.005 -5.29e-4,-0.011 -0.0011,-0.0165 -0.269232,-0.35952 -0.696793,-0.62876 -0.993222,-0.93224 -0.25787,-0.37191 -0.538212,-0.72917 -0.773596,-1.1157 -0.04025,-0.0661 -0.02148,-0.15399 -0.04444,-0.22789 -0.05728,-0.18443 -0.114303,-0.37013 -0.195853,-0.54518 -0.278109,-0.59701 -0.653611,-1.16224 -0.88315,-1.78284 v 10.05313 h 96.33626 v -33.94833 z m 4.852416,28.0758 c -0.01466,0.003 -0.0088,0.0149 0.02585,0.0393 0.159025,0.11218 0.330607,0.20314 0.506947,0.28629 0.02667,-0.0612 0.04757,-0.10447 0.06304,-0.13229 -0.197462,-0.0855 -0.540695,-0.20431 -0.595831,-0.19328 z" />
    </clipPath>
    <clipPath
       clipPathUnits="userSpaceOnUse"
       id="clipPath8455">
      <path
         id="path8457"
         style="fill:#ff0000;fill-opacity:1;fill-rule:nonzero;stroke:none;stroke-width:0.264583"
         d="m 50.60828,74.417163 c -0.17889,0.170662 -0.374367,0.317823 -0.522965,0.43615 -0.03007,0.02394 -0.06516,0.04032 -0.101285,0.05529 0.0024,0.03965 0.0043,0.07927 0.0072,0.118856 0.03117,0.51367 0.131297,1.147254 -0.434083,1.518769 -0.464013,0.304914 -1.142421,0.03735 -1.642277,0.279053 -0.408027,0.197303 0.900235,-0.107598 1.352373,-0.139009 0.09515,-0.0066 -0.186994,0.411636 -0.197403,0.430464 -0.04912,0.07603 -0.08922,0.158456 -0.147278,0.227893 -0.381801,0.45661 -0.266821,0.29544 -0.669726,0.594797 -0.02619,0.01947 -0.04019,0.05165 -0.06408,0.0739 0.13193,-0.197532 0.263912,-0.395197 0.395841,-0.59273 0.04322,-0.951876 0.04568,-0.117038 -0.486275,0.674378 0.337291,0.192847 -0.655524,1.513782 -0.822688,1.774052 -0.190055,0.206942 -0.369567,0.423823 -0.568441,0.622184 -0.101293,0.17404 -0.263671,0.346086 -0.342614,0.520898 -0.309132,0.684522 -0.546772,0.630807 -0.746207,0.266134 -0.09334,0.03515 -0.170344,0.04301 -0.218075,0.01035 -0.370025,0.313688 -0.973132,-0.817816 -1.268656,-1.316199 -0.114686,-0.193397 0.129164,-0.431112 0.193786,-0.646472 0.1383,-0.460923 0.258141,-0.613883 0.368453,-0.57309 0.01823,-0.01222 0.03471,-0.02373 0.04547,-0.03359 0.140227,-0.12823 0.265322,-0.272642 0.39791,-0.40876 0.459192,-0.450056 0.358193,-0.260731 0.482658,-0.747757 -0.247459,-0.105648 -0.427032,-0.322548 -0.582395,-0.565341 -0.127471,0.171056 -0.256432,0.341093 -0.380855,0.514181 -0.115207,0.126204 -0.229992,0.252585 -0.345199,0.378788 -0.04201,0.09542 -0.08294,0.191582 -0.122473,0.288356 -0.03289,0.155218 -0.07332,0.308647 -0.117822,0.460952 v 61.82825 H 83.275019 V 74.417163 Z m -5.914366,4.335653 c -0.08502,0.05694 -0.22253,0.127836 -0.157615,0.107487 0.03912,-0.01228 0.112533,-0.04439 0.198954,-0.0832 -0.0136,-0.01111 -0.02744,-0.01916 -0.04134,-0.02429 z m 0.04134,0.02429 c 0.11232,0.09163 0.215569,0.378849 0.319362,0.735357 0.01937,-0.37473 0.131694,-0.708089 0.409276,-0.927593 0.398111,-0.314809 0.81203,0.36189 1.090372,0.980819 0.200411,-0.370642 0.305636,-0.649438 0.337966,-0.855245 -0.10957,-0.01648 -0.160603,-0.0509 -0.077,-0.102835 0.03082,-0.01913 0.05829,-0.03472 0.08785,-0.05271 -0.03066,-0.795848 -1.570707,-0.0459 -2.167826,0.222207 z m 0.319362,0.735357 c -0.02886,0.558374 0.149715,1.209201 0.301789,1.714108 0.0087,0.02895 0.02408,0.04842 0.04393,0.06201 0.01873,-0.01587 0.03731,-0.0343 0.05478,-0.05788 0.02939,-0.03965 0.05692,-0.07759 0.08526,-0.116271 -0.183285,-0.425434 -0.335299,-1.085173 -0.485757,-1.60197 z" />
    </clipPath>
    <clipPath
       clipPathUnits="userSpaceOnUse"
       id="clipPath8465">
      <path
         id="path8467"
         style="fill:#ff0000;fill-opacity:1;fill-rule:nonzero;stroke:none;stroke-width:0.264583"
         d="m 32.429545,63.304663 v 80.784727 c 0.02014,-0.003 0.03891,-0.007 0.05943,-0.0103 0.62637,-0.0895 0.813687,-0.0861 1.231966,-0.21291 0.297763,-0.46606 0.263054,-0.47261 1.171504,-0.78445 0.007,-0.002 0.01556,-0.004 0.02379,-0.007 0.09765,-0.0541 0.195337,-0.10815 0.293005,-0.16226 0.240342,-0.0909 0.466558,-0.0966 0.695047,-0.0718 0.267277,-0.20393 0.394618,-0.27654 0.92139,-0.29973 0.0026,-1e-4 0.0071,2.2e-4 0.01035,5.3e-4 0.187383,-0.16735 0.407939,-0.2654 0.679026,-0.39635 0.02775,-0.04 0.07803,-0.0933 0.108522,-0.11369 0.276759,-0.18501 0.567536,-0.34859 0.851111,-0.52297 0.198795,0.002 0.328586,10e-4 0.423228,0 0.07917,-0.0593 0.158231,-0.11885 0.234611,-0.17466 0.22633,-0.33641 0.339455,-0.4156 1.188559,-0.32247 0.0104,0.003 0.0217,0.005 0.03256,0.007 0.113331,-0.0705 0.228862,-0.14078 0.344165,-0.20826 0.0021,-0.005 0.0046,-0.01 0.0067,-0.0145 -0.05387,-0.0788 -0.109117,-0.15485 -0.166399,-0.22634 -0.155967,-0.19468 -0.352777,-0.35278 -0.529167,-0.52917 -0.639408,-0.63941 -1.278818,-1.27882 -1.918229,-1.91823 -1.302245,-1.30225 -0.764027,-2.61381 0.314193,-2.63395 0.45525,-0.009 1.006657,0.21343 1.556496,0.76326 l 1.918229,1.91823 c 0.176387,0.17639 0.372428,0.33511 0.529167,0.52917 0.261305,0.32353 0.4964,0.66794 0.720886,1.01802 0.17498,0.27288 0.87258,1.67096 0.92914,1.78232 0.133511,0.267 0.234974,0.55256 0.400495,0.80099 0.03863,0.47311 0.573754,0.46298 0.783931,0.76016 0.78672,1.11241 0.874906,1.67269 1.209228,2.90628 0.01257,0.11159 0.03773,0.21794 0.0677,0.32246 h 24.83776 V 63.304663 H 45.14197 c -0.0058,0.008 -0.01177,0.01582 -0.01757,0.02376 0.01908,0.07375 0.03492,0.203496 0.05323,0.417028 0.02522,0.294198 0.05117,0.592262 0.0186,0.885735 -0.0038,0.03404 -0.0094,0.06781 -0.01344,0.101804 0.02355,0.0227 0.04721,0.04094 0.0708,0.06511 0.122943,0.126008 0.2091,0.233254 0.267684,0.326594 0.283265,-0.345345 0.628962,-0.513821 0.95963,-0.522965 0.666076,-0.01842 1.270442,0.610849 1.184423,1.746663 l 0.224261,-0.0098 c 5.29e-4,0.0453 0.0011,0.09059 0.0016,0.135908 0.04268,0.0073 0.01633,0.08916 0.0011,0.137459 5.29e-4,0.168032 -0.0021,0.336214 -0.01497,0.503846 -0.01778,0.244385 0.101478,0.456478 0.05995,0.7121 -0.0429,0.263834 -0.08614,0.443637 -0.140044,0.57981 0.201729,-0.286954 0.396272,-0.578874 0.579292,-0.879017 0.468757,-0.768715 1.036545,-1.099987 1.524455,-1.112594 0.842264,-0.02175 1.442443,0.906563 0.888836,2.169377 0.612746,-0.0039 1.151187,0.533064 1.142567,1.474846 0.09895,0.0079 0.198831,0.029 0.297137,0.04031 0.06732,0.0077 0.257747,0.0066 0.198956,0.04031 -0.169322,0.09707 -0.344638,0.181917 -0.521933,0.263549 -0.02003,0.145333 -0.0509,0.297524 -0.09612,0.457854 0.0975,-0.09383 0.211326,-0.09094 0.341583,0.0708 0.02537,0.03152 0.0596,0.05937 0.09043,0.08888 0.698524,-0.665752 1.369737,-1.206254 1.257805,0.0072 -0.02421,0.262345 -0.04866,0.524688 -0.07286,0.787032 -0.224036,0.132184 -0.446543,0.266317 -0.669727,0.399976 -0.06001,0.107903 -0.107842,0.189217 -0.122473,0.203089 -0.06512,0.06174 -0.119671,0.111059 -0.1695,0.15503 -0.02191,0.03841 -0.03884,0.06775 -0.06201,0.108519 -0.02172,0.0067 -0.04343,0.01341 -0.06511,0.02016 1.98e-4,0.02429 1e-4,0.04859 5.29e-4,0.07286 -0.220435,0.19005 -0.428535,0.395478 -0.661459,0.569992 -0.05464,0.04094 -0.128026,0.04655 -0.192238,0.06976 -0.05064,0.0093 -0.109879,-0.0019 -0.151929,0.0279 -0.117925,0.08336 -0.196559,0.144643 -0.263549,0.198954 -0.05977,0.530693 -0.645736,0.941077 -0.984435,1.210781 -0.03007,0.02394 -0.06516,0.04032 -0.101285,0.05529 0.0024,0.03965 0.0043,0.07927 0.0072,0.118856 0.03117,0.51367 0.131297,1.147257 -0.434083,1.518769 -0.464013,0.304914 -1.142421,0.03735 -1.642277,0.279054 -0.408027,0.197302 0.900234,-0.107598 1.352373,-0.13901 0.09516,-0.0066 -0.186997,0.411639 -0.197403,0.430464 -0.04912,0.07603 -0.08922,0.158454 -0.147278,0.227894 -0.381802,0.45661 -0.266824,0.295439 -0.669726,0.594796 -0.02619,0.01947 -0.04019,0.05165 -0.06408,0.0739 0.131929,-0.197536 0.263911,-0.395198 0.395841,-0.592731 0.04322,-0.951875 0.04568,-0.117038 -0.486275,0.674378 0.33729,0.192847 -0.655524,1.513782 -0.822688,1.774053 -0.190055,0.206941 -0.369567,0.423823 -0.568441,0.622183 -0.101293,0.174041 -0.263671,0.346086 -0.342615,0.520899 -0.309131,0.684522 -0.546769,0.630806 -0.746207,0.266134 -0.09334,0.03515 -0.170344,0.04301 -0.218075,0.01035 -0.370025,0.313687 -0.973132,-0.817817 -1.268655,-1.316199 -0.114687,-0.1934 0.129164,-0.431112 0.193786,-0.646472 0.1383,-0.460923 0.258138,-0.613884 0.368453,-0.573091 0.01823,-0.01222 0.03471,-0.02373 0.04547,-0.03359 0.140227,-0.128233 0.265322,-0.272643 0.39791,-0.40876 0.459192,-0.450059 0.358193,-0.260731 0.482658,-0.747758 -0.24714,-0.106061 -0.424439,-0.32562 -0.579811,-0.568441 -0.128254,0.172143 -0.258233,0.343104 -0.383439,0.517281 -0.115208,0.126204 -0.229992,0.252585 -0.345199,0.378789 -0.04201,0.09542 -0.08294,0.191582 -0.122473,0.288356 -0.05151,0.243062 -0.115827,0.483843 -0.197403,0.718301 -0.464418,1.33477 -0.952892,0.09329 -2.606043,-0.744141 0.0757,-0.238765 0.15952,-0.473246 0.249081,-0.704865 0.0097,-0.07607 0.02421,-0.151173 0.04909,-0.223761 0.08823,-0.257331 0.163412,-0.430125 0.241845,-0.571024 -0.06279,-0.113027 -0.06573,-0.192995 -0.01344,-0.242879 -1.64e-4,-0.07937 0.01744,-0.186466 0.04238,-0.303859 -0.204279,0.165952 -0.4381,0.247719 -0.672312,0.249598 -0.05342,0.497168 -0.230229,0.985001 -0.851627,1.098124 -0.665038,0.121076 -1.293823,-0.465109 -1.826244,-0.8816 -0.214551,-0.167833 0.200141,-1.701646 0.225308,-1.812292 0.17621,-0.433457 0.321247,-0.880753 0.528651,-1.300179 0.137036,-0.277116 0.333026,-0.520753 0.494543,-0.784447 -0.08435,-0.0049 -0.08267,-0.0057 0.0016,-0.0026 0.01106,-0.0181 0.02342,-0.03544 0.03411,-0.05374 0.02127,-0.03645 0.04231,-0.07308 0.06356,-0.109556 V 72.37744 c -0.01579,0.01519 -0.03065,0.02941 -0.04702,0.04496 0.0041,0.04318 0.0099,0.103873 0.0062,0.07803 -0.0036,-0.02506 -0.0054,-0.05034 -0.0088,-0.07545 -0.374603,0.355074 -0.887005,0.779579 -1.366324,0.636654 -0.470726,0.678804 -0.938663,1.147998 -1.180291,0.04496 -0.04715,-0.215231 -0.131961,-0.677738 -0.151413,-1.054198 -0.206391,-0.43248 -0.120785,-0.922689 -0.222208,-1.621089 -0.02434,-0.259966 -0.05823,-0.519104 -0.07286,-0.779798 -0.02699,-0.480907 0.129394,-1.761445 0.141594,-1.874303 0.05925,-0.548169 0.129945,-1.097103 0.200504,-1.646413 -0.144883,-0.143666 -0.287626,-0.29156 -0.429948,-0.442351 -0.426103,-0.507148 -0.765275,-1.073378 -1.106392,-1.638141 -0.04353,-0.07206 -0.0843,-0.146111 -0.127124,-0.218591 -0.243848,-0.176644 -0.427945,-0.331087 -0.581361,-0.5271 z m 9.482625,13.10566 c 1.66e-4,0.07878 0.0145,0.135699 0.04754,0.161231 0.0028,0.0021 0.0059,0.004 0.0088,0.0062 0.03704,-0.05956 0.07514,-0.115126 0.116789,-0.166913 0.0113,-0.02355 0.02323,-0.04678 0.03462,-0.07028 -0.09344,0.01005 -0.167058,0.03095 -0.20774,0.06976 z m 2.781744,2.342493 c -0.08502,0.05694 -0.22253,0.127836 -0.157615,0.107487 0.03912,-0.01228 0.112533,-0.04439 0.198954,-0.0832 -0.0136,-0.01111 -0.02744,-0.01916 -0.04134,-0.02429 z m 0.04134,0.02429 c 0.11232,0.09163 0.215569,0.378849 0.319362,0.735357 0.01937,-0.37473 0.131694,-0.708089 0.409276,-0.927593 0.398111,-0.314809 0.81203,0.36189 1.090372,0.980819 0.200411,-0.370642 0.305636,-0.649438 0.337966,-0.855245 -0.10957,-0.01648 -0.160603,-0.0509 -0.077,-0.102835 0.03082,-0.01913 0.05829,-0.03472 0.08785,-0.05271 -0.03066,-0.795848 -1.570707,-0.0459 -2.167826,0.222207 z m 0.319362,0.735357 c -0.02886,0.558374 0.149715,1.209201 0.301789,1.714108 0.0087,0.02895 0.02408,0.04842 0.04393,0.06201 0.01873,-0.01587 0.03731,-0.0343 0.05478,-0.05788 0.02939,-0.03965 0.05692,-0.07759 0.08526,-0.116271 -0.183285,-0.425434 -0.335299,-1.085173 -0.485757,-1.60197 z m 7.410916,-6.938077 c 0.0564,-0.09895 0.111421,-0.195572 0.159681,-0.279572 -0.0953,0.05687 -0.190616,0.1138 -0.286287,0.170016 -5.29e-4,0.07224 -0.0011,0.144352 -5.29e-4,0.216525 0.0362,-0.0283 0.07883,-0.06436 0.127124,-0.106969 z m 0.159681,-0.279572 c 0.04404,-0.02627 0.08829,-0.0522 0.132292,-0.07855 0.268314,-0.482428 0.794202,-1.534084 -0.132292,0.07855 z M 35.484139,63.705158 c -0.0024,-1.11e-4 -0.0032,7.94e-4 -0.0011,0.0031 0.02051,0.019 0.0421,0.03678 0.06305,0.05529 -0.0086,-0.01347 -0.01688,-0.02708 -0.02585,-0.04031 -0.0056,-0.0083 -0.02887,-0.01773 -0.03617,-0.0181 z m 9.720336,1.948717 c -0.04947,0.0071 -0.103558,0.01164 -0.159163,0.01551 -0.07119,0.423058 -0.147952,0.845317 -0.21704,1.268656 0.01633,-0.01717 0.03226,-0.02851 0.04909,-0.04806 0.04463,-0.211381 0.08648,-0.423241 0.133326,-0.634069 0.04999,-0.224954 0.116118,-0.424765 0.193786,-0.602033 z m 2.399856,2.941423 c -0.01662,0.04485 -0.03377,0.08792 -0.05116,0.128675 0.01265,-0.0077 0.02339,-0.01688 0.03514,-0.02532 0.02209,-0.03034 0.04369,-0.06102 0.06563,-0.09147 -0.01633,-0.004 -0.03239,-0.008 -0.04961,-0.01188 z m -0.05116,0.128675 c -0.02286,0.01392 -0.05147,0.02508 -0.07803,0.03721 -0.0076,0.01791 -0.01447,0.03652 -0.02222,0.05426 0.01043,0.0084 0.02111,0.01633 0.03152,0.02479 0.0092,-0.01246 0.01871,-0.02474 0.02791,-0.03721 0.01386,-0.02524 0.02813,-0.04933 0.04083,-0.07906 z m 0.474387,-0.108521 c -0.0104,-0.0038 -0.05501,0.02691 -0.110585,0.07028 0.004,0.0016 0.01,0.003 0.01394,0.0047 0.03375,-0.02394 0.06104,-0.04283 0.09973,-0.0708 -2.9e-5,-0.0021 -0.0013,-0.0035 -0.0031,-0.0041 z m 4.260207,4.103626 c -0.06497,0.0204 -0.129937,0.04084 -0.19482,0.0615 0.03561,0.02064 0.08495,0.01643 0.19482,-0.0615 z M 40.524142,141.23531 c -0.165243,0.0909 -0.321906,0.19204 -0.444418,0.33072 -0.131252,0.14859 -0.146757,0.7532 -0.02894,0.59377 0.206243,-0.27913 0.342821,-0.59998 0.473356,-0.92449 z m 0.412895,0.21239 c -0.03103,0.0237 -0.05999,0.0453 -0.09198,0.0703 -0.01114,0.62804 -0.02021,0.37849 0.09198,-0.0703 z m -2.130621,0.35088 c -0.105984,0.0371 -0.20407,0.0871 -0.287837,0.1633 -0.0027,0.002 -0.0077,0.014 -0.01394,0.0305 0.0656,0.006 0.106159,0.0195 0.09922,0.0481 0.07717,-0.0863 0.144156,-0.16719 0.20257,-0.24184 z m -0.304374,0.12609 c -0.0013,0.001 -0.0033,0.002 -0.0041,0.004 -0.01508,0.0139 -0.02994,0.0375 -0.04444,0.0641 0.01019,2.6e-4 0.02058,5.3e-4 0.02997,0.001 0.0089,-0.0326 0.0092,-0.0343 0.0186,-0.0687 z m 0.04703,0.17518 c -0.02917,0.0209 -0.06088,0.0345 -0.09405,0.0439 -0.0074,0.0239 -0.01609,0.0534 -0.02429,0.0806 0.04191,-0.0427 0.08119,-0.0843 0.11834,-0.12454 z m -0.109037,0.0486 c -0.01696,0.004 -0.03442,0.007 -0.05219,0.009 -0.02051,0.077 -0.02225,0.13353 0.01603,0.0951 0.0039,-0.004 0.0075,-0.007 0.01138,-0.0114 0.0096,-0.035 0.01439,-0.0543 0.02479,-0.0925 z m -1.205611,0.4625 c -0.01132,8e-4 -0.02254,0.003 -0.03411,0.006 0.220449,0.0524 0.414081,0.0996 0.197403,0.0191 -0.08682,-0.0181 -0.127473,-0.0272 -0.163295,-0.0248 z m 4.432803,0.0202 c -0.07674,0.1954 -0.05893,0.32047 0.139009,0.3142 0.0038,-0.003 0.0075,-0.005 0.01138,-0.008 -0.04001,-0.0819 -0.06722,-0.13856 -0.118337,-0.24081 -0.01008,-0.0198 -0.02193,-0.0454 -0.03204,-0.0656 z m 0.139009,0.3142 c -0.05263,0.0346 -0.104878,0.0698 -0.156062,0.10594 0.0645,-0.0204 0.129479,-0.0392 0.194302,-0.0584 -0.0077,-0.0158 -0.01569,-0.0325 -0.02376,-0.0491 -0.0043,2.4e-4 -0.01029,0.001 -0.01447,0.002 z m -5.487519,-0.0568 c -0.014,0.003 -0.02788,0.007 -0.04186,0.0109 0.03014,0.005 0.05938,0.0102 0.08992,0.0155 0.01794,0.003 -0.03039,-0.0302 -0.04806,-0.0264 z m -0.721402,0.18294 c -0.0011,2.6e-4 -0.0021,7.9e-4 -0.0031,10e-4 -0.02627,0.0192 -0.10518,0.0761 -0.07855,0.0574 0.02906,-0.0204 0.05532,-0.0394 0.08165,-0.0584 z m 5.972243,0.0388 c -0.09291,0.0698 -0.18098,0.14404 -0.259932,0.22789 -0.09513,0.10101 0.283065,-0.0297 0.404628,-0.0966 0.04518,-0.0249 0.08248,-0.062 0.117821,-0.10231 -0.09571,-0.009 -0.185256,-0.0175 -0.20774,-0.0202 -0.01283,-0.002 -0.03461,-0.005 -0.05478,-0.009 z m 0.317294,0.0341 c -0.02664,0.0247 -0.05094,0.0485 -0.06718,0.0667 -0.606052,0.2933 -0.882407,0.48204 -1.329116,0.48525 -0.327173,0.26966 -0.803783,0.3513 -1.208712,0.50022 -0.01355,0.005 -0.02736,0.007 -0.04134,0.008 -0.111776,0.10812 -0.227579,0.20034 -0.324012,0.22892 -0.08326,0.0247 -0.168277,0.0408 -0.254248,0.0527 -0.381384,0.45361 -0.919544,0.86997 -1.553912,0.7798 -0.0612,-0.0109 -0.09801,-0.0172 -0.144176,-0.0253 -0.451705,0.21658 -0.567809,0.29911 -0.898652,0.27854 -0.09167,0.0234 -0.188267,0.0452 -0.287322,0.0661 -0.02606,0.0375 -0.05324,0.0748 -0.0832,0.11059 -0.231389,0.27636 -0.528175,0.46132 -0.855247,0.59324 h 8.958627 c -0.04461,-0.1612 -0.09034,-0.32212 -0.131257,-0.4842 -0.03003,-0.11893 -0.05147,-0.23979 -0.07493,-0.36019 -0.02418,-0.12405 0.0074,-0.27142 -0.0677,-0.3731 -0.162748,-0.2205 -0.428863,-0.34474 -0.612365,-0.54829 -0.654851,-0.72641 -0.746307,-0.87584 -0.991671,-1.37666 -0.01204,-0.001 -0.02138,-0.001 -0.03359,-0.002 z m -6.108671,2.44068 c 0.01315,-0.0189 0.02609,-0.0379 0.03824,-0.0568 -0.127868,0.01 -0.34935,0.0345 -0.853178,0.18191 -0.119374,0.0349 0.35487,-0.0281 0.814938,-0.12506 z m 0.03824,-0.0568 c 0.06455,-0.005 0.107096,-0.007 0.146246,-0.0181 -0.0388,-0.004 -0.07989,-0.009 -0.125058,-0.015 -0.0067,0.011 -0.01413,0.022 -0.02119,0.0331 z m 0.146246,-0.0181 c 0.03664,0.004 0.07083,0.007 0.102836,0.009 0.398878,-0.10204 0.671033,-0.22258 0.315224,-0.31006 -0.258244,0.21154 -0.340005,0.27902 -0.41806,0.30127 z m -1.185976,-2.35851 c -0.06064,0.009 -0.214342,0.119 -0.160713,0.0894 0.05393,-0.0298 0.107852,-0.0596 0.161747,-0.0894 -2.64e-4,3e-5 -7.93e-4,-6e-5 -0.0011,0 z m 5.708695,0.1695 c -0.149069,0.0975 -0.301395,0.19133 -0.434597,0.30334 0.08864,1.6e-4 0.202078,-0.0177 0.279051,-0.0997 0.0586,-0.0625 0.10913,-0.1313 0.155546,-0.2036 z m -0.458886,0.32452 c -0.07167,0.0627 -0.137885,0.1311 -0.19327,0.20929 -0.111098,0.15686 0.110882,0.002 0.36277,-0.18087 -0.05353,-0.007 -0.110048,-0.0169 -0.1695,-0.0284 z m -6.023922,0.0972 c -0.06319,0.0173 -0.133673,0.0342 -0.178284,0.0822 -0.0037,0.004 -0.0073,0.008 -0.01085,0.0124 0.0529,-0.017 0.106373,-0.0339 0.167947,-0.0553 0.01405,-0.005 0.0355,-0.0433 0.02119,-0.0393 z m 4.423503,0.76636 c -2.65e-4,2e-4 -7.94e-4,2.2e-4 -0.0011,5.2e-4 2.65e-4,0 7.94e-4,6e-5 0.0011,0 z m -0.0011,5.2e-4 c -0.232333,0.0166 -0.467129,0.0228 -0.690398,0.0837 -0.181734,0.0495 0.376976,0.005 0.56534,0.008 0.04206,-0.0299 0.08356,-0.0607 0.125058,-0.0915 z m -2.371434,0.53537 c -0.0031,-0.008 -0.06683,0.19623 -0.197918,0.41962 0.06541,-0.009 0.08751,-0.0228 0.285771,-0.076 0.05468,-0.0415 0.167002,-0.12822 0.235127,-0.18035 -0.0814,-0.0197 -0.193217,-0.0379 -0.344683,-0.0537 0.01553,-0.0735 0.02289,-0.10659 0.0217,-0.10956 z" />
    </clipPath>
    <clipPath
       clipPathUnits="userSpaceOnUse"
       id="clipPath8475">
      <path
         id="path8477"
         style="fill:#ff0000;fill-opacity:1;fill-rule:nonzero;stroke:none;stroke-width:0.264583"
         d="m 32.429545,63.304663 v 80.784727 c 0.02014,-0.003 0.03891,-0.007 0.05943,-0.0103 0.62637,-0.0895 0.813687,-0.0861 1.231966,-0.21291 0.297763,-0.46606 0.263054,-0.47261 1.171504,-0.78445 0.007,-0.002 0.01556,-0.004 0.02379,-0.007 0.09765,-0.0541 0.195337,-0.10815 0.293005,-0.16226 0.240342,-0.0909 0.466558,-0.0966 0.695047,-0.0718 0.267277,-0.20393 0.394618,-0.27654 0.92139,-0.29973 0.0026,-1e-4 0.0071,2.2e-4 0.01035,5.3e-4 0.187383,-0.16735 0.407939,-0.2654 0.679026,-0.39635 0.02775,-0.04 0.07803,-0.0933 0.108522,-0.11369 0.276759,-0.18501 0.567536,-0.34859 0.851111,-0.52297 0.198795,0.002 0.328586,10e-4 0.423228,0 0.07917,-0.0593 0.158231,-0.11885 0.234611,-0.17466 0.22633,-0.33641 0.339455,-0.4156 1.188559,-0.32247 0.0104,0.003 0.0217,0.005 0.03256,0.007 0.113331,-0.0705 0.228862,-0.14078 0.344165,-0.20826 0.0021,-0.005 0.0046,-0.01 0.0067,-0.0145 -0.05387,-0.0788 -0.109117,-0.15485 -0.166399,-0.22634 -0.155967,-0.19468 -0.352777,-0.35278 -0.529167,-0.52917 -0.639408,-0.63941 -1.278818,-1.27882 -1.918229,-1.91823 -1.302245,-1.30225 -0.764027,-2.61381 0.314193,-2.63395 0.45525,-0.009 1.006657,0.21343 1.556496,0.76326 l 1.918229,1.91823 c 0.176387,0.17639 0.372428,0.33511 0.529167,0.52917 0.261305,0.32353 0.4964,0.66794 0.720886,1.01802 0.17498,0.27288 0.87258,1.67096 0.92914,1.78232 0.133511,0.267 0.234974,0.55256 0.400495,0.80099 0.03863,0.47311 0.573754,0.46298 0.783931,0.76016 0.78672,1.11241 0.874906,1.67269 1.209228,2.90628 0.01257,0.11159 0.03773,0.21794 0.0677,0.32246 h 24.83776 V 63.304663 H 45.14197 c -0.0058,0.008 -0.01177,0.01582 -0.01757,0.02376 0.01908,0.07375 0.03492,0.203496 0.05323,0.417028 0.02522,0.294198 0.05117,0.592262 0.0186,0.885735 -0.0038,0.03404 -0.0094,0.06781 -0.01344,0.101804 0.02355,0.0227 0.04721,0.04094 0.0708,0.06511 0.122943,0.126008 0.2091,0.233254 0.267684,0.326594 0.283265,-0.345345 0.628962,-0.513821 0.95963,-0.522965 0.666076,-0.01842 1.270442,0.610849 1.184423,1.746663 l 0.224261,-0.0098 c 5.29e-4,0.0453 0.0011,0.09059 0.0016,0.135908 0.04268,0.0073 0.01633,0.08916 0.0011,0.137459 5.29e-4,0.168032 -0.0021,0.336214 -0.01497,0.503846 -0.01778,0.244385 0.101478,0.456478 0.05995,0.7121 -0.0429,0.263834 -0.08614,0.443637 -0.140044,0.57981 0.201729,-0.286954 0.396272,-0.578874 0.579292,-0.879017 0.468757,-0.768715 1.036545,-1.099987 1.524455,-1.112594 0.842264,-0.02175 1.442443,0.906563 0.888836,2.169377 0.612746,-0.0039 1.151187,0.533064 1.142567,1.474846 0.09895,0.0079 0.198831,0.029 0.297137,0.04031 0.06732,0.0077 0.257747,0.0066 0.198956,0.04031 -0.169322,0.09707 -0.344638,0.181917 -0.521933,0.263549 -0.02003,0.145333 -0.0509,0.297524 -0.09612,0.457854 0.0975,-0.09383 0.211326,-0.09094 0.341583,0.0708 0.02537,0.03152 0.0596,0.05937 0.09043,0.08888 0.698524,-0.665752 1.369737,-1.206254 1.257805,0.0072 -0.02421,0.262345 -0.04866,0.524688 -0.07286,0.787032 -0.224036,0.132184 -0.446543,0.266317 -0.669727,0.399976 -0.06001,0.107903 -0.107842,0.189217 -0.122473,0.203089 -0.06512,0.06174 -0.119671,0.111059 -0.1695,0.15503 -0.02191,0.03841 -0.03884,0.06775 -0.06201,0.108519 -0.02172,0.0067 -0.04343,0.01341 -0.06511,0.02016 1.98e-4,0.02429 1e-4,0.04859 5.29e-4,0.07286 -0.220435,0.19005 -0.428535,0.395478 -0.661459,0.569992 -0.05464,0.04094 -0.128026,0.04655 -0.192238,0.06976 -0.05064,0.0093 -0.109879,-0.0019 -0.151929,0.0279 -0.117925,0.08336 -0.196559,0.144643 -0.263549,0.198954 -0.05977,0.530693 -0.645736,0.941077 -0.984435,1.210781 -0.03007,0.02394 -0.06516,0.04032 -0.101285,0.05529 0.0024,0.03965 0.0043,0.07927 0.0072,0.118856 0.03117,0.51367 0.131297,1.147257 -0.434083,1.518769 -0.464013,0.304914 -1.142421,0.03735 -1.642277,0.279054 -0.408027,0.197302 0.900234,-0.107598 1.352373,-0.13901 0.09516,-0.0066 -0.186997,0.411639 -0.197403,0.430464 -0.04912,0.07603 -0.08922,0.158454 -0.147278,0.227894 -0.381802,0.45661 -0.266824,0.295439 -0.669726,0.594796 -0.02619,0.01947 -0.04019,0.05165 -0.06408,0.0739 0.131929,-0.197536 0.263911,-0.395198 0.395841,-0.592731 0.04322,-0.951875 0.04568,-0.117038 -0.486275,0.674378 0.33729,0.192847 -0.655524,1.513782 -0.822688,1.774053 -0.190055,0.206941 -0.369567,0.423823 -0.568441,0.622183 -0.101293,0.174041 -0.263671,0.346086 -0.342615,0.520899 -0.309131,0.684522 -0.546769,0.630806 -0.746207,0.266134 -0.09334,0.03515 -0.170344,0.04301 -0.218075,0.01035 -0.370025,0.313687 -0.973132,-0.817817 -1.268655,-1.316199 -0.114687,-0.1934 0.129164,-0.431112 0.193786,-0.646472 0.1383,-0.460923 0.258138,-0.613884 0.368453,-0.573091 0.01823,-0.01222 0.03471,-0.02373 0.04547,-0.03359 0.140227,-0.128233 0.265322,-0.272643 0.39791,-0.40876 0.459192,-0.450059 0.358193,-0.260731 0.482658,-0.747758 -0.24714,-0.106061 -0.424439,-0.32562 -0.579811,-0.568441 -0.128254,0.172143 -0.258233,0.343104 -0.383439,0.517281 -0.115208,0.126204 -0.229992,0.252585 -0.345199,0.378789 -0.04201,0.09542 -0.08294,0.191582 -0.122473,0.288356 -0.05151,0.243062 -0.115827,0.483843 -0.197403,0.718301 -0.464418,1.33477 -0.952892,0.09329 -2.606043,-0.744141 0.0757,-0.238765 0.15952,-0.473246 0.249081,-0.704865 0.0097,-0.07607 0.02421,-0.151173 0.04909,-0.223761 0.08823,-0.257331 0.163412,-0.430125 0.241845,-0.571024 -0.06279,-0.113027 -0.06573,-0.192995 -0.01344,-0.242879 -1.64e-4,-0.07937 0.01744,-0.186466 0.04238,-0.303859 -0.204279,0.165952 -0.4381,0.247719 -0.672312,0.249598 -0.05342,0.497168 -0.230229,0.985001 -0.851627,1.098124 -0.665038,0.121076 -1.293823,-0.465109 -1.826244,-0.8816 -0.214551,-0.167833 0.200141,-1.701646 0.225308,-1.812292 0.17621,-0.433457 0.321247,-0.880753 0.528651,-1.300179 0.137036,-0.277116 0.333026,-0.520753 0.494543,-0.784447 -0.08435,-0.0049 -0.08267,-0.0057 0.0016,-0.0026 0.01106,-0.0181 0.02342,-0.03544 0.03411,-0.05374 0.02127,-0.03645 0.04231,-0.07308 0.06356,-0.109556 V 72.37744 c -0.01579,0.01519 -0.03065,0.02941 -0.04702,0.04496 0.0041,0.04318 0.0099,0.103873 0.0062,0.07803 -0.0036,-0.02506 -0.0054,-0.05034 -0.0088,-0.07545 -0.374603,0.355074 -0.887005,0.779579 -1.366324,0.636654 -0.470726,0.678804 -0.938663,1.147998 -1.180291,0.04496 -0.04715,-0.215231 -0.131961,-0.677738 -0.151413,-1.054198 -0.206391,-0.43248 -0.120785,-0.922689 -0.222208,-1.621089 -0.02434,-0.259966 -0.05823,-0.519104 -0.07286,-0.779798 -0.02699,-0.480907 0.129394,-1.761445 0.141594,-1.874303 0.05925,-0.548169 0.129945,-1.097103 0.200504,-1.646413 -0.144883,-0.143666 -0.287626,-0.29156 -0.429948,-0.442351 -0.426103,-0.507148 -0.765275,-1.073378 -1.106392,-1.638141 -0.04353,-0.07206 -0.0843,-0.146111 -0.127124,-0.218591 -0.243848,-0.176644 -0.427945,-0.331087 -0.581361,-0.5271 z m 9.482625,13.10566 c 1.66e-4,0.07878 0.0145,0.135699 0.04754,0.161231 0.0028,0.0021 0.0059,0.004 0.0088,0.0062 0.03704,-0.05956 0.07514,-0.115126 0.116789,-0.166913 0.0113,-0.02355 0.02323,-0.04678 0.03462,-0.07028 -0.09344,0.01005 -0.167058,0.03095 -0.20774,0.06976 z m 2.781744,2.342493 c -0.08502,0.05694 -0.22253,0.127836 -0.157615,0.107487 0.03912,-0.01228 0.112533,-0.04439 0.198954,-0.0832 -0.0136,-0.01111 -0.02744,-0.01916 -0.04134,-0.02429 z m 0.04134,0.02429 c 0.11232,0.09163 0.215569,0.378849 0.319362,0.735357 0.01937,-0.37473 0.131694,-0.708089 0.409276,-0.927593 0.398111,-0.314809 0.81203,0.36189 1.090372,0.980819 0.200411,-0.370642 0.305636,-0.649438 0.337966,-0.855245 -0.10957,-0.01648 -0.160603,-0.0509 -0.077,-0.102835 0.03082,-0.01913 0.05829,-0.03472 0.08785,-0.05271 -0.03066,-0.795848 -1.570707,-0.0459 -2.167826,0.222207 z m 0.319362,0.735357 c -0.02886,0.558374 0.149715,1.209201 0.301789,1.714108 0.0087,0.02895 0.02408,0.04842 0.04393,0.06201 0.01873,-0.01587 0.03731,-0.0343 0.05478,-0.05788 0.02939,-0.03965 0.05692,-0.07759 0.08526,-0.116271 -0.183285,-0.425434 -0.335299,-1.085173 -0.485757,-1.60197 z m 7.410916,-6.938077 c 0.0564,-0.09895 0.111421,-0.195572 0.159681,-0.279572 -0.0953,0.05687 -0.190616,0.1138 -0.286287,0.170016 -5.29e-4,0.07224 -0.0011,0.144352 -5.29e-4,0.216525 0.0362,-0.0283 0.07883,-0.06436 0.127124,-0.106969 z m 0.159681,-0.279572 c 0.04404,-0.02627 0.08829,-0.0522 0.132292,-0.07855 0.268314,-0.482428 0.794202,-1.534084 -0.132292,0.07855 z M 35.484139,63.705158 c -0.0024,-1.11e-4 -0.0032,7.94e-4 -0.0011,0.0031 0.02051,0.019 0.0421,0.03678 0.06305,0.05529 -0.0086,-0.01347 -0.01688,-0.02708 -0.02585,-0.04031 -0.0056,-0.0083 -0.02887,-0.01773 -0.03617,-0.0181 z m 9.720336,1.948717 c -0.04947,0.0071 -0.103558,0.01164 -0.159163,0.01551 -0.07119,0.423058 -0.147952,0.845317 -0.21704,1.268656 0.01633,-0.01717 0.03226,-0.02851 0.04909,-0.04806 0.04463,-0.211381 0.08648,-0.423241 0.133326,-0.634069 0.04999,-0.224954 0.116118,-0.424765 0.193786,-0.602033 z m 2.399856,2.941423 c -0.01662,0.04485 -0.03377,0.08792 -0.05116,0.128675 0.01265,-0.0077 0.02339,-0.01688 0.03514,-0.02532 0.02209,-0.03034 0.04369,-0.06102 0.06563,-0.09147 -0.01633,-0.004 -0.03239,-0.008 -0.04961,-0.01188 z m -0.05116,0.128675 c -0.02286,0.01392 -0.05147,0.02508 -0.07803,0.03721 -0.0076,0.01791 -0.01447,0.03652 -0.02222,0.05426 0.01043,0.0084 0.02111,0.01633 0.03152,0.02479 0.0092,-0.01246 0.01871,-0.02474 0.02791,-0.03721 0.01386,-0.02524 0.02813,-0.04933 0.04083,-0.07906 z m 0.474387,-0.108521 c -0.0104,-0.0038 -0.05501,0.02691 -0.110585,0.07028 0.004,0.0016 0.01,0.003 0.01394,0.0047 0.03375,-0.02394 0.06104,-0.04283 0.09973,-0.0708 -2.9e-5,-0.0021 -0.0013,-0.0035 -0.0031,-0.0041 z m 4.260207,4.103626 c -0.06497,0.0204 -0.129937,0.04084 -0.19482,0.0615 0.03561,0.02064 0.08495,0.01643 0.19482,-0.0615 z M 40.524142,141.23531 c -0.165243,0.0909 -0.321906,0.19204 -0.444418,0.33072 -0.131252,0.14859 -0.146757,0.7532 -0.02894,0.59377 0.206243,-0.27913 0.342821,-0.59998 0.473356,-0.92449 z m 0.412895,0.21239 c -0.03103,0.0237 -0.05999,0.0453 -0.09198,0.0703 -0.01114,0.62804 -0.02021,0.37849 0.09198,-0.0703 z m -2.130621,0.35088 c -0.105984,0.0371 -0.20407,0.0871 -0.287837,0.1633 -0.0027,0.002 -0.0077,0.014 -0.01394,0.0305 0.0656,0.006 0.106159,0.0195 0.09922,0.0481 0.07717,-0.0863 0.144156,-0.16719 0.20257,-0.24184 z m -0.304374,0.12609 c -0.0013,0.001 -0.0033,0.002 -0.0041,0.004 -0.01508,0.0139 -0.02994,0.0375 -0.04444,0.0641 0.01019,2.6e-4 0.02058,5.3e-4 0.02997,0.001 0.0089,-0.0326 0.0092,-0.0343 0.0186,-0.0687 z m 0.04703,0.17518 c -0.02917,0.0209 -0.06088,0.0345 -0.09405,0.0439 -0.0074,0.0239 -0.01609,0.0534 -0.02429,0.0806 0.04191,-0.0427 0.08119,-0.0843 0.11834,-0.12454 z m -0.109037,0.0486 c -0.01696,0.004 -0.03442,0.007 -0.05219,0.009 -0.02051,0.077 -0.02225,0.13353 0.01603,0.0951 0.0039,-0.004 0.0075,-0.007 0.01138,-0.0114 0.0096,-0.035 0.01439,-0.0543 0.02479,-0.0925 z m -1.205611,0.4625 c -0.01132,8e-4 -0.02254,0.003 -0.03411,0.006 0.220449,0.0524 0.414081,0.0996 0.197403,0.0191 -0.08682,-0.0181 -0.127473,-0.0272 -0.163295,-0.0248 z m 4.432803,0.0202 c -0.07674,0.1954 -0.05893,0.32047 0.139009,0.3142 0.0038,-0.003 0.0075,-0.005 0.01138,-0.008 -0.04001,-0.0819 -0.06722,-0.13856 -0.118337,-0.24081 -0.01008,-0.0198 -0.02193,-0.0454 -0.03204,-0.0656 z m 0.139009,0.3142 c -0.05263,0.0346 -0.104878,0.0698 -0.156062,0.10594 0.0645,-0.0204 0.129479,-0.0392 0.194302,-0.0584 -0.0077,-0.0158 -0.01569,-0.0325 -0.02376,-0.0491 -0.0043,2.4e-4 -0.01029,0.001 -0.01447,0.002 z m -5.487519,-0.0568 c -0.014,0.003 -0.02788,0.007 -0.04186,0.0109 0.03014,0.005 0.05938,0.0102 0.08992,0.0155 0.01794,0.003 -0.03039,-0.0302 -0.04806,-0.0264 z m -0.721402,0.18294 c -0.0011,2.6e-4 -0.0021,7.9e-4 -0.0031,10e-4 -0.02627,0.0192 -0.10518,0.0761 -0.07855,0.0574 0.02906,-0.0204 0.05532,-0.0394 0.08165,-0.0584 z m 5.972243,0.0388 c -0.09291,0.0698 -0.18098,0.14404 -0.259932,0.22789 -0.09513,0.10101 0.283065,-0.0297 0.404628,-0.0966 0.04518,-0.0249 0.08248,-0.062 0.117821,-0.10231 -0.09571,-0.009 -0.185256,-0.0175 -0.20774,-0.0202 -0.01283,-0.002 -0.03461,-0.005 -0.05478,-0.009 z m 0.317294,0.0341 c -0.02664,0.0247 -0.05094,0.0485 -0.06718,0.0667 -0.606052,0.2933 -0.882407,0.48204 -1.329116,0.48525 -0.327173,0.26966 -0.803783,0.3513 -1.208712,0.50022 -0.01355,0.005 -0.02736,0.007 -0.04134,0.008 -0.111776,0.10812 -0.227579,0.20034 -0.324012,0.22892 -0.08326,0.0247 -0.168277,0.0408 -0.254248,0.0527 -0.381384,0.45361 -0.919544,0.86997 -1.553912,0.7798 -0.0612,-0.0109 -0.09801,-0.0172 -0.144176,-0.0253 -0.451705,0.21658 -0.567809,0.29911 -0.898652,0.27854 -0.09167,0.0234 -0.188267,0.0452 -0.287322,0.0661 -0.02606,0.0375 -0.05324,0.0748 -0.0832,0.11059 -0.231389,0.27636 -0.528175,0.46132 -0.855247,0.59324 h 8.958627 c -0.04461,-0.1612 -0.09034,-0.32212 -0.131257,-0.4842 -0.03003,-0.11893 -0.05147,-0.23979 -0.07493,-0.36019 -0.02418,-0.12405 0.0074,-0.27142 -0.0677,-0.3731 -0.162748,-0.2205 -0.428863,-0.34474 -0.612365,-0.54829 -0.654851,-0.72641 -0.746307,-0.87584 -0.991671,-1.37666 -0.01204,-0.001 -0.02138,-0.001 -0.03359,-0.002 z m -6.108671,2.44068 c 0.01315,-0.0189 0.02609,-0.0379 0.03824,-0.0568 -0.127868,0.01 -0.34935,0.0345 -0.853178,0.18191 -0.119374,0.0349 0.35487,-0.0281 0.814938,-0.12506 z m 0.03824,-0.0568 c 0.06455,-0.005 0.107096,-0.007 0.146246,-0.0181 -0.0388,-0.004 -0.07989,-0.009 -0.125058,-0.015 -0.0067,0.011 -0.01413,0.022 -0.02119,0.0331 z m 0.146246,-0.0181 c 0.03664,0.004 0.07083,0.007 0.102836,0.009 0.398878,-0.10204 0.671033,-0.22258 0.315224,-0.31006 -0.258244,0.21154 -0.340005,0.27902 -0.41806,0.30127 z m -1.185976,-2.35851 c -0.06064,0.009 -0.214342,0.119 -0.160713,0.0894 0.05393,-0.0298 0.107852,-0.0596 0.161747,-0.0894 -2.64e-4,3e-5 -7.93e-4,-6e-5 -0.0011,0 z m 5.708695,0.1695 c -0.149069,0.0975 -0.301395,0.19133 -0.434597,0.30334 0.08864,1.6e-4 0.202078,-0.0177 0.279051,-0.0997 0.0586,-0.0625 0.10913,-0.1313 0.155546,-0.2036 z m -0.458886,0.32452 c -0.07167,0.0627 -0.137885,0.1311 -0.19327,0.20929 -0.111098,0.15686 0.110882,0.002 0.36277,-0.18087 -0.05353,-0.007 -0.110048,-0.0169 -0.1695,-0.0284 z m -6.023922,0.0972 c -0.06319,0.0173 -0.133673,0.0342 -0.178284,0.0822 -0.0037,0.004 -0.0073,0.008 -0.01085,0.0124 0.0529,-0.017 0.106373,-0.0339 0.167947,-0.0553 0.01405,-0.005 0.0355,-0.0433 0.02119,-0.0393 z m 4.423503,0.76636 c -2.65e-4,2e-4 -7.94e-4,2.2e-4 -0.0011,5.2e-4 2.65e-4,0 7.94e-4,6e-5 0.0011,0 z m -0.0011,5.2e-4 c -0.232333,0.0166 -0.467129,0.0228 -0.690398,0.0837 -0.181734,0.0495 0.376976,0.005 0.56534,0.008 0.04206,-0.0299 0.08356,-0.0607 0.125058,-0.0915 z m -2.371434,0.53537 c -0.0031,-0.008 -0.06683,0.19623 -0.197918,0.41962 0.06541,-0.009 0.08751,-0.0228 0.285771,-0.076 0.05468,-0.0415 0.167002,-0.12822 0.235127,-0.18035 -0.0814,-0.0197 -0.193217,-0.0379 -0.344683,-0.0537 0.01553,-0.0735 0.02289,-0.10659 0.0217,-0.10956 z" />
    </clipPath>
    <clipPath
       clipPathUnits="userSpaceOnUse"
       id="clipPath8497">
      <path
         id="path8499"
         style="fill:#ff0000;fill-opacity:1;fill-rule:nonzero;stroke:none;stroke-width:0.264583"
         d="m 148.15995,83.104487 c 0.0273,0.02643 0.0541,0.05336 0.0816,0.07958 0.01,-0.02739 0.0215,-0.05315 0.0326,-0.07958 z m 2.70474,0 c 0.005,0.180065 -0.02,0.383572 -0.0847,0.613918 -0.19238,0.684541 0.36549,1.157923 0.48059,1.752865 0.0249,0.128444 -0.0919,-0.451755 -0.17518,-0.350885 -0.0603,0.07299 -0.11679,0.148418 -0.17157,0.225311 0.26539,0.0755 0.35341,0.190921 0.71469,0.517797 0.18425,-0.08469 0.3916,-0.174079 0.66714,-0.326077 0.24342,-0.05715 0.55974,-0.145812 0.86455,-0.186037 0.30866,-0.281363 0.66203,-0.517162 1.0697,-0.606163 0.0115,-0.0026 0.0231,-0.0043 0.0346,-0.0067 -0.20369,-0.137988 0.21631,-0.196718 0.66818,-0.216006 0.18887,-0.08927 0.37881,-0.176808 0.56689,-0.267684 0.0574,-0.01556 0.14077,-0.03778 0.20877,-0.05736 0.0854,-0.03737 0.17206,-0.0714 0.26149,-0.09818 0.0255,-0.0076 0.0519,-0.0024 0.0785,0.0047 0.0413,-0.01019 0.0804,-0.01683 0.12196,-0.02585 0.008,-0.01405 0.0168,-0.02627 0.032,-0.02376 0.28381,-0.427323 0.60512,-0.741743 0.9803,-0.949814 z m 3.39979,1.634009 c 0.0282,0.01913 0.074,0.04036 0.12816,0.06253 0.0189,-0.01363 0.039,-0.02964 0.0522,-0.03669 0.0523,-0.02791 0.1063,-0.05231 0.15917,-0.07906 -0.11386,0.01352 -0.22725,0.03008 -0.33952,0.05323 z m -33.3654,-1.63349 v 86.423664 h 23.81663 c 0.57387,-0.98795 1.01676,-1.7877 1.4795,-2.65462 -0.0119,-0.0402 -0.0217,-0.0814 -0.0289,-0.12351 -0.12846,-0.0625 -0.25629,-0.12646 -0.38137,-0.1943 0.002,-0.022 0.003,-0.0471 0.004,-0.0724 -0.0573,-0.0464 -0.11181,-0.0958 -0.16175,-0.15038 -0.1983,-0.21682 -0.13926,-0.7501 -0.13126,-1.01286 0.0127,-0.081 0.077,-0.17119 0.0382,-0.24339 -0.0268,-0.0499 -0.0455,0.17554 -0.092,0.14314 -0.0807,-0.0562 -0.077,-0.18158 -0.10077,-0.27698 -0.1337,-0.53631 -0.16246,-0.94838 -0.0982,-1.48673 0.0681,-0.1412 0.0177,-0.037 0.0636,-0.13178 -0.007,-0.004 -0.014,-0.008 -0.0212,-0.0124 -0.003,0.004 -0.009,0.0166 -0.0114,0.0202 -0.0108,0.0156 -0.0118,-0.004 -0.009,-0.032 -0.38101,-0.22449 -0.58994,-0.31901 -1.39474,-0.72141 v -5.2e-4 c -1.39567,-0.69784 -1.52881,-1.83843 -0.91984,-2.38797 -0.34056,-0.26403 -0.68072,-0.52841 -1.02061,-0.79323 -1.54961,-1.20736 -1.02344,-2.6838 0.20825,-2.66754 0.41055,0.005 0.89936,0.17689 1.41594,0.57929 0.82253,0.64072 1.64508,1.28234 2.47892,1.90841 0.77021,-0.81745 2.14255,-0.28662 2.13682,1.59267 -1.4e-4,0.0467 1.5e-4,0.0933 0,0.14004 -0.001,0.0419 -0.003,0.0837 -0.004,0.12558 0.26923,0.28267 0.56167,0.54087 0.85886,0.79375 0.76542,-0.87884 1.62359,-1.27417 2.38797,-1.27331 1.73427,0.002 2.97424,2.01209 1.51774,4.85655 0.13796,0.19225 0.31795,0.48372 0.63665,0.94258 4e-5,0.10876 0.005,0.21767 0.008,0.32659 0.0157,0.0109 0.0146,0.0123 5.3e-4,0.008 0.004,0.12199 0.005,0.24397 -0.003,0.36535 0.0623,0.0411 0.12104,0.0857 0.1819,0.12815 1.24779,-0.0833 1.82338,1.1686 0.78083,2.21796 -0.004,0.0292 -0.008,0.0587 -0.0129,0.0879 h 6.98613 V 85.529147 c -0.23272,0.05497 -0.46833,0.09849 -0.70435,0.128157 -0.10847,0.0031 -0.22452,-0.03156 -0.32504,0.0093 -0.147,0.05975 -0.25258,0.192908 -0.38551,0.279569 -0.60898,0.397021 -1.25771,0.687536 -1.94303,0.928624 -0.82826,0.180414 -1.08068,0.216207 -1.89343,0.174668 -0.0255,-0.0013 -0.10171,-0.0098 -0.19223,-0.02066 -0.052,0.03104 -0.10205,0.06013 -0.15038,0.08733 -0.004,0.01418 -0.009,0.02799 -0.0145,0.03824 -0.17964,0.337105 -0.75574,0.956781 -0.91209,1.064019 -0.11169,0.194619 -0.21876,0.388858 -0.31058,0.598413 -0.0606,0.13838 -0.0143,0.423101 -0.16536,0.422196 -0.14479,-7.94e-4 -0.19873,-0.258625 -0.21446,-0.526066 -0.0243,0.325869 -0.0661,0.798716 -0.13849,1.493965 -8e-4,7.93e-4 -0.002,0.0016 -0.003,0.0026 0.24781,0.526968 0.45419,1.067004 0.49196,1.657779 0.0132,0.206338 -0.0467,0.411041 -0.0698,0.6165 0.39571,0.2441 0.2019,1.364049 0.24649,1.835031 0.0267,0.281798 0.0817,0.502053 0.14573,0.747758 0.0673,0.08963 0.17584,0.261514 0.0517,0.172082 0.38389,0.854316 0.51302,0.811091 0.2129,1.805059 -0.72532,-0.114988 -1.46631,-0.157908 -2.18332,-0.310576 0.0826,0.07871 0.1415,0.159097 0.10283,0.253214 -0.0653,0.159004 -0.19656,-0.03322 -0.32918,-0.304889 -0.0605,-0.01514 -0.12078,-0.03094 -0.18086,-0.04806 -0.10461,-0.02984 0.0341,-0.222068 0.004,-0.326597 -0.0336,-0.115316 -0.13912,-0.198056 -0.18862,-0.307475 -0.27663,-0.611161 -0.27648,-0.816956 -0.71778,-1.356505 -0.55894,-0.537636 -1.03989,-1.136846 -1.50224,-1.751833 -0.0982,0.29478 -0.2212,0.575053 -0.41289,0.816488 -0.33502,0.421982 -0.89712,0.04065 -1.37563,-0.492992 -0.18698,0.01331 -0.22914,-0.07331 -0.39274,-0.299207 -0.81785,-0.02745 -1.0117,-0.121327 -1.78594,-0.965317 -0.0187,-0.02035 -0.0406,-0.05012 -0.062,-0.07441 -0.0185,-0.0054 -0.0346,-0.01209 -0.0455,-0.02119 -0.4371,-0.365974 -0.73108,-0.872506 -1.05317,-1.346689 0.006,0.01868 0.0116,0.03759 0.0155,0.05685 0.0193,0.09494 -0.0429,-0.02981 -0.0997,-0.178284 -0.0101,-0.01437 -0.0198,-0.02914 -0.03,-0.04341 -0.01,-0.01344 -0.008,-0.03005 -0.003,-0.04702 -0.0234,-0.06895 -0.0431,-0.134731 -0.0486,-0.1788 -0.0422,-0.341056 -0.23364,-0.736878 -0.0532,-1.029396 0.21474,-0.34824 0.38637,-0.582983 0.54313,-0.74259 -0.0102,-0.01995 -0.0201,-0.03818 -0.0289,-0.05219 -0.19456,-0.361604 -0.36925,-0.736584 -0.54777,-1.108977 -0.10913,-0.08164 -0.21642,-0.165921 -0.32143,-0.252699 -0.1551,-0.128172 -0.30187,-0.374851 -0.5302,-0.411861 -0.63899,-0.823632 -0.76942,-0.814472 -0.69505,-1.075385 -0.14081,-0.274937 -0.11682,-0.22547 -0.2036,-0.651124 0.11161,0.138448 0.20071,0.256929 0.27646,0.361736 0.0152,-0.06886 0.0316,-0.138811 0.0496,-0.212908 -0.11853,-0.153397 -0.23379,-0.308123 -0.33848,-0.469739 -0.14926,-0.320053 -0.32664,-0.62852 -0.44803,-0.960146 -0.048,-0.131278 -0.0763,-0.268571 -0.10129,-0.406694 z m 34.12298,12.133625 c -0.005,-0.01199 -0.0105,-0.02331 -0.016,-0.03565 0.003,0.01032 0.005,0.01953 0.008,0.02997 0.003,0.0024 0.005,0.0035 0.008,0.0057 z m -0.016,-0.03565 c -0.0122,-0.04697 -0.024,-0.09182 -0.0357,-0.136428 -0.0286,-0.03813 -0.0509,-0.06383 -0.0424,-0.04341 0.027,0.0643 0.053,0.123603 0.078,0.179835 z m -11.3745,-10.97556 c -0.0389,0.112853 -0.12417,0.419886 -0.19586,0.714169 0.01,0.01291 0.0199,0.02588 0.03,0.03876 0.0532,-0.176043 0.11363,-0.403984 0.17518,-0.717269 0.002,-0.01027 0.003,-0.01503 0.004,-0.02326 -0.004,-0.004 -0.009,-0.0084 -0.0134,-0.01241 z m -0.16588,0.752927 c -0.0223,0.07389 -0.0434,0.14073 -0.0625,0.196887 0.46654,0.650553 0.32326,0.680959 0.74776,0.701249 -0.21119,-0.309969 -0.45377,-0.600797 -0.68523,-0.898136 z m -0.0625,0.196887 c -0.005,-0.0071 -0.0119,-0.0155 -0.017,-0.02273 -0.0142,0.06427 -0.0261,0.122176 -0.0362,0.176218 0.0162,-0.04644 0.0313,-0.08912 0.0532,-0.15348 z m -0.0708,0.302308 c 0.0175,0.105622 0.14854,0.29537 0.11162,0.220657 -0.0513,-0.103849 -0.0794,-0.157567 -0.11162,-0.220657 z m 6.97735,0.03617 c 2.7e-4,5.29e-4 2.4e-4,0.0011 5.3e-4,0.0016 -6e-5,-5.29e-4 6e-5,-0.0011 0,-0.0016 z m 5.3e-4,0.0016 c 0.006,0.0506 0.0107,0.100608 0.0171,0.153998 0.012,0.0069 0.0262,0.01638 0.0377,0.02273 5.3e-4,-0.05643 -0.0212,-0.116801 -0.0548,-0.176734 z m 6.19704,1.26969 c -0.01,0.0033 -0.02,0.0066 -0.03,0.0098 -0.0312,0.0208 -0.0623,0.04163 -0.0925,0.06408 -0.0383,0.02843 0.0816,-0.04936 0.12247,-0.0739 z m -10.80657,0.98547 c -0.0992,0.115422 -0.19303,0.224435 -0.27234,0.311092 -0.06,0.06556 -0.0213,0.145573 0.0372,0.230994 0.2032,-0.197199 0.38285,-0.265665 0.59893,-0.279053 -0.16265,-0.136435 -0.26138,-0.190323 -0.3638,-0.263033 z m 0.81752,4.101558 c -0.077,0.008 -0.14889,0.0141 -0.20929,0.01138 0.002,0.0047 0.005,0.01175 0.007,0.01601 1.33967,0.492485 0.81379,0.333068 0.20308,-0.02739 z m 6.23838,74.525689 c -0.0317,0.004 -0.0285,0.0313 0.0294,0.093 0.13092,0.13933 0.28334,0.25699 0.44183,0.36794 -0.005,-0.1009 -0.0156,-0.20141 -0.0362,-0.30024 -5.3e-4,-0.003 -0.003,-0.006 -0.004,-0.009 -0.18191,-0.0814 -0.36911,-0.15869 -0.43046,-0.15193 z m -6.59185,0.33744 c 5.3e-4,0.004 7.9e-4,0.008 0.002,0.0119 0.0254,0.0123 0.0506,0.0249 0.076,0.0372 1.8e-4,-2.6e-4 2.6e-4,-7.9e-4 5.3e-4,-0.001 -0.0262,-0.016 -0.0522,-0.032 -0.0785,-0.0481 z" />
    </clipPath>
    <clipPath
       clipPathUnits="userSpaceOnUse"
       id="clipPath8507">
      <path
         id="path8509"
         style="fill:#ff0000;fill-opacity:1;fill-rule:nonzero;stroke:none;stroke-width:0.264583"
         d="m 149.21259,131.46329 -114.487062,0.001 v 13.20023 c 0.269031,-0.0581 0.52433,-0.15331 0.742074,-0.29559 0.728205,-0.325 0.440219,-0.26525 1.054717,-0.0754 0.128807,-0.14983 0.266054,-0.29098 0.421679,-0.41238 0.0715,-0.0558 0.286065,-0.0571 0.526582,-0.0372 0.0059,-0.007 0.01101,-0.0144 0.01707,-0.0212 0.160472,-0.1808 0.395832,-0.2315 0.639236,-0.23306 -0.12228,-1.07179 -0.195033,-2.14969 -0.262515,-3.22771 -0.01947,-0.0706 -0.03953,-0.14101 -0.05995,-0.21136 -0.335301,-1.15544 -0.686464,-2.10172 -1.083138,-3.21685 -0.126339,-0.43749 -0.283993,-0.84947 -0.366903,-1.22732 -1.554091,-0.37452 -1.480871,-2.26972 0.688848,-2.59209 0.261352,-0.0388 0.518665,-0.09 0.785481,-0.092 1.37934,1.48333 1.270532,0.85791 1.368391,2.04897 -0.07614,0.0434 -0.15141,0.0888 -0.22634,0.13487 0.04169,0.1442 0.08337,0.28837 0.125055,0.43253 0.279254,0.1215 0.572405,0.3192 0.865582,0.61237 l 1.918229,1.91823 c 0.176387,0.17639 0.372425,0.33511 0.529167,0.52917 0.261305,0.32353 0.496398,0.66793 0.720886,1.01802 0.174977,0.27288 0.87258,1.67096 0.92914,1.78232 0.133511,0.267 0.234974,0.55256 0.400494,0.80099 0.03863,0.47311 0.573755,0.46298 0.783932,0.76016 0.78672,1.11241 0.874905,1.67269 1.209228,2.90628 0.0782,0.69393 0.537559,1.23303 0.81907,1.84381 0.131543,0.28543 0.245885,0.57899 0.348816,0.87592 0.213355,0.61548 -0.06252,0.53986 0.346234,0.55656 0.675651,0.55251 1.608664,1.37453 1.620054,2.34455 2.65e-4,0.0281 -0.0011,0.0563 -0.0026,0.0842 0.0095,0.0145 0.01939,0.032 0.02945,0.0537 0.0688,0.0516 0.163825,0.23079 0.106971,0.18655 -0.0423,-0.0329 -0.07623,-0.1202 -0.106971,-0.18655 -0.0047,-0.004 -0.0096,-0.008 -0.01394,-0.0103 -0.0048,-0.002 -0.01233,-0.006 -0.01757,-0.008 -0.004,0.0517 -0.01045,0.10311 -0.0186,0.15451 0.223205,0.1008 0.451622,0.19278 0.670245,0.30128 0.305895,0.58584 0.371073,0.55156 0.372068,1.26659 2.14e-4,0.15269 -0.05099,0.30058 -0.0801,0.45062 -0.0019,0.0103 -0.0026,0.0183 -0.0047,0.0289 -0.0013,0.006 -0.0019,0.0116 -0.0031,0.0176 -0.0081,0.0378 -0.01524,0.0756 -0.02429,0.11317 -0.01172,0.0485 0.02037,-0.0977 0.02945,-0.14676 7.93e-4,-0.004 0.0019,-0.009 0.0026,-0.0129 0.256857,-1.37331 -0.512607,-0.36681 -1.287778,0.38602 v 5.3e-4 c 0.01598,0.10414 -0.03905,0.14156 -0.139009,0.13229 -0.584462,0.53928 -1.136251,0.8407 -1.211813,-0.24339 -0.0049,-0.0715 -0.01,-0.14296 -0.01498,-0.21446 0.0028,-0.0489 0.0074,-0.12623 0.01291,-0.21136 -0.115983,-0.0896 -0.220475,-0.17737 -0.299207,-0.25425 -0.787037,-0.76848 -0.08114,-1.11388 -0.332279,-2.47581 -0.0332,-0.18004 -0.186418,0.31523 -0.27957,0.47284 -0.0036,0.1456 -0.02511,0.29171 -0.01241,0.43666 0.04341,0.058 0.08285,0.11819 0.116787,0.18138 0.0073,0.0136 -0.02679,0.0415 -0.03566,0.0289 -0.04023,-0.0571 -0.07271,-0.1243 -0.0801,-0.19378 -5.29e-4,-0.005 -5.29e-4,-0.011 -0.0011,-0.0165 -0.269232,-0.35952 -0.696793,-0.62876 -0.993222,-0.93224 -0.257871,-0.37191 -0.538213,-0.72917 -0.773597,-1.1157 -0.04025,-0.0661 -0.02148,-0.15399 -0.04444,-0.22789 -0.05728,-0.18443 -0.114302,-0.37013 -0.195852,-0.54518 -0.371332,-0.79714 -0.916718,-1.53741 -1.055749,-2.4288 -0.07712,-0.28464 -0.159321,-0.56828 -0.23151,-0.85421 -0.03003,-0.11893 -0.05147,-0.23978 -0.07493,-0.36018 -0.02418,-0.12405 0.0074,-0.27143 -0.0677,-0.37311 -0.162748,-0.2205 -0.428863,-0.34473 -0.612365,-0.54828 -0.112768,-0.1251 -0.175313,-0.20043 -0.257865,-0.29508 -0.01138,0.008 -0.02276,0.0164 -0.03411,0.0243 -0.721122,1.56433 -1.020913,1.08919 -1.310513,0.64441 -0.01087,-0.003 -0.02291,-0.001 -0.03411,-0.003 0.0011,0.64734 0.0019,1.29472 0.0031,1.942 0.01474,0.0854 0.03242,0.1859 0.0615,0.32969 -0.01103,0.41293 -0.02178,0.82576 -0.03307,1.23869 -0.01061,0.3872 -0.0223,0.77446 -0.03255,1.16168 -0.0013,0.0474 -0.0019,0.0947 -0.0031,0.14212 -2.65e-4,0.0178 -0.0011,0.0387 -0.0016,0.0553 -0.0041,0.16332 -0.008,0.32656 -0.01138,0.48989 -5.29e-4,0.0276 0.02719,0.0877 0,0.0827 -0.309038,-0.0513 -0.580294,-0.0862 -0.821655,-0.1111 -0.392975,-0.004 -0.969058,0.003 -1.824178,0.10955 -0.04756,0.006 -5.29e-4,-0.0958 5.29e-4,-0.14366 0.0024,-0.1244 0.0058,-0.2487 0.0088,-0.3731 -0.0037,-0.13078 0.0036,-0.30718 0.0072,-0.55449 0.004,-0.62382 0.0046,-1.24788 0.0041,-1.87172 -0.156467,-0.24046 -0.266671,-0.50098 -0.273883,-0.79995 -0.10254,0.009 -0.229418,0.004 -0.434084,-0.007 -0.126566,-0.0233 -0.151148,-0.0273 -0.197403,-0.0357 0.02164,0.003 0.0048,-0.002 -0.183451,-0.0403 -0.03393,-0.007 -0.11343,0.004 -0.100254,-0.0279 0.006,-0.0146 0.0096,-0.0238 0.0155,-0.0382 -0.147013,0.14812 -0.299434,0.29039 -0.465087,0.41702 -0.0844,0.0645 -0.332761,0.0385 -0.575159,-0.009 -0.534832,0.25536 -1.10616,0.41777 -1.693956,0.48834 v 21.439 H 144.73167 c -0.86004,-0.41967 -2.05007,-1.67034 -2.00195,-1.20664 0.1,0.23568 0.23646,0.45841 0.3328,0.69401 0.024,0.0586 -0.0935,-0.0895 -0.12144,-0.14624 -0.13595,-0.27578 -0.20118,-0.44966 -0.21136,-0.54777 -0.0949,-0.2237 -0.15734,-0.45906 -0.12092,-0.72864 -0.006,-0.57026 0.006,-1.13901 0.0274,-1.70894 0.0134,-0.41458 -0.0724,-0.80987 -0.0775,-1.19476 -0.32624,-0.23462 -0.4824,-0.583 -0.59324,-0.95188 -0.2915,-0.0727 -0.59548,-0.26731 -1.03456,-0.49764 -0.11126,-0.0584 -0.17744,-0.16879 -0.24082,-0.28319 -0.11852,0.003 -0.23753,-0.002 -0.35553,-0.008 -2.35916,-0.12609 1.77323,-2.70353 0.74517,-2.72645 -0.15215,0.0161 -0.42654,0.0735 -0.59272,0.108 -0.14808,0.0323 0.0129,-0.007 0.061,-0.0191 0.24854,-0.0643 0.42004,-0.0914 0.53175,-0.0889 0.0161,-0.002 0.033,-0.003 0.046,-0.004 0.0195,-10e-4 0.0349,-10e-4 0.046,5.3e-4 0.62091,0.0945 0.98243,0.32383 1.32912,0.72089 0.18472,-0.0222 0.36871,-0.0321 0.5488,0.007 0.55137,0.11894 0.87141,0.60652 1.11259,1.06867 0.30672,-0.14031 0.55576,-0.22735 0.83561,-0.22945 0.2863,-0.002 0.60631,0.0836 1.0573,0.28732 0.18141,0.082 0.35217,0.22865 0.43357,0.41031 0.007,0.0166 0.0163,0.0343 0.0248,0.0517 0.12082,0.0509 0.24027,0.1023 0.35708,0.15141 0.16263,0.0684 0.0839,0.34242 0.12816,0.51315 0.10771,0.41552 0.2164,0.83083 0.32763,1.2454 0.0619,0.23075 0.12555,0.46101 0.18862,0.69143 0.23619,-0.44832 0.38772,-0.7377 0.69453,-1.31723 0.30527,-0.57663 0.64681,-1.03317 1.00304,-1.39888 z m -110.443379,2.90422 c -0.0109,0.002 -0.0217,0.005 -0.03256,0.008 0.06671,0.0948 0.136342,0.1824 0.213939,0.24494 0.08079,0.0651 -0.07997,-0.27469 -0.181382,-0.25269 z m -1.363226,1.788 c -0.09925,0.0471 -0.19889,0.0934 -0.301789,0.13229 0.06332,0.0507 0.127902,0.0756 0.197921,0.0403 0.02159,-0.0109 0.04158,-0.0239 0.06253,-0.0357 0.01156,-0.047 0.02445,-0.0932 0.04134,-0.13694 z m 3.285072,4.62194 c 0.10102,0.44603 0.19409,0.89447 0.274402,1.34565 0.01865,-0.0288 0.188068,-0.10465 0.335896,-0.16691 0.0033,-0.005 0.0019,-0.003 0.0052,-0.008 0.01873,-0.007 0.01172,-0.005 0.02532,-0.0104 -0.194143,-0.40494 -0.39774,-0.80906 -0.640786,-1.16065 z m 0.610298,1.17874 c -0.119991,0.19003 -0.135305,0.2132 -0.19327,0.30386 0.01466,7.9e-4 0.01968,7.9e-4 0.03359,0.002 0.06279,-0.0805 0.142549,-0.17244 0.220141,-0.26199 -0.0094,-0.0197 -0.01844,-0.0376 -0.0279,-0.0574 -0.01299,0.005 -0.01664,0.007 -0.03256,0.0134 z m -4.626075,2.2686 c -0.009,10e-4 -0.0173,0.004 -0.02479,0.009 -0.03272,0.0226 -0.06483,0.0466 -0.09715,0.0698 0.142177,0.0427 0.333344,0.0914 0.587045,0.14366 0.0066,-0.0177 0.01389,-0.0351 0.02066,-0.0527 -7.94e-4,-2.6e-4 -0.0019,-5.3e-4 -0.0026,-0.002 -0.129019,-0.0594 -0.262829,-0.10912 -0.398426,-0.15142 -0.02622,-0.008 -0.05788,-0.0196 -0.08475,-0.016 z m -0.224274,0.15347 c -0.294656,0.21829 -0.577028,0.45367 -0.867649,0.67748 -0.0168,0.13259 -0.151254,0.48531 -0.05013,0.39791 0.355637,-0.30717 0.617871,-0.71141 0.917774,-1.07539 z m 0.414443,0.85628 c -0.009,0.009 -0.01783,0.019 -0.02687,0.0284 -0.0098,0.0102 -0.0089,0.0548 -0.0031,0.0419 0.01048,-0.0232 0.02014,-0.0467 0.02997,-0.0703 z m 12.058179,6.25078 c -0.01466,0.003 -0.0088,0.0149 0.02585,0.0393 0.159025,0.11218 0.330605,0.20314 0.506947,0.28629 0.02667,-0.0612 0.04757,-0.10448 0.06304,-0.13229 -0.197464,-0.0855 -0.540695,-0.20431 -0.595832,-0.19328 z m 92.744722,8.95605 c -0.29095,0.0841 -1.03844,0.84996 0,0 z m -1.3286,1.36477 c -0.0288,0.002 0.0131,0.0595 0.18397,0.14005 -0.0849,-0.10068 -0.15947,-0.14136 -0.18397,-0.14005 z m 1.36891,0.28991 c -0.0179,-0.001 -0.0215,0.17741 0.0129,0.23099 0.0312,0.0486 0.0657,0.0977 0.10439,0.14314 -0.033,-0.12416 -0.067,-0.24657 -0.10852,-0.36173 -0.003,-0.009 -0.006,-0.0118 -0.009,-0.0124 z m 3.87263,0.30024 c -0.004,0.002 -0.008,0.0103 -0.01,0.0269 -0.0313,0.24051 -0.008,0.48672 0.004,0.73122 0.008,0.004 0.0166,0.008 0.0248,0.0114 0.0226,-0.0853 0.0417,-0.19459 0.0615,-0.34417 0.0156,-0.11779 -0.051,-0.43539 -0.0801,-0.4253 z m 1.12241,0.60978 c -0.29628,0.16187 -0.63199,0.20872 -0.98237,0.21239 0.40422,0.16447 0.77404,0.19538 0.98237,-0.21239 z m -1.12551,0.21084 c 2.5e-4,0.006 8e-4,0.0127 0.001,0.0191 0.002,-0.006 0.005,-0.012 0.007,-0.0186 -0.003,-5e-5 -0.005,-5.3e-4 -0.008,-5.3e-4 z" />
    </clipPath>
  </defs>
  <g
     inkscape:label="Layer 1"
     inkscape:groupmode="layer"
     id="layer1"
     style="display:inline">
    <g
       id="g1356"
       style="display:inline;stroke:#000000;stroke-width:0.926042;stroke-miterlimit:4;stroke-dasharray:none;stroke-opacity:1"
       sodipodi:insensitive="true">
      <path
         style="fill:none;stroke:#000000;stroke-width:0.926042;stroke-linecap:butt;stroke-linejoin:miter;stroke-miterlimit:4;stroke-dasharray:none;stroke-opacity:1"
         d="m 94.853123,76.729165 c 0,80.509965 0,81.756245 0,81.756245"
         id="path1157" />
      <path
         style="fill:none;stroke:#000000;stroke-width:0.926042;stroke-linecap:butt;stroke-linejoin:miter;stroke-miterlimit:4;stroke-dasharray:none;stroke-opacity:1"
         d="M 43.65625,116.41667 H 145.78542"
         id="path1272" />
    </g>
    <g
       id="g4477"
       style="display:inline;stroke:#000000;stroke-width:1.00013;stroke-miterlimit:4;stroke-dasharray:none;stroke-opacity:1"
       sodipodi:insensitive="true">
      <path
         style="fill:none;stroke:#000000;stroke-width:1.00013;stroke-linecap:butt;stroke-linejoin:miter;stroke-miterlimit:4;stroke-dasharray:none;stroke-opacity:1"
         d="m 94.985413,115.8875 c 45.243747,41.275 45.243747,41.275 45.243747,41.275"
         id="path3571" />
      <path
         style="fill:none;stroke:#000000;stroke-width:1.00013;stroke-linecap:butt;stroke-linejoin:miter;stroke-miterlimit:4;stroke-dasharray:none;stroke-opacity:1"
         d="m 49.741668,74.6125 c 45.243747,41.275 45.243747,41.275 45.243747,41.275"
         id="path3961"
         clip-path="url(#clipPath6395)" />
    </g>
    <g
       id="g4473"
       sodipodi:insensitive="true"
       style="display:inline;stroke-width:1.00013;stroke-miterlimit:4;stroke-dasharray:none">
      <path
         style="fill:none;stroke:#000000;stroke-width:1.00013;stroke-linecap:butt;stroke-linejoin:miter;stroke-miterlimit:4;stroke-dasharray:none;stroke-opacity:1"
         d="M 94.985415,115.8875 C 145.78541,91.545832 145.78541,91.545832 145.78541,91.545832"
         id="path3569" />
      <path
         style="fill:none;stroke:#000000;stroke-width:1.00013;stroke-linecap:butt;stroke-linejoin:miter;stroke-miterlimit:4;stroke-dasharray:none;stroke-opacity:1"
         d="M 44.185418,140.22917 C 94.985413,115.8875 94.985413,115.8875 94.985413,115.8875"
         id="path3963" />
    </g>
    <g
       id="g3905"
       transform="rotate(15.205191,96.941431,91.76805)"
       inkscape:transform-center-x="3.4675146"
       inkscape:transform-center-y="2.199769"
       style="display:inline;stroke-width:0.529167;stroke-miterlimit:4;stroke-dasharray:none"
       inkscape:label="UR Arrow"
       mask="none"
       sodipodi:insensitive="true">
      <path
         style="fill:none;stroke:#000000;stroke-width:0.529167;stroke-linecap:butt;stroke-linejoin:miter;stroke-miterlimit:4;stroke-dasharray:none;stroke-opacity:1"
         d="m 111.65986,106.93896 c -3.08763,6.14007 -2.75916,6.02474 -2.75916,6.02474 v 0"
         id="path3735"
         inkscape:transform-center-x="-1.0909923"
         inkscape:transform-center-y="1.0373659" />
      <path
         style="fill:none;stroke:#000000;stroke-width:0.529167;stroke-linecap:butt;stroke-linejoin:miter;stroke-miterlimit:4;stroke-dasharray:none;stroke-opacity:1"
         d="m 111.65986,106.93896 c -6.67099,1.65289 -6.48585,1.35807 -6.48585,1.35807 v 0"
         id="path3897"
         inkscape:transform-center-x="0.76755379"
         inkscape:transform-center-y="-1.2858535" />
    </g>
    <g
       id="g3969"
       transform="rotate(-98.99061,110.70147,118.55167)"
       inkscape:transform-center-x="-3.1196158"
       inkscape:transform-center-y="3.3039811"
       style="display:inline;stroke-width:0.529167;stroke-miterlimit:4;stroke-dasharray:none"
       inkscape:label="BR Arrow">
      <path
         style="fill:none;stroke:#000000;stroke-width:0.529167;stroke-linecap:butt;stroke-linejoin:miter;stroke-miterlimit:4;stroke-dasharray:none;stroke-opacity:1"
         d="m 111.65986,106.93896 c -3.08763,6.14007 -2.75916,6.02474 -2.75916,6.02474 v 0"
         id="path3965"
         inkscape:transform-center-x="-1.0909923"
         inkscape:transform-center-y="1.0373659" />
      <path
         style="fill:none;stroke:#000000;stroke-width:0.529167;stroke-linecap:butt;stroke-linejoin:miter;stroke-miterlimit:4;stroke-dasharray:none;stroke-opacity:1"
         d="m 111.65986,106.93896 c -6.67099,1.65289 -6.48585,1.35807 -6.48585,1.35807 v 0"
         id="path3967"
         inkscape:transform-center-x="0.76755379"
         inkscape:transform-center-y="-1.2858535" />
    </g>
    <g
       id="g4483"
       transform="rotate(-169.931,97.050855,116.0784)"
       inkscape:transform-center-x="-3.4843684"
       inkscape:transform-center-y="-2.5896276"
       style="display:inline;stroke-width:0.529167;stroke-miterlimit:4;stroke-dasharray:none"
       inkscape:label="BL Arrow">
      <path
         style="fill:none;stroke:#000000;stroke-width:0.529167;stroke-linecap:butt;stroke-linejoin:miter;stroke-miterlimit:4;stroke-dasharray:none;stroke-opacity:1"
         d="m 111.65986,106.93896 c -3.08763,6.14007 -2.75916,6.02474 -2.75916,6.02474 v 0"
         id="path4479"
         inkscape:transform-center-x="-1.0909923"
         inkscape:transform-center-y="1.0373659" />
      <path
         style="fill:none;stroke:#000000;stroke-width:0.529167;stroke-linecap:butt;stroke-linejoin:miter;stroke-miterlimit:4;stroke-dasharray:none;stroke-opacity:1"
         d="m 111.65986,106.93896 c -6.67099,1.65289 -6.48585,1.35807 -6.48585,1.35807 v 0"
         id="path4481"
         inkscape:transform-center-x="0.76755379"
         inkscape:transform-center-y="-1.2858535" />
    </g>
    <g
       id="g4489"
       transform="rotate(84.89508,98.29405,96.864469)"
       inkscape:transform-center-x="3.0379373"
       inkscape:transform-center-y="-3.3713803"
       style="display:inline;stroke-width:0.529167;stroke-miterlimit:4;stroke-dasharray:none"
       inkscape:label="UL Arrow">
      <path
         style="fill:none;stroke:#000000;stroke-width:0.529167;stroke-linecap:butt;stroke-linejoin:miter;stroke-miterlimit:4;stroke-dasharray:none;stroke-opacity:1"
         d="m 111.65986,106.93896 c -3.08763,6.14007 -2.75916,6.02474 -2.75916,6.02474 v 0"
         id="path4485"
         inkscape:transform-center-x="-1.0909923"
         inkscape:transform-center-y="1.0373659" />
      <path
         style="fill:none;stroke:#000000;stroke-width:0.529167;stroke-linecap:butt;stroke-linejoin:miter;stroke-miterlimit:4;stroke-dasharray:none;stroke-opacity:1"
         d="m 111.65986,106.93896 c -6.67099,1.65289 -6.48585,1.35807 -6.48585,1.35807 v 0"
         id="path4487"
         inkscape:transform-center-x="0.76755379"
         inkscape:transform-center-y="-1.2858535" />
    </g>
    <path
       style="display:inline;fill:none;stroke:#000000;stroke-width:0.529167;stroke-linecap:butt;stroke-linejoin:miter;stroke-miterlimit:4;stroke-dasharray:none;stroke-opacity:1"
       d="M 145.78541,91.54583 C 94.985415,115.8875 94.985413,115.8875 49.741668,74.6125"
       id="path4049"
       sodipodi:nodetypes="cc"
       sodipodi:insensitive="true" />
    <path
       style="display:inline;fill:none;stroke:#000000;stroke-width:0.529167;stroke-linecap:butt;stroke-linejoin:miter;stroke-miterlimit:4;stroke-dasharray:none;stroke-opacity:1"
       d="M 140.22916,157.1625 C 94.985415,115.8875 94.985413,115.8875 44.185418,140.22917"
       id="path4543"
       sodipodi:nodetypes="cc"
       clip-path="url(#clipPath8445)" />
    <path
       style="display:inline;fill:none;stroke:#000000;stroke-width:0.529167;stroke-linecap:butt;stroke-linejoin:miter;stroke-miterlimit:4;stroke-dasharray:none;stroke-opacity:1"
       d="m 49.741668,74.6125 c 45.243745,41.275 45.243745,41.275 -5.556249,65.61667"
       id="path4825"
       sodipodi:nodetypes="cc"
       clip-path="url(#clipPath8455)" />
    <path
       style="display:inline;fill:none;stroke:#000000;stroke-width:0.529167;stroke-linecap:butt;stroke-linejoin:miter;stroke-miterlimit:4;stroke-dasharray:none;stroke-opacity:1"
       d="M 145.78541,91.545832 C 94.985415,115.8875 94.985415,115.8875 140.22916,157.1625"
       id="path4827"
       sodipodi:nodetypes="cc"
       clip-path="url(#clipPath8371)" />
    <g
       id="g5274"
       transform="rotate(48.320327,115.25706,94.887317)"
       inkscape:transform-center-x="3.2198547"
       inkscape:transform-center-y="-1.2105271"
       style="display:inline;stroke-width:0.529167;stroke-miterlimit:4;stroke-dasharray:none"
       inkscape:label="UL Arrow 2">
      <path
         style="fill:none;stroke:#000000;stroke-width:0.529167;stroke-linecap:butt;stroke-linejoin:miter;stroke-miterlimit:4;stroke-dasharray:none;stroke-opacity:1"
         d="m 111.65986,106.93896 c -3.08763,6.14007 -2.75916,6.02474 -2.75916,6.02474 v 0"
         id="path5270"
         inkscape:transform-center-x="-1.0909923"
         inkscape:transform-center-y="1.0373659" />
      <path
         style="fill:none;stroke:#000000;stroke-width:0.529167;stroke-linecap:butt;stroke-linejoin:miter;stroke-miterlimit:4;stroke-dasharray:none;stroke-opacity:1"
         d="m 111.65986,106.93896 c -6.67099,1.65289 -6.48585,1.35807 -6.48585,1.35807 v 0"
         id="path5272"
         inkscape:transform-center-x="0.76755379"
         inkscape:transform-center-y="-1.2858535" />
    </g>
    <g
       id="g5280"
       transform="rotate(-56.315173,118.3293,116.26219)"
       inkscape:transform-center-x="-0.31505"
       inkscape:transform-center-y="3.1799533"
       style="display:inline;stroke-width:0.529167;stroke-miterlimit:4;stroke-dasharray:none"
       inkscape:label="UR Arrow 2">
      <path
         style="fill:none;stroke:#000000;stroke-width:0.529167;stroke-linecap:butt;stroke-linejoin:miter;stroke-miterlimit:4;stroke-dasharray:none;stroke-opacity:1"
         d="m 111.65986,106.93896 c -3.08763,6.14007 -2.75916,6.02474 -2.75916,6.02474 v 0"
         id="path5276"
         inkscape:transform-center-x="-1.0909923"
         inkscape:transform-center-y="1.0373659" />
      <path
         style="fill:none;stroke:#000000;stroke-width:0.529167;stroke-linecap:butt;stroke-linejoin:miter;stroke-miterlimit:4;stroke-dasharray:none;stroke-opacity:1"
         d="m 111.65986,106.93896 c -6.67099,1.65289 -6.48585,1.35807 -6.48585,1.35807 v 0"
         id="path5278"
         inkscape:transform-center-x="0.76755379"
         inkscape:transform-center-y="-1.2858535" />
    </g>
    <path
       style="display:inline;fill:none;stroke:#000000;stroke-width:0.529167;stroke-linecap:butt;stroke-linejoin:miter;stroke-miterlimit:4;stroke-dasharray:none;stroke-opacity:1"
       d="m 37.57083,63.5 c 45.243745,41.275 45.772912,58.20833 -5.027082,82.55"
       id="path5282"
       sodipodi:nodetypes="cc"
       clip-path="url(#clipPath8465)" />
    <g
       id="g5831"
       transform="rotate(-98.99061,131.11881,119.41644)"
       inkscape:transform-center-x="-3.1196158"
       inkscape:transform-center-y="3.3039811"
       style="display:inline;stroke-width:0.529167;stroke-miterlimit:4;stroke-dasharray:none"
       inkscape:label="BR Arrow">
      <path
         style="fill:none;stroke:#000000;stroke-width:0.529167;stroke-linecap:butt;stroke-linejoin:miter;stroke-miterlimit:4;stroke-dasharray:none;stroke-opacity:1"
         d="m 111.65986,106.93896 c -3.08763,6.14007 -2.75916,6.02474 -2.75916,6.02474 v 0"
         id="path5827"
         inkscape:transform-center-x="-1.0909923"
         inkscape:transform-center-y="1.0373659" />
      <path
         style="fill:none;stroke:#000000;stroke-width:0.529167;stroke-linecap:butt;stroke-linejoin:miter;stroke-miterlimit:4;stroke-dasharray:none;stroke-opacity:1"
         d="m 111.65986,106.93896 c -6.67099,1.65289 -6.48585,1.35807 -6.48585,1.35807 v 0"
         id="path5829"
         inkscape:transform-center-x="0.76755379"
         inkscape:transform-center-y="-1.2858535" />
    </g>
    <g
       id="g5837"
       transform="rotate(84.89508,98.223329,73.553137)"
       inkscape:transform-center-x="3.0379373"
       inkscape:transform-center-y="-3.3713803"
       style="display:inline;stroke-width:0.529167;stroke-miterlimit:4;stroke-dasharray:none"
       inkscape:label="UL Arrow">
      <path
         style="fill:none;stroke:#000000;stroke-width:0.529167;stroke-linecap:butt;stroke-linejoin:miter;stroke-miterlimit:4;stroke-dasharray:none;stroke-opacity:1"
         d="m 111.65986,106.93896 c -3.08763,6.14007 -2.75916,6.02474 -2.75916,6.02474 v 0"
         id="path5833"
         inkscape:transform-center-x="-1.0909923"
         inkscape:transform-center-y="1.0373659" />
      <path
         style="fill:none;stroke:#000000;stroke-width:0.529167;stroke-linecap:butt;stroke-linejoin:miter;stroke-miterlimit:4;stroke-dasharray:none;stroke-opacity:1"
         d="m 111.65986,106.93896 c -6.67099,1.65289 -6.48585,1.35807 -6.48585,1.35807 v 0"
         id="path5835"
         inkscape:transform-center-x="0.76755379"
         inkscape:transform-center-y="-1.2858535" />
    </g>
    <g
       id="g5843"
       transform="rotate(-169.931,85.898692,122.66022)"
       inkscape:transform-center-x="-3.4843684"
       inkscape:transform-center-y="-2.5896276"
       style="display:inline;stroke-width:0.529167;stroke-miterlimit:4;stroke-dasharray:none"
       inkscape:label="BL Arrow">
      <path
         style="fill:none;stroke:#000000;stroke-width:0.529167;stroke-linecap:butt;stroke-linejoin:miter;stroke-miterlimit:4;stroke-dasharray:none;stroke-opacity:1"
         d="m 111.65986,106.93896 c -3.08763,6.14007 -2.75916,6.02474 -2.75916,6.02474 v 0"
         id="path5839"
         inkscape:transform-center-x="-1.0909923"
         inkscape:transform-center-y="1.0373659" />
      <path
         style="fill:none;stroke:#000000;stroke-width:0.529167;stroke-linecap:butt;stroke-linejoin:miter;stroke-miterlimit:4;stroke-dasharray:none;stroke-opacity:1"
         d="m 111.65986,106.93896 c -6.67099,1.65289 -6.48585,1.35807 -6.48585,1.35807 v 0"
         id="path5841"
         inkscape:transform-center-x="0.76755379"
         inkscape:transform-center-y="-1.2858535" />
    </g>
    <g
       id="g5849"
       transform="rotate(15.205191,152.19293,173.16719)"
       inkscape:transform-center-x="3.4675146"
       inkscape:transform-center-y="2.199769"
       style="display:inline;stroke-width:0.529167;stroke-miterlimit:4;stroke-dasharray:none"
       inkscape:label="UR Arrow"
       mask="none">
      <path
         style="fill:none;stroke:#000000;stroke-width:0.529167;stroke-linecap:butt;stroke-linejoin:miter;stroke-miterlimit:4;stroke-dasharray:none;stroke-opacity:1"
         d="m 111.65986,106.93896 c -3.08763,6.14007 -2.75916,6.02474 -2.75916,6.02474 v 0"
         id="path5845"
         inkscape:transform-center-x="-1.0909923"
         inkscape:transform-center-y="1.0373659" />
      <path
         style="fill:none;stroke:#000000;stroke-width:0.529167;stroke-linecap:butt;stroke-linejoin:miter;stroke-miterlimit:4;stroke-dasharray:none;stroke-opacity:1"
         d="m 111.65986,106.93896 c -6.67099,1.65289 -6.48585,1.35807 -6.48585,1.35807 v 0"
         id="path5847"
         inkscape:transform-center-x="0.76755379"
         inkscape:transform-center-y="-1.2858535" />
    </g>
    <path
       style="display:inline;fill:none;stroke:#000000;stroke-width:0.529167;stroke-linecap:butt;stroke-linejoin:miter;stroke-miterlimit:4;stroke-dasharray:none;stroke-opacity:1"
       d="m 37.57083,63.5 c 45.243745,41.275 45.772912,58.20833 -5.027082,82.55"
       id="path5857"
       sodipodi:nodetypes="cc"
       clip-path="url(#clipPath8475)" />
    <path
       style="display:inline;fill:none;stroke:#000000;stroke-width:0.529167;stroke-linecap:butt;stroke-linejoin:miter;stroke-miterlimit:4;stroke-dasharray:none;stroke-opacity:1"
       d="M 161.39589,83.343749 C 110.59586,107.68542 107.95002,128.05833 153.1938,169.33333"
       id="path5996"
       sodipodi:nodetypes="cc"
       clip-path="url(#clipPath8497)" />
    <path
       style="display:inline;fill:none;stroke:#000000;stroke-width:0.529167;stroke-linecap:butt;stroke-linejoin:miter;stroke-miterlimit:4;stroke-dasharray:none;stroke-opacity:1"
       d="M 149.03431,168.58041 C 103.79056,127.30541 85.639771,121.94723 34.839776,146.2889"
       id="path7187"
       sodipodi:nodetypes="cc"
       clip-path="url(#clipPath8507)" />
    <path
       style="display:inline;fill:none;stroke:#000000;stroke-width:0.529167;stroke-linecap:butt;stroke-linejoin:miter;stroke-miterlimit:4;stroke-dasharray:none;stroke-opacity:1"
       d="M 159.07003,85.226759 C 108.27004,109.56843 82.029259,104.57966 36.785514,63.304662"
       id="path7773"
       sodipodi:nodetypes="cc"
       clip-path="url(#clipPath8433)" />
    <g
       id="g8148"
       transform="rotate(-21.515759,126.03599,73.735363)"
       inkscape:transform-center-x="2.9854013"
       inkscape:transform-center-y="3.2839278"
       style="display:inline;stroke-width:0.529167;stroke-miterlimit:4;stroke-dasharray:none"
       inkscape:label="UR Arrow 2">
      <path
         style="fill:none;stroke:#000000;stroke-width:0.529167;stroke-linecap:butt;stroke-linejoin:miter;stroke-miterlimit:4;stroke-dasharray:none;stroke-opacity:1"
         d="m 111.65986,106.93896 c -3.08763,6.14007 -2.75916,6.02474 -2.75916,6.02474 v 0"
         id="path8144"
         inkscape:transform-center-x="-1.0909923"
         inkscape:transform-center-y="1.0373659" />
      <path
         style="fill:none;stroke:#000000;stroke-width:0.529167;stroke-linecap:butt;stroke-linejoin:miter;stroke-miterlimit:4;stroke-dasharray:none;stroke-opacity:1"
         d="m 111.65986,106.93896 c -6.67099,1.65289 -6.48585,1.35807 -6.48585,1.35807 v 0"
         id="path8146"
         inkscape:transform-center-x="0.76755379"
         inkscape:transform-center-y="-1.2858535" />
    </g>
    <g
       id="g8154"
       transform="rotate(142.16714,87.482174,106.50845)"
       inkscape:transform-center-x="-1.6024365"
       inkscape:transform-center-y="-3.2634541"
       style="display:inline;stroke-width:0.529167;stroke-miterlimit:4;stroke-dasharray:none"
       inkscape:label="UR Arrow 2">
      <path
         style="fill:none;stroke:#000000;stroke-width:0.529167;stroke-linecap:butt;stroke-linejoin:miter;stroke-miterlimit:4;stroke-dasharray:none;stroke-opacity:1"
         d="m 111.65986,106.93896 c -3.08763,6.14007 -2.75916,6.02474 -2.75916,6.02474 v 0"
         id="path8150"
         inkscape:transform-center-x="-1.0909923"
         inkscape:transform-center-y="1.0373659" />
      <path
         style="fill:none;stroke:#000000;stroke-width:0.529167;stroke-linecap:butt;stroke-linejoin:miter;stroke-miterlimit:4;stroke-dasharray:none;stroke-opacity:1"
         d="m 111.65986,106.93896 c -6.67099,1.65289 -6.48585,1.35807 -6.48585,1.35807 v 0"
         id="path8152"
         inkscape:transform-center-x="0.76755379"
         inkscape:transform-center-y="-1.2858535" />
    </g>
    <g
       id="g8160"
       transform="rotate(142.16714,87.482174,106.50845)"
       inkscape:transform-center-x="-1.6024365"
       inkscape:transform-center-y="-3.2634541"
       style="display:inline;stroke-width:0.529167;stroke-miterlimit:4;stroke-dasharray:none"
       inkscape:label="UR Arrow 2">
      <path
         style="fill:none;stroke:#000000;stroke-width:0.529167;stroke-linecap:butt;stroke-linejoin:miter;stroke-miterlimit:4;stroke-dasharray:none;stroke-opacity:1"
         d="m 111.65986,106.93896 c -3.08763,6.14007 -2.75916,6.02474 -2.75916,6.02474 v 0"
         id="path8156"
         inkscape:transform-center-x="-1.0909923"
         inkscape:transform-center-y="1.0373659" />
      <path
         style="fill:none;stroke:#000000;stroke-width:0.529167;stroke-linecap:butt;stroke-linejoin:miter;stroke-miterlimit:4;stroke-dasharray:none;stroke-opacity:1"
         d="m 111.65986,106.93896 c -6.67099,1.65289 -6.48585,1.35807 -6.48585,1.35807 v 0"
         id="path8158"
         inkscape:transform-center-x="0.76755379"
         inkscape:transform-center-y="-1.2858535" />
    </g>
    <g
       id="g8166"
       transform="rotate(-136.07493,105.4958,124.03031)"
       inkscape:transform-center-x="-3.1523254"
       inkscape:transform-center-y="0.75615593"
       style="display:inline;stroke-width:0.529167;stroke-miterlimit:4;stroke-dasharray:none"
       inkscape:label="UL Arrow 2">
      <path
         style="fill:none;stroke:#000000;stroke-width:0.529167;stroke-linecap:butt;stroke-linejoin:miter;stroke-miterlimit:4;stroke-dasharray:none;stroke-opacity:1"
         d="m 111.65986,106.93896 c -3.08763,6.14007 -2.75916,6.02474 -2.75916,6.02474 v 0"
         id="path8162"
         inkscape:transform-center-x="-1.0909923"
         inkscape:transform-center-y="1.0373659" />
      <path
         style="fill:none;stroke:#000000;stroke-width:0.529167;stroke-linecap:butt;stroke-linejoin:miter;stroke-miterlimit:4;stroke-dasharray:none;stroke-opacity:1"
         d="m 111.65986,106.93896 c -6.67099,1.65289 -6.48585,1.35807 -6.48585,1.35807 v 0"
         id="path8164"
         inkscape:transform-center-x="0.76755379"
         inkscape:transform-center-y="-1.2858535" />
    </g>
  </g>
</svg>
