<?xml version="1.0" encoding="UTF-8" standalone="no"?>
<svg
   version="1.1"
   width="800"
   height="800"
   id="svg374"
   sodipodi:docname="spiral.svg"
   inkscape:version="1.1.1 (3bf5ae0d25, 2021-09-20)"
   xmlns:inkscape="http://www.inkscape.org/namespaces/inkscape"
   xmlns:sodipodi="http://sodipodi.sourceforge.net/DTD/sodipodi-0.dtd"
   xmlns="http://www.w3.org/2000/svg"
   xmlns:svg="http://www.w3.org/2000/svg">
  <sodipodi:namedview
     id="namedview376"
     pagecolor="#ffffff"
     bordercolor="#666666"
     borderopacity="1.0"
     inkscape:pageshadow="2"
     inkscape:pageopacity="0.0"
     inkscape:pagecheckerboard="0"
     showgrid="false"
     inkscape:zoom="1.0242063"
     inkscape:cx="316.34251"
     inkscape:cy="392.49904"
     inkscape:window-width="1920"
     inkscape:window-height="986"
     inkscape:window-x="-11"
     inkscape:window-y="-11"
     inkscape:window-maximized="1"
     inkscape:current-layer="svg374" />
  <defs
     id="defs2" />
  <g
     transform="scale(2,2)"
     id="g372"
     inkscape:export-filename="C:\Users\Rishibh P\Desktop\OneDrive - University of Toronto\Courses\MAT267\images\spiral.png"
     inkscape:export-xdpi="150"
     inkscape:export-ydpi="150">
    <g
       id="background-7a127db6">
      <rect
         fill="white"
         stroke="none"
         x="0"
         y="0"
         width="400"
         height="400"
         class="dcg-svg-background"
         id="rect4" />
    </g>
    <g
       id="background-images-7a127db6" />
    <g
       id="graphpaper-7a127db6">
      <g
         id="grid-7a127db6">
        <g
           id="g96">
          <path
             fill="none"
             stroke="rgb(0,0,0)"
             class="dcg-svg-minor-gridline"
             paint-order="fill stroke markers"
             d=" M -0.5 0 L -0.5 400"
             stroke-opacity="0.2"
             stroke-miterlimit="10"
             stroke-dasharray=""
             id="path8" />
          <path
             fill="none"
             stroke="rgb(0,0,0)"
             class="dcg-svg-minor-gridline"
             paint-order="fill stroke markers"
             d=" M 19.5 0 L 19.5 400"
             stroke-opacity="0.2"
             stroke-miterlimit="10"
             stroke-dasharray=""
             id="path10" />
          <path
             fill="none"
             stroke="rgb(0,0,0)"
             class="dcg-svg-minor-gridline"
             paint-order="fill stroke markers"
             d=" M 39.5 0 L 39.5 400"
             stroke-opacity="0.2"
             stroke-miterlimit="10"
             stroke-dasharray=""
             id="path12" />
          <path
             fill="none"
             stroke="rgb(0,0,0)"
             class="dcg-svg-minor-gridline"
             paint-order="fill stroke markers"
             d=" M 59.5 0 L 59.5 400"
             stroke-opacity="0.2"
             stroke-miterlimit="10"
             stroke-dasharray=""
             id="path14" />
          <path
             fill="none"
             stroke="rgb(0,0,0)"
             class="dcg-svg-minor-gridline"
             paint-order="fill stroke markers"
             d=" M 79.5 0 L 79.5 400"
             stroke-opacity="0.2"
             stroke-miterlimit="10"
             stroke-dasharray=""
             id="path16" />
          <path
             fill="none"
             stroke="rgb(0,0,0)"
             class="dcg-svg-minor-gridline"
             paint-order="fill stroke markers"
             d=" M 99.5 0 L 99.5 400"
             stroke-opacity="0.2"
             stroke-miterlimit="10"
             stroke-dasharray=""
             id="path18" />
          <path
             fill="none"
             stroke="rgb(0,0,0)"
             class="dcg-svg-minor-gridline"
             paint-order="fill stroke markers"
             d=" M 119.5 0 L 119.5 400"
             stroke-opacity="0.2"
             stroke-miterlimit="10"
             stroke-dasharray=""
             id="path20" />
          <path
             fill="none"
             stroke="rgb(0,0,0)"
             class="dcg-svg-minor-gridline"
             paint-order="fill stroke markers"
             d=" M 139.5 0 L 139.5 400"
             stroke-opacity="0.2"
             stroke-miterlimit="10"
             stroke-dasharray=""
             id="path22" />
          <path
             fill="none"
             stroke="rgb(0,0,0)"
             class="dcg-svg-minor-gridline"
             paint-order="fill stroke markers"
             d=" M 159.5 0 L 159.5 400"
             stroke-opacity="0.2"
             stroke-miterlimit="10"
             stroke-dasharray=""
             id="path24" />
          <path
             fill="none"
             stroke="rgb(0,0,0)"
             class="dcg-svg-minor-gridline"
             paint-order="fill stroke markers"
             d=" M 179.5 0 L 179.5 400"
             stroke-opacity="0.2"
             stroke-miterlimit="10"
             stroke-dasharray=""
             id="path26" />
          <path
             fill="none"
             stroke="rgb(0,0,0)"
             class="dcg-svg-minor-gridline"
             paint-order="fill stroke markers"
             d=" M 219.5 0 L 219.5 400"
             stroke-opacity="0.2"
             stroke-miterlimit="10"
             stroke-dasharray=""
             id="path28" />
          <path
             fill="none"
             stroke="rgb(0,0,0)"
             class="dcg-svg-minor-gridline"
             paint-order="fill stroke markers"
             d=" M 239.5 0 L 239.5 400"
             stroke-opacity="0.2"
             stroke-miterlimit="10"
             stroke-dasharray=""
             id="path30" />
          <path
             fill="none"
             stroke="rgb(0,0,0)"
             class="dcg-svg-minor-gridline"
             paint-order="fill stroke markers"
             d=" M 259.5 0 L 259.5 400"
             stroke-opacity="0.2"
             stroke-miterlimit="10"
             stroke-dasharray=""
             id="path32" />
          <path
             fill="none"
             stroke="rgb(0,0,0)"
             class="dcg-svg-minor-gridline"
             paint-order="fill stroke markers"
             d=" M 279.5 0 L 279.5 400"
             stroke-opacity="0.2"
             stroke-miterlimit="10"
             stroke-dasharray=""
             id="path34" />
          <path
             fill="none"
             stroke="rgb(0,0,0)"
             class="dcg-svg-minor-gridline"
             paint-order="fill stroke markers"
             d=" M 299.5 0 L 299.5 400"
             stroke-opacity="0.2"
             stroke-miterlimit="10"
             stroke-dasharray=""
             id="path36" />
          <path
             fill="none"
             stroke="rgb(0,0,0)"
             class="dcg-svg-minor-gridline"
             paint-order="fill stroke markers"
             d=" M 319.5 0 L 319.5 400"
             stroke-opacity="0.2"
             stroke-miterlimit="10"
             stroke-dasharray=""
             id="path38" />
          <path
             fill="none"
             stroke="rgb(0,0,0)"
             class="dcg-svg-minor-gridline"
             paint-order="fill stroke markers"
             d=" M 339.5 0 L 339.5 400"
             stroke-opacity="0.2"
             stroke-miterlimit="10"
             stroke-dasharray=""
             id="path40" />
          <path
             fill="none"
             stroke="rgb(0,0,0)"
             class="dcg-svg-minor-gridline"
             paint-order="fill stroke markers"
             d=" M 359.5 0 L 359.5 400"
             stroke-opacity="0.2"
             stroke-miterlimit="10"
             stroke-dasharray=""
             id="path42" />
          <path
             fill="none"
             stroke="rgb(0,0,0)"
             class="dcg-svg-minor-gridline"
             paint-order="fill stroke markers"
             d=" M 379.5 0 L 379.5 400"
             stroke-opacity="0.2"
             stroke-miterlimit="10"
             stroke-dasharray=""
             id="path44" />
          <path
             fill="none"
             stroke="rgb(0,0,0)"
             class="dcg-svg-minor-gridline"
             paint-order="fill stroke markers"
             d=" M 0 379.5 L 400 379.5"
             stroke-opacity="0.2"
             stroke-miterlimit="10"
             stroke-dasharray=""
             id="path46" />
          <path
             fill="none"
             stroke="rgb(0,0,0)"
             class="dcg-svg-minor-gridline"
             paint-order="fill stroke markers"
             d=" M 0 359.5 L 400 359.5"
             stroke-opacity="0.2"
             stroke-miterlimit="10"
             stroke-dasharray=""
             id="path48" />
          <path
             fill="none"
             stroke="rgb(0,0,0)"
             class="dcg-svg-minor-gridline"
             paint-order="fill stroke markers"
             d=" M 0 339.5 L 400 339.5"
             stroke-opacity="0.2"
             stroke-miterlimit="10"
             stroke-dasharray=""
             id="path50" />
          <path
             fill="none"
             stroke="rgb(0,0,0)"
             class="dcg-svg-minor-gridline"
             paint-order="fill stroke markers"
             d=" M 0 319.5 L 400 319.5"
             stroke-opacity="0.2"
             stroke-miterlimit="10"
             stroke-dasharray=""
             id="path52" />
          <path
             fill="none"
             stroke="rgb(0,0,0)"
             class="dcg-svg-minor-gridline"
             paint-order="fill stroke markers"
             d=" M 0 299.5 L 400 299.5"
             stroke-opacity="0.2"
             stroke-miterlimit="10"
             stroke-dasharray=""
             id="path54" />
          <path
             fill="none"
             stroke="rgb(0,0,0)"
             class="dcg-svg-minor-gridline"
             paint-order="fill stroke markers"
             d=" M 0 279.5 L 400 279.5"
             stroke-opacity="0.2"
             stroke-miterlimit="10"
             stroke-dasharray=""
             id="path56" />
          <path
             fill="none"
             stroke="rgb(0,0,0)"
             class="dcg-svg-minor-gridline"
             paint-order="fill stroke markers"
             d=" M 0 259.5 L 400 259.5"
             stroke-opacity="0.2"
             stroke-miterlimit="10"
             stroke-dasharray=""
             id="path58" />
          <path
             fill="none"
             stroke="rgb(0,0,0)"
             class="dcg-svg-minor-gridline"
             paint-order="fill stroke markers"
             d=" M 0 239.5 L 400 239.5"
             stroke-opacity="0.2"
             stroke-miterlimit="10"
             stroke-dasharray=""
             id="path60" />
          <path
             fill="none"
             stroke="rgb(0,0,0)"
             class="dcg-svg-minor-gridline"
             paint-order="fill stroke markers"
             d=" M 0 219.5 L 400 219.5"
             stroke-opacity="0.2"
             stroke-miterlimit="10"
             stroke-dasharray=""
             id="path62" />
          <path
             fill="none"
             stroke="rgb(0,0,0)"
             class="dcg-svg-minor-gridline"
             paint-order="fill stroke markers"
             d=" M 0 179.5 L 400 179.5"
             stroke-opacity="0.2"
             stroke-miterlimit="10"
             stroke-dasharray=""
             id="path64" />
          <path
             fill="none"
             stroke="rgb(0,0,0)"
             class="dcg-svg-minor-gridline"
             paint-order="fill stroke markers"
             d=" M 0 159.5 L 400 159.5"
             stroke-opacity="0.2"
             stroke-miterlimit="10"
             stroke-dasharray=""
             id="path66" />
          <path
             fill="none"
             stroke="rgb(0,0,0)"
             class="dcg-svg-minor-gridline"
             paint-order="fill stroke markers"
             d=" M 0 139.5 L 400 139.5"
             stroke-opacity="0.2"
             stroke-miterlimit="10"
             stroke-dasharray=""
             id="path68" />
          <path
             fill="none"
             stroke="rgb(0,0,0)"
             class="dcg-svg-minor-gridline"
             paint-order="fill stroke markers"
             d=" M 0 119.5 L 400 119.5"
             stroke-opacity="0.2"
             stroke-miterlimit="10"
             stroke-dasharray=""
             id="path70" />
          <path
             fill="none"
             stroke="rgb(0,0,0)"
             class="dcg-svg-minor-gridline"
             paint-order="fill stroke markers"
             d=" M 0 99.5 L 400 99.5"
             stroke-opacity="0.2"
             stroke-miterlimit="10"
             stroke-dasharray=""
             id="path72" />
          <path
             fill="none"
             stroke="rgb(0,0,0)"
             class="dcg-svg-minor-gridline"
             paint-order="fill stroke markers"
             d=" M 0 79.5 L 400 79.5"
             stroke-opacity="0.2"
             stroke-miterlimit="10"
             stroke-dasharray=""
             id="path74" />
          <path
             fill="none"
             stroke="rgb(0,0,0)"
             class="dcg-svg-minor-gridline"
             paint-order="fill stroke markers"
             d=" M 0 59.5 L 400 59.5"
             stroke-opacity="0.2"
             stroke-miterlimit="10"
             stroke-dasharray=""
             id="path76" />
          <path
             fill="none"
             stroke="rgb(0,0,0)"
             class="dcg-svg-minor-gridline"
             paint-order="fill stroke markers"
             d=" M 0 39.5 L 400 39.5"
             stroke-opacity="0.2"
             stroke-miterlimit="10"
             stroke-dasharray=""
             id="path78" />
          <path
             fill="none"
             stroke="rgb(0,0,0)"
             class="dcg-svg-minor-gridline"
             paint-order="fill stroke markers"
             d=" M 0 19.5 L 400 19.5"
             stroke-opacity="0.2"
             stroke-miterlimit="10"
             stroke-dasharray=""
             id="path80" />
          <path
             fill="none"
             stroke="rgb(0,0,0)"
             class="dcg-svg-minor-gridline"
             paint-order="fill stroke markers"
             d=" M 0 -0.5 L 400 -0.5"
             stroke-opacity="0.2"
             stroke-miterlimit="10"
             stroke-dasharray=""
             id="path82" />
          <path
             fill="none"
             stroke="rgb(0,0,0)"
             class="dcg-svg-major-gridline"
             paint-order="fill stroke markers"
             d=" M -0.5 0 L -0.5 400"
             stroke-opacity="0.2500000000000001"
             stroke-miterlimit="10"
             stroke-dasharray=""
             id="path84" />
          <path
             fill="none"
             stroke="rgb(0,0,0)"
             class="dcg-svg-major-gridline"
             paint-order="fill stroke markers"
             d=" M 99.5 0 L 99.5 400"
             stroke-opacity="0.2500000000000001"
             stroke-miterlimit="10"
             stroke-dasharray=""
             id="path86" />
          <path
             fill="none"
             stroke="rgb(0,0,0)"
             class="dcg-svg-major-gridline"
             paint-order="fill stroke markers"
             d=" M 299.5 0 L 299.5 400"
             stroke-opacity="0.2500000000000001"
             stroke-miterlimit="10"
             stroke-dasharray=""
             id="path88" />
          <path
             fill="none"
             stroke="rgb(0,0,0)"
             class="dcg-svg-major-gridline"
             paint-order="fill stroke markers"
             d=" M 0 299.5 L 400 299.5"
             stroke-opacity="0.2500000000000001"
             stroke-miterlimit="10"
             stroke-dasharray=""
             id="path90" />
          <path
             fill="none"
             stroke="rgb(0,0,0)"
             class="dcg-svg-major-gridline"
             paint-order="fill stroke markers"
             d=" M 0 99.5 L 400 99.5"
             stroke-opacity="0.2500000000000001"
             stroke-miterlimit="10"
             stroke-dasharray=""
             id="path92" />
          <path
             fill="none"
             stroke="rgb(0,0,0)"
             class="dcg-svg-major-gridline"
             paint-order="fill stroke markers"
             d=" M 0 -0.5 L 400 -0.5"
             stroke-opacity="0.2500000000000001"
             stroke-miterlimit="10"
             stroke-dasharray=""
             id="path94" />
        </g>
      </g>
      <g
         id="axis-7a127db6">
        <g
           id="yaxis-7a127db6">
          <title
             id="title99">Y axis</title>
          <path
             fill="none"
             stroke="rgb(0,0,0)"
             class="dcg-svg-axis-line"
             paint-order="fill stroke markers"
             d=" M 200 0 L 200 400"
             stroke-opacity="0.9"
             stroke-miterlimit="10"
             stroke-width="1.5"
             stroke-dasharray=""
             id="path101" />
        </g>
        <g
           id="xaxis-7a127db6">
          <title
             id="title104">X axis</title>
          <path
             fill="none"
             stroke="rgb(0,0,0)"
             class="dcg-svg-axis-line"
             paint-order="fill stroke markers"
             d=" M 0 200 L 400 200"
             stroke-opacity="0.9"
             stroke-miterlimit="10"
             stroke-width="1.5"
             stroke-dasharray=""
             id="path106" />
        </g>
        <g
           id="g163">
          <g
             class="dcg-svg-axis-value"
             id="g113">
            <text
               fill="none"
               stroke="#ffffff"
               font-family="Arial"
               font-size="14px"
               font-style="normal"
               font-weight="normal"
               text-decoration="normal"
               x="191.10693359375"
               y="215.808"
               text-anchor="middle"
               stroke-miterlimit="2"
               stroke-width="3"
               stroke-dasharray=""
               id="text109">0</text>
            <text
               fill="#000000"
               stroke="none"
               font-family="Arial"
               font-size="14px"
               font-style="normal"
               font-weight="normal"
               text-decoration="normal"
               x="191.10693359375"
               y="215.808"
               text-anchor="middle"
               id="text111">0</text>
          </g>
          <g
             class="dcg-svg-axis-value dcg-svg-offcenter-axis-value"
             id="g119">
            <text
               fill="none"
               stroke="#ffffff"
               font-family="Arial"
               font-size="14px"
               font-style="normal"
               font-weight="normal"
               text-decoration="normal"
               x="13.1171875"
               y="215.808"
               text-anchor="middle"
               stroke-miterlimit="2"
               stroke-width="3"
               stroke-dasharray=""
               id="text115">-10</text>
            <text
               fill="#000000"
               stroke="none"
               font-family="Arial"
               font-size="14px"
               font-style="normal"
               font-weight="normal"
               text-decoration="normal"
               x="13.1171875"
               y="215.808"
               text-anchor="middle"
               id="text117">-10</text>
          </g>
          <g
             class="dcg-svg-axis-value"
             id="g125">
            <text
               fill="none"
               stroke="#ffffff"
               font-family="Arial"
               font-size="14px"
               font-style="normal"
               font-weight="normal"
               text-decoration="normal"
               x="97.6689453125"
               y="215.808"
               text-anchor="middle"
               stroke-miterlimit="2"
               stroke-width="3"
               stroke-dasharray=""
               id="text121">-5</text>
            <text
               fill="#000000"
               stroke="none"
               font-family="Arial"
               font-size="14px"
               font-style="normal"
               font-weight="normal"
               text-decoration="normal"
               x="97.6689453125"
               y="215.808"
               text-anchor="middle"
               id="text123">-5</text>
          </g>
          <g
             class="dcg-svg-axis-value"
             id="g131">
            <text
               fill="none"
               stroke="#ffffff"
               font-family="Arial"
               font-size="14px"
               font-style="normal"
               font-weight="normal"
               text-decoration="normal"
               x="300"
               y="215.808"
               text-anchor="middle"
               stroke-miterlimit="2"
               stroke-width="3"
               stroke-dasharray=""
               id="text127">5</text>
            <text
               fill="#000000"
               stroke="none"
               font-family="Arial"
               font-size="14px"
               font-style="normal"
               font-weight="normal"
               text-decoration="normal"
               x="300"
               y="215.808"
               text-anchor="middle"
               id="text129">5</text>
          </g>
          <g
             class="dcg-svg-axis-value dcg-svg-offcenter-axis-value"
             id="g137">
            <text
               fill="none"
               stroke="#ffffff"
               font-family="Arial"
               font-size="14px"
               font-style="normal"
               font-weight="normal"
               text-decoration="normal"
               x="389.2138671875"
               y="215.808"
               text-anchor="middle"
               stroke-miterlimit="2"
               stroke-width="3"
               stroke-dasharray=""
               id="text133">10</text>
            <text
               fill="#000000"
               stroke="none"
               font-family="Arial"
               font-size="14px"
               font-style="normal"
               font-weight="normal"
               text-decoration="normal"
               x="389.2138671875"
               y="215.808"
               text-anchor="middle"
               id="text135">10</text>
          </g>
          <g
             class="dcg-svg-axis-value dcg-svg-offcenter-axis-value"
             id="g143">
            <text
               fill="none"
               stroke="#ffffff"
               font-family="Arial"
               font-size="14px"
               font-style="normal"
               font-weight="normal"
               text-decoration="normal"
               x="184.8828125"
               y="393.808"
               text-anchor="middle"
               stroke-miterlimit="2"
               stroke-width="3"
               stroke-dasharray=""
               id="text139">-10</text>
            <text
               fill="#000000"
               stroke="none"
               font-family="Arial"
               font-size="14px"
               font-style="normal"
               font-weight="normal"
               text-decoration="normal"
               x="184.8828125"
               y="393.808"
               text-anchor="middle"
               id="text141">-10</text>
          </g>
          <g
             class="dcg-svg-axis-value"
             id="g149">
            <text
               fill="none"
               stroke="#ffffff"
               font-family="Arial"
               font-size="14px"
               font-style="normal"
               font-weight="normal"
               text-decoration="normal"
               x="188.77587890625"
               y="303.808"
               text-anchor="middle"
               stroke-miterlimit="2"
               stroke-width="3"
               stroke-dasharray=""
               id="text145">-5</text>
            <text
               fill="#000000"
               stroke="none"
               font-family="Arial"
               font-size="14px"
               font-style="normal"
               font-weight="normal"
               text-decoration="normal"
               x="188.77587890625"
               y="303.808"
               text-anchor="middle"
               id="text147">-5</text>
          </g>
          <g
             class="dcg-svg-axis-value"
             id="g155">
            <text
               fill="none"
               stroke="#ffffff"
               font-family="Arial"
               font-size="14px"
               font-style="normal"
               font-weight="normal"
               text-decoration="normal"
               x="191.10693359375"
               y="103.808"
               text-anchor="middle"
               stroke-miterlimit="2"
               stroke-width="3"
               stroke-dasharray=""
               id="text151">5</text>
            <text
               fill="#000000"
               stroke="none"
               font-family="Arial"
               font-size="14px"
               font-style="normal"
               font-weight="normal"
               text-decoration="normal"
               x="191.10693359375"
               y="103.808"
               text-anchor="middle"
               id="text153">5</text>
          </g>
          <g
             class="dcg-svg-axis-value dcg-svg-offcenter-axis-value"
             id="g161">
            <text
               fill="none"
               stroke="#ffffff"
               font-family="Arial"
               font-size="14px"
               font-style="normal"
               font-weight="normal"
               text-decoration="normal"
               x="187.2138671875"
               y="13.808"
               text-anchor="middle"
               stroke-miterlimit="2"
               stroke-width="3"
               stroke-dasharray=""
               id="text157">10</text>
            <text
               fill="#000000"
               stroke="none"
               font-family="Arial"
               font-size="14px"
               font-style="normal"
               font-weight="normal"
               text-decoration="normal"
               x="187.2138671875"
               y="13.808"
               text-anchor="middle"
               id="text159">10</text>
          </g>
        </g>
      </g>
    </g>
    <g
       id="expressions-7a127db6">
      <g
         id="sketch-7a127db6">
        <title
           id="title167">Expression 2</title>
        <path
           fill="#c74440"
           stroke="none"
           paint-order="stroke fill markers"
           d=""
           fill-opacity="0.4"
           id="path169" />
        <path
           fill="#c74440"
           stroke="none"
           paint-order="stroke fill markers"
           d=""
           fill-opacity="0.4"
           id="path171" />
        <path
           fill="#c74440"
           stroke="none"
           paint-order="stroke fill markers"
           d=""
           fill-opacity="0.4"
           id="path173" />
        <path
           fill="#c74440"
           stroke="none"
           paint-order="stroke fill markers"
           d=""
           fill-opacity="0.4"
           id="path175" />
        <path
           fill="#c74440"
           stroke="none"
           paint-order="stroke fill markers"
           d=""
           fill-opacity="0.4"
           id="path177" />
        <path
           fill="#c74440"
           stroke="none"
           paint-order="stroke fill markers"
           d=""
           fill-opacity="0.4"
           id="path179" />
        <path
           fill="#c74440"
           stroke="none"
           paint-order="stroke fill markers"
           d=""
           fill-opacity="0.4"
           id="path181" />
        <path
           fill="#c74440"
           stroke="none"
           paint-order="stroke fill markers"
           d=""
           fill-opacity="0.4"
           id="path183" />
        <path
           fill="#c74440"
           stroke="none"
           paint-order="stroke fill markers"
           d=""
           fill-opacity="0.4"
           id="path185" />
        <path
           fill="#c74440"
           stroke="none"
           paint-order="stroke fill markers"
           d=""
           fill-opacity="0.4"
           id="path187" />
        <path
           fill="#c74440"
           stroke="none"
           paint-order="stroke fill markers"
           d=""
           fill-opacity="0.4"
           id="path189" />
        <path
           fill="#c74440"
           stroke="none"
           paint-order="stroke fill markers"
           d=""
           fill-opacity="0.4"
           id="path191" />
        <path
           fill="#c74440"
           stroke="none"
           paint-order="stroke fill markers"
           d=""
           fill-opacity="0.4"
           id="path193" />
        <path
           fill="#c74440"
           stroke="none"
           paint-order="stroke fill markers"
           d=""
           fill-opacity="0.4"
           id="path195" />
        <path
           fill="#c74440"
           stroke="none"
           paint-order="stroke fill markers"
           d=""
           fill-opacity="0.4"
           id="path197" />
        <path
           fill="#c74440"
           stroke="none"
           paint-order="stroke fill markers"
           d=""
           fill-opacity="0.4"
           id="path199" />
        <path
           fill="#c74440"
           stroke="none"
           paint-order="stroke fill markers"
           d=""
           fill-opacity="0.4"
           id="path201" />
        <path
           fill="#c74440"
           stroke="none"
           paint-order="stroke fill markers"
           d=""
           fill-opacity="0.4"
           id="path203" />
        <path
           fill="#c74440"
           stroke="none"
           paint-order="stroke fill markers"
           d=""
           fill-opacity="0.4"
           id="path205" />
        <path
           fill="#c74440"
           stroke="none"
           paint-order="stroke fill markers"
           d=""
           fill-opacity="0.4"
           id="path207" />
        <path
           fill="#c74440"
           stroke="none"
           paint-order="stroke fill markers"
           d=""
           fill-opacity="0.4"
           id="path209" />
        <path
           fill="#c74440"
           stroke="none"
           paint-order="stroke fill markers"
           d=""
           fill-opacity="0.4"
           id="path211" />
        <path
           fill="#c74440"
           stroke="none"
           paint-order="stroke fill markers"
           d=""
           fill-opacity="0.4"
           id="path213" />
        <path
           fill="#c74440"
           stroke="none"
           paint-order="stroke fill markers"
           d=""
           fill-opacity="0.4"
           id="path215" />
        <path
           fill="#c74440"
           stroke="none"
           paint-order="stroke fill markers"
           d=""
           fill-opacity="0.4"
           id="path217" />
        <g
           id="g221">
          <path
             fill="none"
             stroke="#c74440"
             class="dcg-svg-curve"
             paint-order="fill stroke markers"
             d=" M 190.35897601292376 196.60860003358488 L 190.35897601292376 196.60860003358488 L 187.95758928358947 197.12209117109552 L 185.3181757738932 197.96679365511463 L 182.50136638885746 199.16147181738455 L 179.52131199314886 200.73440426588462 L 176.3085396321548 202.77404120012443 L 172.9672491333441 205.27096048884607 L 169.63367051350755 208.15055785832678 L 166.38431014054333 211.3458422762298 L 163.20327760055304 214.86773076245152 L 160.1444470265262 218.6502831662071 L 157.25631769927844 222.61116794878103 L 154.38710192578446 226.96118531708964 L 151.65996581813062 231.52654946736737 L 149.10178944315936 236.24357743193025 L 146.63562815188516 241.25032360530506 L 144.2798124013497 246.52602576626023 L 142.05086914902262 252.04556176234877 L 139.96316869469103 257.7796167711392 L 138.02862032924133 263.6949251340056 L 136.2564265405401 269.7545827556677 L 134.57099150222982 276.25423776844843 L 133.0682716526431 282.8591196374128 L 131.7503933920717 289.5234191414171 L 130.55316412399506 296.60352394453395 L 129.5503403642554 303.6901028217836 L 128.6894491966025 311.18272403361266 L 128.02565182748603 318.62142479681694 L 127.52106364779922 326.45069583020586 L 127.19378501563182 334.686021370011 L 127.06523607289851 342.7894593765879 L 127.12666777859124 351.27690455019064 L 127.39629924027867 360.1618112802335 L 127.85289464066335 368.82502515090704 L 128.5244921464501 377.85758844734585 L 129.4288266753322 387.2708469329464 L 130.4933482316322 396.36260895384214"
             stroke-linecap="round"
             stroke-linejoin="round"
             stroke-miterlimit="10"
             stroke-width="2.5"
             stroke-opacity="0.9"
             stroke-dasharray=""
             id="path219" />
        </g>
        <g
           id="g225">
          <path
             fill="none"
             stroke="#c74440"
             class="dcg-svg-curve"
             paint-order="fill stroke markers"
             d=" M 193.34374079690505 193.53047043203742 L 193.34374079690505 193.53047043203742 L 191.03796541675948 192.94449720777763 L 188.45856838348192 192.56896294924627 L 185.61241377983794 192.42390211212415 L 182.5251012186394 192.52992361558978 L 179.20494164769516 192.9057193215072 L 175.6367325986949 193.57622069852425 L 171.86965625981654 194.55485720055657 L 167.85905817003933 195.87850738034416 L 163.63986814118198 197.5652649259336 L 159.2530304274786 199.623961058265 L 154.61039826642644 202.1299423375104 L 149.87574980397775 205.02499757111184 L 144.94831302798227 208.39870110017623 L 139.85465701642542 212.2740748988487 L 134.79764774161012 216.51699253003696 L 129.8352153733068 221.07274461193208 L 125.02303190267776 225.87374433525153 L 120.21774028632746 231.0597534204002 L 115.6507060930328 236.36898417227582 L 111.1600936767822 241.97056772771526 L 106.77172949823648 247.83193058155229 L 102.50979706276463 253.91542320273237 L 98.17846974383694 260.52195890553116 L 94.0110286458694 267.31471444450426 L 90.02713339481544 274.2434463619437 L 86.02073878301857 281.68105514063586 L 82.22853017654681 289.19925411865256 L 78.66362304844881 296.7369862210702 L 75.11486538500972 304.7453462163643 L 71.8141079729455 312.7012341487617 L 68.55065407911354 321.11092979693643 L 65.54963500376891 329.38742645572665"
             stroke-linecap="round"
             stroke-linejoin="round"
             stroke-miterlimit="10"
             stroke-width="2.5"
             stroke-opacity="0.9"
             stroke-dasharray=""
             id="path223" />
        </g>
        <g
           id="g229">
          <path
             fill="none"
             stroke="#c74440"
             class="dcg-svg-curve"
             paint-order="fill stroke markers"
             d=" M 196.32850558088634 190.45234083048993 L 196.32850558088634 190.45234083048993 L 194.41282898183914 188.78907135762665 L 191.96651050141514 187.07492323633306 L 189.15046272377583 185.48010900204312 L 186.0101394108445 184.0424742249095 L 182.58007821617934 182.78359909986716 L 178.87281548041793 181.7133240540057 L 174.86966926215075 180.83617599511263 L 170.51286640687817 180.15911983639268 L 165.96619067214374 179.71896274950905 L 161.1655460039214 179.51402784896402 L 155.99525938339656 179.5600466305258 L 150.64428356988066 179.87144865635184 L 144.97778788821108 180.46906068094586 L 139.22808236418064 181.33621982046705 L 133.23766903348982 182.5008365733164 L 127.03347026622106 183.97189177576206 L 120.64557275442533 185.7539489791587 L 113.82556971934723 187.94277298909375 L 106.85574821908828 190.47328213470058 L 99.77403186997603 193.3383260984425 L 92.28612504885444 196.68095418961582 L 84.73318119656288 200.37137130537937 L 77.15881745017316 204.387974327649 L 69.22113038642686 208.93199316355538 L 61.318251259038064 213.79337634007896 L 53.0764533077556 219.22001747025564 L 44.4928868467852 225.25864632195444 L 36.02055346153425 231.6074912956413 L 27.23840448000705 238.59887860213547 L 18.633938899112657 245.85850835931862 L 10.255549600678478 253.3228087795165 L 2.1493614465830717 260.9225110244496 L 0.6059217759056139 262.41224395761105"
             stroke-linecap="round"
             stroke-linejoin="round"
             stroke-miterlimit="10"
             stroke-width="2.5"
             stroke-opacity="0.9"
             stroke-dasharray=""
             id="path227" />
        </g>
        <g
           id="g233">
          <path
             fill="none"
             stroke="#c74440"
             class="dcg-svg-curve"
             paint-order="fill stroke markers"
             d=" M 199.31327036486766 187.37421122894247 L 199.31327036486766 187.37421122894247 L 198.0644061370128 185.20607195704372 L 196.47839737514698 182.91178730791404 L 194.49729376753916 180.4784674316109 L 192.08745059378668 177.9363662763778 L 189.2220194016743 175.3210512607323 L 185.88265421946835 172.67235020631233 L 181.96174706672238 169.96908315555135 L 177.64361426753464 167.38185052253004 L 172.99525389476673 164.95832048253965 L 168.10211932811973 162.73779136664157 L 162.89348966809507 160.68605721115625 L 157.42660146067885 158.82843523340182 L 151.55609508925846 157.12668367782126 L 145.52952610997502 155.65780507892993 L 139.17537858721883 154.3811075665009 L 132.51949808793609 153.31358436449514 L 125.59236536091072 152.46901668715566 L 118.42885307313719 151.8575545024121 L 111.06790723127142 151.48536830824764 L 103.18192614073243 151.35413933651137 L 95.13912885454405 151.48648544841248 L 86.9884828481543 151.87807883598208 L 78.33690720547129 152.56130327461977 L 69.63386811195781 153.51214286142405 L 60.439773846498824 154.7898136397181 L 51.25918235649252 156.3332085165973 L 41.604189773435614 158.23291747691482 L 32.03519450517253 160.3849283656876 L 22.014634387223253 162.91579622257456 L 12.158780751573993 165.67311758925717 L 1.8795720683305888 168.82393404058075 L -5.5 171.28641615112554"
             stroke-linecap="round"
             stroke-linejoin="round"
             stroke-miterlimit="10"
             stroke-width="2.5"
             stroke-opacity="0.9"
             stroke-dasharray=""
             id="path231" />
        </g>
        <g
           id="g237">
          <path
             fill="none"
             stroke="#c74440"
             class="dcg-svg-curve"
             paint-order="fill stroke markers"
             d=" M 187.37421122894247 199.68672963513234 L 187.37421122894247 199.68672963513234 L 184.86873367461695 201.1517842885199 L 182.20516056818934 203.06490197311044 L 179.4433414637357 205.44102754576983 L 176.81993209609809 208.08602726251758 L 174.31355160592636 210.9937182407627 L 171.86570929991336 214.22980043937832 L 169.52041583224664 217.74471704631932 L 167.31657497569213 221.47339568724038 L 165.22064154370895 225.46954407587063 L 163.25786804307148 229.68948969672348 L 161.44891582468773 234.08099221036514 L 159.74714496146635 238.76609216689621 L 158.17015970998958 243.72970739213446 L 156.73380027462446 248.95268306867695 L 155.45174762164396 254.4118802322152 L 154.33516726998533 260.08033332352204 L 153.39240320151 265.92747412751027 L 152.62873191527413 271.9194178824233 L 152.04618518812373 278.01930595897244 L 151.6267011721311 284.5227642196296 L 151.40060452520044 291.09315568206443 L 151.3647912304495 298.06355098826003 L 151.52792295241986 305.05239107023067 L 151.9050360057086 312.4320169679583 L 152.47888818387503 319.77476792450494 L 153.2859241673719 327.49374797541714 L 154.27892374380116 335.11458252441685 L 155.51901037462608 343.09224833992596 L 157.0278222626897 351.4382616497278 L 158.70684395083723 359.6074408017099 L 160.66240041545294 368.11999192231093 L 162.91579622257456 376.9853656127767 L 165.30754358605898 385.58631448288406 L 167.99769095610162 394.5103273936261 L 171.0065859869337 403.76484471696205 L 171.61239508322012 405.5"
             stroke-linecap="round"
             stroke-linejoin="round"
             stroke-miterlimit="10"
             stroke-width="2.5"
             stroke-opacity="0.9"
             stroke-dasharray=""
             id="path235" />
        </g>
        <g
           id="g241">
          <path
             fill="none"
             stroke="#c74440"
             class="dcg-svg-curve"
             paint-order="fill stroke markers"
             d=" M 193.43710561447122 199.59336481756617 L 193.43710561447122 199.59336481756617 L 191.66134545768998 200.67971152963037 L 189.73263150412987 202.2303287945913 L 187.87482294233322 204.10686270230835 L 186.11698887494487 206.26713263500858 L 184.47807777602392 208.67364333022422 L 182.95043160513393 211.33033714749217 L 181.54193743512576 214.2262274009841 L 180.25139305907666 217.37586145621944 L 179.10385291724535 220.72960601292985 L 178.08916010914686 224.3356181992188 L 177.22569918796 228.16114995692237 L 176.52682384218093 232.1661600303116 L 175.98450834357783 236.45381731954467 L 175.62677297418958 240.8497006102316 L 175.44688786904163 245.47494504141673 L 175.4561572243459 250.3112310145551 L 175.6631729317316 255.3371357793402 L 176.07349007906603 260.52832349417054 L 176.68935645919348 265.8577853392462 L 177.509505187313 271.296124169963 L 178.58378036325547 277.08266777224856 L 179.87408054214006 282.9447787438282 L 181.45208843732712 289.15080303357894 L 183.25070597586034 295.39281161432007 L 185.25329299346686 301.632422358481 L 187.56920569830112 308.1831207197041 L 190.22683445137199 315.0537945420981 L 193.08729287054487 321.86575462742564 L 196.3092180630257 328.97946712811296 L 197.46853072974778 331.41889572597887"
             stroke-linecap="round"
             stroke-linejoin="round"
             stroke-miterlimit="10"
             stroke-width="2.5"
             stroke-opacity="0.9"
             stroke-dasharray=""
             id="path239" />
        </g>
        <g
           id="g245">
          <path
             fill="none"
             stroke="#c74440"
             class="dcg-svg-curve"
             paint-order="fill stroke markers"
             d=" M 196.42187039845254 196.5152352160187 L 196.42187039845254 196.5152352160187 L 194.7579966844475 196.13222103486729 L 192.82044537683 195.96598176256418 L 190.6276644993804 196.0471066888117 L 188.21501649239025 196.40155973961419 L 185.59186738844798 197.05497593586608 L 182.73104959714286 198.05024984017038 L 179.68416032805177 199.40845016935594 L 176.4452793014869 201.17162083582537 L 173.0637084866158 203.35387514837686 L 169.5129897955036 206.0188937950987 L 165.92268973093636 209.1095116760992 L 162.4500094084219 212.49183854626378 L 159.07231578435227 216.1728444507609 L 155.84533132409956 220.0752380185197 L 152.7127227586356 224.25420898234626 L 149.70927681258763 228.6571819258698 L 146.7555143229347 233.40735722225213 L 143.98552463602726 238.28689422242604 L 141.31043531749293 243.44285767597393 L 138.74831281491413 248.8510083384567 L 136.31530611317794 254.4827721270335 L 134.02532703955677 260.30546489846824 L 132.52481750188446 264.4437132278633"
             stroke-linecap="round"
             stroke-linejoin="round"
             stroke-miterlimit="10"
             stroke-width="2.5"
             stroke-opacity="0.9"
             stroke-dasharray=""
             id="path243" />
        </g>
        <g
           id="g249">
          <path
             fill="none"
             stroke="#c74440"
             class="dcg-svg-curve"
             paint-order="fill stroke markers"
             d=" M 199.40663518243383 193.43710561447122 L 199.40663518243383 193.43710561447122 L 198.48810844325098 191.90424018535492 L 197.21681961828745 190.24144268457073 L 195.56541440623946 188.49685697925165 L 193.45121147392726 186.66616953338757 L 190.78052012750967 184.76650376136917 L 187.73146616823774 182.98318273783116 L 184.33071710622383 181.3463742580276 L 180.6734894056971 179.9041713911135 L 176.67686755982993 178.629522550437 L 172.39768988196516 177.5529929926345 L 167.77480596390302 176.67350706407925 L 162.99409600040488 176.03188359060232 L 157.82101268052045 175.60751777352246 L 152.4431452236558 175.43202547066596 L 146.72380446488467 175.51396147620991 L 140.89675390229712 175.8578020330607 L 134.8019987243835 176.4771215946846 L 128.46563702283046 177.38334787381632 L 121.91733222775147 178.58378036325547 L 115.19000403884453 180.08120020772645 L 108.01107477624493 181.9600590714523 L 100.6897860341653 184.16196702029038 L 93.26705661822595 186.6777665594448 L 85.4196830297811 189.63746155282294 L 77.52054193719158 192.91915752822698 L 69.61634638537508 196.49939249397818 L 67.58110427402114 197.46853072974778"
             stroke-linecap="round"
             stroke-linejoin="round"
             stroke-miterlimit="10"
             stroke-width="2.5"
             stroke-opacity="0.9"
             stroke-dasharray=""
             id="path247" />
        </g>
        <g
           id="g253">
          <path
             fill="none"
             stroke="#c74440"
             class="dcg-svg-curve"
             paint-order="fill stroke markers"
             d=" M 202.39139996641512 190.35897601292376 L 202.39139996641512 190.35897601292376 L 201.9585949804575 188.2679557374688 L 201.29164191910726 186.04017095058722 L 200.35424747821693 183.6348683869267 L 199.1292840398022 181.08420618822888 L 197.61042455335607 178.42669149311052 L 195.75564443201102 175.6379599610025 L 193.55181211159612 172.7481453970516 L 190.92190778217469 169.71227171260452 L 187.82832946459789 166.55157081155917 L 184.33782312801992 163.37930741346855 L 180.22987132656408 160.05267427010978 L 175.56116551702272 156.68776057479022 L 170.4667669606937 153.41763510495466 L 165.17495139139686 150.38288406781686 L 159.40434654112474 147.42437152298962 L 153.3866511222822 144.67085485155798 L 146.95443823765123 142.05086914902262 L 140.40239923965652 139.68289053665103 L 133.53193323229078 137.48895682177312 L 126.37648970001327 135.48610145541903 L 118.97442169167917 133.68810321332126 L 110.99277735846081 132.03346692804473 L 102.80106115139901 130.6161956959881 L 94.4498267035019 129.44134231096217 L 85.99338201239155 128.50951663698157 L 77.00223321779413 127.78426641663998 L 67.96790250924194 127.31393913511971 L 58.408454101529415 127.0816653085634 L 48.87742354814665 127.10685701859188 L 38.83818871976648 127.39629924027867 L 28.907485347076374 127.93527099879998 L 18.492254350552713 128.75832378289476 L 7.575527190971101 129.89225777329352 L 2.6373910461578447 130.49334823163224"
             stroke-linecap="round"
             stroke-linejoin="round"
             stroke-miterlimit="10"
             stroke-width="2.5"
             stroke-opacity="0.9"
             stroke-dasharray=""
             id="path251" />
        </g>
        <g
           id="g257">
          <path
             fill="none"
             stroke="#c74440"
             class="dcg-svg-curve"
             paint-order="fill stroke markers"
             d=" M 190.45234083048993 202.67149441911366 L 190.45234083048993 202.67149441911366 L 188.8142127799123 204.5550765246348 L 187.28770475069533 206.7002273071793 L 185.86121669135525 209.12095663500202 L 184.55510557266174 211.7911244258742 L 183.37838484846142 214.70141065523194 L 182.35776653065727 217.78445068241768 L 181.46447544262702 221.14661986528526 L 180.73968533046482 224.65777234046172 L 180.17411807973625 228.36826295796362 L 179.7675726847881 232.3703810179927 L 179.54552482259038 236.51341075095553 L 179.50978418165357 240.90534338952043 L 179.66548330997185 245.35995487407445 L 180.017822897279 250.00380699558815 L 180.57353284908163 254.81571635698901 L 181.37331577842716 259.98582812437695 L 182.40247535382392 265.30306143644987 L 183.66018643231766 270.7392408327494 L 185.14171308313473 276.2641322142265 L 186.92646559417108 282.1192694291833 L 188.94328697859416 288.02732458627924 L 191.29754003679972 294.25727605965153 L 193.8839862526417 300.4987022053406 L 196.8378801193832 307.0488299397199 L 200.0147055575351 313.564154502639 L 203.58364300000648 320.3706341171855 L 207.35585486036643 327.0922177926194 L 211.53849059395694 334.08372748938746 L 216.1626878673152 341.348416931217 L 220.96514300404937 348.46263503900525 L 226.22025978593308 355.82423753363844 L 231.95903148598552 363.43394695032754 L 237.83127884815428 370.82259844473083 L 244.18952051605322 378.43014167548586 L 251.06381661953014 386.25498550586605 L 258.48569499190967 394.2946809131349 L 262.4122439576111 398.3940782240944"
             stroke-linecap="round"
             stroke-linejoin="round"
             stroke-miterlimit="10"
             stroke-width="2.5"
             stroke-opacity="0.9"
             stroke-dasharray=""
             id="path255" />
        </g>
        <g
           id="g261">
          <path
             fill="none"
             stroke="#c74440"
             class="dcg-svg-curve"
             paint-order="fill stroke markers"
             d=" M 196.5152352160187 202.57812960154746 L 196.5152352160187 202.57812960154746 L 196.17052849366019 204.0091830359702 L 195.98660697712612 205.65080945457248 L 195.98303457364023 207.46514640954368 L 196.1764017575865 209.46715838902008 L 196.58553184649156 211.63960406353664 L 197.2300346751558 213.97621325047697 L 198.13688284888087 216.48554074073007 L 199.31858632339635 219.13295602664328 L 200.81497116875522 221.94480086678678 L 202.64450051219254 224.89427810629135 L 204.81829530325527 227.95029893882838 L 207.33897009396787 231.07839446459258 L 210.28637230596604 234.33239231334662 L 213.6891218220145 237.68929961833462 L 217.57283726421517 241.12298784808792 L 221.95944633498118 244.60452647145476 L 227.02598612642103 248.21020441251798 L 232.30665411284573 251.5840713141671 L 238.08233917423127 254.90323630196872 L 244.12162839834173 258.0242013624545 L 250.59280224223448 261.0285205866686 L 257.1993077955177 263.7801502672907 L 264.1410929902782 266.36884282372534 L 264.4437132278633 266.47518249811554"
             stroke-linecap="round"
             stroke-linejoin="round"
             stroke-miterlimit="10"
             stroke-width="2.5"
             stroke-opacity="0.9"
             stroke-dasharray=""
             id="path259" />
        </g>
        <g
           id="g265">
          <path
             fill="none"
             stroke="#c74440"
             class="dcg-svg-curve"
             paint-order="fill stroke markers"
             d=" M 202.4847647839813 196.42187039845254 L 202.4847647839813 196.42187039845254 L 202.82947150633981 194.9908169640298 L 203.01339302287388 193.34919054542752 L 203.01696542635977 191.53485359045632 L 202.8235982424135 189.53284161097992 L 202.41446815350844 187.36039593646336 L 201.7699653248442 185.02378674952303 L 200.86311715111913 182.51445925926993 L 199.68141367660365 179.86704397335672 L 198.18502883124478 177.05519913321322 L 196.35549948780746 174.10572189370865 L 194.18170469674473 171.04970106117162 L 191.66102990603213 167.92160553540742 L 188.71362769403396 164.66760768665338 L 185.3108781779855 161.31070038166538 L 181.42716273578483 157.87701215191208 L 177.04055366501882 154.3954735285452 L 171.97401387357897 150.789795587482 L 166.69334588715427 147.4159286858329 L 160.91766082576873 144.09676369803128 L 154.87837160165827 140.9757986375455 L 148.40719775776554 137.97147941333134 L 141.80069220448232 135.2198497327093 L 134.8589070097218 132.63115717627466 L 134.55628677213667 132.52481750188446"
             stroke-linecap="round"
             stroke-linejoin="round"
             stroke-miterlimit="10"
             stroke-width="2.5"
             stroke-opacity="0.9"
             stroke-dasharray=""
             id="path263" />
        </g>
        <g
           id="g269">
          <path
             fill="none"
             stroke="#c74440"
             class="dcg-svg-curve"
             paint-order="fill stroke markers"
             d=" M 205.46952956796258 193.34374079690505 L 205.46952956796258 193.34374079690505 L 205.98974101843157 191.35847469304855 L 206.35470481636344 189.15524321315485 L 206.54831226499152 186.75369922709626 L 206.55765558424315 184.15974571366812 L 206.36727521081693 181.36013164875823 L 205.9649151819147 178.39302569981396 L 205.34827889375185 175.3044344457997 L 204.49932975022293 172.0546037594084 L 203.37785069363713 168.5739410600596 L 202.00282700919155 164.98141993868117 L 200.3259396655193 161.19704607062616 L 198.3281422855016 157.23601919466336 L 196.0752216916343 153.253541909928 L 193.50139238619929 149.15031779715144 L 190.4895905203034 144.79384597126196 L 187.11657504479044 140.34539909327503 L 183.38220127800838 135.83072240555185 L 179.29126946151186 131.27663776975953 L 174.66531801273035 126.52422667314812 L 169.66367357987488 121.77391142915087 L 164.06821318434933 116.85509809440441 L 157.82487712969893 111.77912031906811 L 151.16806941844771 106.77172949823648 L 144.12778159687093 101.86423116269088 L 136.74059106536797 97.08624819000295 L 129.04941908232436 92.46521530489889 L 120.68922999314621 87.80329985737887 L 112.06333274216507 83.34397675809873 L 103.23050081872503 79.10860659761607 L 94.25465378363572 75.1148653850097 L 84.65377570232694 71.15804072603851 L 74.98148003523352 67.47329537736425 L 69.61257354427337 65.54963500376891"
             stroke-linecap="round"
             stroke-linejoin="round"
             stroke-miterlimit="10"
             stroke-width="2.5"
             stroke-opacity="0.9"
             stroke-dasharray=""
             id="path267" />
        </g>
        <g
           id="g273">
          <path
             fill="none"
             stroke="#c74440"
             class="dcg-svg-curve"
             paint-order="fill stroke markers"
             d=" M 193.53047043203742 205.65625920309495 L 193.53047043203742 205.65625920309495 L 193.01025898156843 207.64152530695145 L 192.64529518363656 209.84475678684515 L 192.45168773500848 212.24630077290374 L 192.44234441575685 214.84025428633188 L 192.63272478918307 217.63986835124177 L 193.0350848180853 220.60697430018604 L 193.65172110624815 223.6955655542003 L 194.50067024977707 226.9453962405916 L 195.62214930636287 230.4260589399404 L 196.99717299080845 234.01858006131883 L 198.6740603344807 237.80295392937384 L 200.6718577144984 241.76398080533664 L 202.9247783083657 245.74645809007197 L 205.49860761380071 249.84968220284856 L 208.5104094796966 254.20615402873804 L 211.88342495520956 258.65460090672497 L 215.61779872199162 263.1692775944482 L 219.70873053848814 267.72336223024047 L 224.33468198726965 272.4757733268519 L 229.33632642012512 277.22608857084913 L 234.93178681565067 282.14490190559553 L 241.17512287030107 287.2208796809319 L 247.83193058155229 292.2282705017635 L 254.87221840312907 297.1357688373091 L 262.259408934632 301.91375180999705 L 269.95058091767567 306.5347846951011 L 278.3107700068538 311.19670014262107 L 286.9366672578349 315.65602324190127 L 295.76949918127497 319.8913934023839 L 304.7453462163643 323.8851346149903 L 314.3462242976731 327.8419592739615 L 324.0185199647665 331.52670462263575 L 329.38742645572665 333.4503649962311"
             stroke-linecap="round"
             stroke-linejoin="round"
             stroke-miterlimit="10"
             stroke-width="2.5"
             stroke-opacity="0.9"
             stroke-dasharray=""
             id="path271" />
        </g>
        <g
           id="g277">
          <path
             fill="none"
             stroke="#c74440"
             class="dcg-svg-curve"
             paint-order="fill stroke markers"
             d=" M 199.59336481756617 205.56289438552878 L 199.59336481756617 205.56289438552878 L 200.51189155674902 207.09575981464508 L 201.78318038171255 208.75855731542927 L 203.43458559376054 210.50314302074835 L 205.54878852607274 212.33383046661243 L 208.21947987249033 214.23349623863083 L 211.26853383176226 216.01681726216884 L 214.66928289377617 217.6536257419724 L 218.3265105943029 219.0958286088865 L 222.32313244017007 220.370477449563 L 226.60231011803484 221.4470070073655 L 231.22519403609698 222.32649293592075 L 236.00590399959512 222.96811640939768 L 241.17898731947955 223.39248222647754 L 246.5568547763442 223.56797452933404 L 252.27619553511533 223.48603852379009 L 258.1032460977029 223.1421979669393 L 264.1980012756165 222.5228784053154 L 270.5343629771695 221.61665212618368 L 277.08266777224856 220.41621963674453 L 283.8099959611555 218.91879979227355 L 290.9889252237551 217.0399409285477 L 298.3102139658347 214.83803297970962 L 305.7329433817741 212.3222334405552 L 313.5803169702189 209.36253844717706 L 321.4794580628084 206.08084247177302 L 329.3836536146249 202.50060750602182 L 331.41889572597887 201.53146927025222"
             stroke-linecap="round"
             stroke-linejoin="round"
             stroke-miterlimit="10"
             stroke-width="2.5"
             stroke-opacity="0.9"
             stroke-dasharray=""
             id="path275" />
        </g>
        <g
           id="g281">
          <path
             fill="none"
             stroke="#c74440"
             class="dcg-svg-curve"
             paint-order="fill stroke markers"
             d=" M 202.57812960154746 202.4847647839813 L 202.57812960154746 202.4847647839813 L 204.2420033155525 202.86777896513271 L 206.17955462317 203.03401823743582 L 208.3723355006196 202.9528933111883 L 210.78498350760975 202.59844026038581 L 213.40813261155202 201.94502406413392 L 216.26895040285714 200.94975015982962 L 219.31583967194823 199.59154983064406 L 222.5547206985131 197.82837916417463 L 225.9362915133842 195.64612485162314 L 229.4870102044964 192.9811062049013 L 233.07731026906364 189.8904883239008 L 236.5499905915781 186.50816145373622 L 239.92768421564773 182.8271555492391 L 243.15466867590044 178.9247619814803 L 246.2872772413644 174.74579101765374 L 249.29072318741237 170.3428180741302 L 252.24448567706528 165.59264277774787 L 255.01447536397276 160.71310577757396 L 257.68956468250707 155.55714232402607 L 260.25168718508587 150.1489916615433 L 262.68469388682206 144.5172278729665 L 264.97467296044323 138.6945351015318 L 266.47518249811554 134.55628677213667"
             stroke-linecap="round"
             stroke-linejoin="round"
             stroke-miterlimit="10"
             stroke-width="2.5"
             stroke-opacity="0.9"
             stroke-dasharray=""
             id="path279" />
        </g>
        <g
           id="g285">
          <path
             fill="none"
             stroke="#c74440"
             class="dcg-svg-curve"
             paint-order="fill stroke markers"
             d=" M 205.56289438552878 199.40663518243383 L 205.56289438552878 199.40663518243383 L 207.33865454231002 198.32028847036963 L 209.26736849587013 196.7696712054087 L 211.12517705766678 194.89313729769165 L 212.88301112505513 192.73286736499142 L 214.52192222397608 190.32635666977578 L 216.04956839486607 187.66966285250783 L 217.45806256487424 184.7737725990159 L 218.74860694092334 181.62413854378056 L 219.89614708275465 178.27039398707015 L 220.91083989085314 174.6643818007812 L 221.77430081204 170.83885004307763 L 222.47317615781907 166.8338399696884 L 223.01549165642217 162.54618268045533 L 223.37322702581042 158.1502993897684 L 223.55311213095837 153.52505495858327 L 223.5438427756541 148.68876898544488 L 223.3368270682684 143.6628642206598 L 222.92650992093397 138.47167650582946 L 222.31064354080652 133.14221466075372 L 221.490494812687 127.70387583003702 L 220.41621963674453 121.91733222775144 L 219.12591945785994 116.05522125617182 L 217.54791156267288 109.84919696642106 L 215.74929402413966 103.60718838567993 L 213.74670700653314 97.367577641519 L 211.43079430169888 90.8168792802959 L 208.77316554862801 83.9462054579019 L 205.91270712945513 77.13424537257436 L 202.6907819369743 70.02053287188704 L 201.53146927025222 67.58110427402113"
             stroke-linecap="round"
             stroke-linejoin="round"
             stroke-miterlimit="10"
             stroke-width="2.5"
             stroke-opacity="0.9"
             stroke-dasharray=""
             id="path283" />
        </g>
        <g
           id="g289">
          <path
             fill="none"
             stroke="#c74440"
             class="dcg-svg-curve"
             paint-order="fill stroke markers"
             d=" M 208.54765916951007 196.32850558088634 L 208.54765916951007 196.32850558088634 L 210.1857872200877 194.4449234753652 L 211.71229524930467 192.2997726928207 L 213.13878330864475 189.87904336499798 L 214.44489442733826 187.2088755741258 L 215.62161515153858 184.29858934476806 L 216.64223346934273 181.21554931758232 L 217.53552455737298 177.85338013471474 L 218.26031466953518 174.34222765953828 L 218.82588192026375 170.63173704203638 L 219.2324273152119 166.6296189820073 L 219.45447517740962 162.48658924904447 L 219.49021581834643 158.09465661047955 L 219.33451669002815 153.64004512592555 L 218.982177102721 148.99619300441185 L 218.42646715091837 144.18428364301099 L 217.62668422157284 139.01417187562305 L 216.59752464617608 133.69693856355013 L 215.33981356768234 128.26075916725063 L 213.85828691686527 122.73586778577345 L 212.07353440582892 116.8807305708167 L 210.05671302140584 110.97267541372076 L 207.70245996320028 104.74272394034847 L 205.1160137473583 98.50129779465942 L 202.1621198806168 91.95117006028016 L 198.9852944424649 85.43584549736102 L 195.41635699999352 78.62936588281457 L 191.64414513963357 71.90778220738059 L 187.46150940604306 64.91627251061254 L 182.8373121326848 57.651583068783 L 178.03485699595063 50.53736496099481 L 172.77974021406692 43.17576246636162 L 167.04096851401448 35.56605304967246 L 161.16872115184572 28.17740155526917 L 154.8104794839468 20.569858324514144 L 147.93618338046986 12.745014494133954 L 140.51430500809033 4.7053190868650745 L 136.58775604238892 0.6059217759055855"
             stroke-linecap="round"
             stroke-linejoin="round"
             stroke-miterlimit="10"
             stroke-width="2.5"
             stroke-opacity="0.9"
             stroke-dasharray=""
             id="path287" />
        </g>
        <g
           id="g293">
          <path
             fill="none"
             stroke="#c74440"
             class="dcg-svg-curve"
             paint-order="fill stroke markers"
             d=" M 196.60860003358488 208.64102398707624 L 196.60860003358488 208.64102398707624 L 197.0414050195425 210.7320442625312 L 197.70835808089274 212.95982904941278 L 198.64575252178307 215.3651316130733 L 199.8707159601978 217.91579381177112 L 201.38957544664393 220.57330850688948 L 203.24435556798898 223.3620400389975 L 205.44818788840388 226.2518546029484 L 208.07809221782531 229.28772828739548 L 211.17167053540211 232.44842918844083 L 214.66217687198008 235.62069258653145 L 218.77012867343592 238.94732572989022 L 223.43883448297728 242.31223942520978 L 228.5332330393063 245.58236489504537 L 233.82504860860314 248.6171159321831 L 239.59565345887526 251.57562847701038 L 245.61334887771784 254.32914514844202 L 252.04556176234877 256.9491308509774 L 258.5976007603434 259.31710946334897 L 265.4680667677092 261.51104317822694 L 272.6235102999867 263.51389854458097 L 280.0255783083208 265.31189678667874 L 288.0072226415392 266.96653307195527 L 296.19893884860096 268.38380430401196 L 304.5501732964981 269.55865768903783 L 313.0066179876085 270.4904833630184 L 321.9977667822059 271.21573358336 L 331.0320974907581 271.6860608648803 L 340.5915458984706 271.9183346914366 L 350.1225764518533 271.8931429814081 L 360.1618112802335 271.60370075972133 L 370.0925146529236 271.0647290012 L 380.5077456494473 270.24167621710524 L 391.4244728090289 269.1077422267065 L 396.36260895384214 268.50665176836776"
             stroke-linecap="round"
             stroke-linejoin="round"
             stroke-miterlimit="10"
             stroke-width="2.5"
             stroke-opacity="0.9"
             stroke-dasharray=""
             id="path291" />
        </g>
        <g
           id="g297">
          <path
             fill="none"
             stroke="#c74440"
             class="dcg-svg-curve"
             paint-order="fill stroke markers"
             d=" M 202.67149441911366 208.54765916951007 L 202.67149441911366 208.54765916951007 L 204.58717101816086 210.21092864237335 L 207.03348949858486 211.92507676366694 L 209.84953727622417 213.51989099795688 L 212.9898605891555 214.9575257750905 L 216.41992178382066 216.21640090013284 L 220.12718451958207 217.2866759459943 L 224.13033073784925 218.16382400488737 L 228.48713359312183 218.84088016360732 L 233.03380932785626 219.28103725049095 L 237.8344539960786 219.48597215103598 L 243.00474061660344 219.4399533694742 L 248.35571643011934 219.12855134364816 L 254.02221211178895 218.53093931905414 L 259.77191763581936 217.66378017953295 L 265.76233096651015 216.4991634266836 L 271.96652973377894 215.02810822423794 L 278.3544272455747 213.2460510208413 L 285.17443028065276 211.05722701090625 L 292.14425178091176 208.52671786529942 L 299.22596813002394 205.6616739015575 L 306.71387495114556 202.31904581038418 L 314.2668188034371 198.62862869462063 L 321.84118254982684 194.612025672351 L 329.7788696135731 190.06800683644462 L 337.68174874096195 185.20662365992104 L 345.9235466922444 179.77998252974436 L 354.50711315321485 173.74135367804556 L 362.97944653846577 167.3925087043587 L 371.76159551999297 160.40112139786453 L 380.36606110088735 153.14149164068138 L 388.7444503993215 145.6771912204835 L 396.85063855341696 138.0774889755504 L 398.3940782240944 136.5877560423889"
             stroke-linecap="round"
             stroke-linejoin="round"
             stroke-miterlimit="10"
             stroke-width="2.5"
             stroke-opacity="0.9"
             stroke-dasharray=""
             id="path295" />
        </g>
        <g
           id="g301">
          <path
             fill="none"
             stroke="#c74440"
             class="dcg-svg-curve"
             paint-order="fill stroke markers"
             d=" M 205.65625920309495 205.46952956796258 L 205.65625920309495 205.46952956796258 L 207.96203458324052 206.05550279222237 L 210.54143161651808 206.43103705075373 L 213.38758622016206 206.57609788787585 L 216.4748987813606 206.47007638441022 L 219.79505835230484 206.0942806784928 L 223.3632674013051 205.42377930147575 L 227.13034374018346 204.44514279944343 L 231.14094182996067 203.12149261965584 L 235.36013185881802 201.4347350740664 L 239.74696957252138 199.376038941735 L 244.38960173357356 196.8700576624896 L 249.12425019602225 193.97500242888816 L 254.0516869720177 190.60129889982377 L 259.14534298357455 186.7259251011513 L 264.2023522583899 182.48300746996304 L 269.16478462669323 177.92725538806792 L 273.97696809732224 173.12625566474847 L 278.78225971367254 167.9402465795998 L 283.3492939069672 162.63101582772418 L 287.8399063232178 157.02943227228474 L 292.2282705017635 151.16806941844771 L 296.4902029372354 145.08457679726763 L 300.82153025616304 138.4780410944689 L 304.9889713541306 131.68528555549574 L 308.97286660518455 124.75655363805629 L 312.97926121698146 117.31894485936414 L 316.7714698234532 109.80074588134744 L 320.3363769515512 102.2630137789298 L 323.8851346149903 94.25465378363572 L 327.1858920270545 86.29876585123827 L 330.44934592088646 77.88907020306357 L 333.4503649962311 69.61257354427335"
             stroke-linecap="round"
             stroke-linejoin="round"
             stroke-miterlimit="10"
             stroke-width="2.5"
             stroke-opacity="0.9"
             stroke-dasharray=""
             id="path299" />
        </g>
        <g
           id="g305">
          <path
             fill="none"
             stroke="#c74440"
             class="dcg-svg-curve"
             paint-order="fill stroke markers"
             d=" M 208.64102398707624 202.39139996641512 L 208.64102398707624 202.39139996641512 L 211.04241071641053 201.87790882890448 L 213.6818242261068 201.03320634488537 L 216.49863361114254 199.83852818261545 L 219.47868800685114 198.26559573411538 L 222.6914603678452 196.22595879987557 L 226.0327508666559 193.72903951115393 L 229.36632948649245 190.84944214167322 L 232.61568985945667 187.6541577237702 L 235.79672239944696 184.13226923754848 L 238.8555529734738 180.3497168337929 L 241.74368230072156 176.38883205121897 L 244.61289807421554 172.03881468291036 L 247.34003418186938 167.47345053263263 L 249.89821055684064 162.75642256806975 L 252.36437184811484 157.74967639469492 L 254.72018759865034 152.47397423373977 L 256.9491308509774 146.95443823765123 L 259.03683130530897 141.22038322886078 L 260.97137967075867 135.30507486599447 L 262.7435734594599 129.24541724433232 L 264.4290084977702 122.74576223155157 L 265.9317283473569 116.14088036258721 L 267.24960660792834 109.47658085858285 L 268.44683587600497 102.39647605546605 L 269.4496596357446 95.30989717821637 L 270.31055080339746 87.81727596638734 L 270.974348172514 80.37857520318312 L 271.4789363522008 72.54930416979414 L 271.8062149843682 64.31397862998898 L 271.93476392710147 56.21054062341216 L 271.87333222140876 47.72309544980942 L 271.60370075972133 38.83818871976649 L 271.14710535933665 30.174974849092962 L 270.4755078535499 21.142411552654153 L 269.5711733246678 11.72915306705363 L 268.50665176836776 2.637391046157859"
             stroke-linecap="round"
             stroke-linejoin="round"
             stroke-miterlimit="10"
             stroke-width="2.5"
             stroke-opacity="0.9"
             stroke-dasharray=""
             id="path303" />
        </g>
        <g
           id="g309">
          <path
             fill="none"
             stroke="#c74440"
             class="dcg-svg-curve"
             paint-order="fill stroke markers"
             d=" M 211.62578877105753 199.31327036486766 L 211.62578877105753 199.31327036486766 L 214.13126632538305 197.8482157114801 L 216.79483943181066 195.93509802688956 L 219.5566585362643 193.55897245423017 L 222.18006790390191 190.91397273748242 L 224.68644839407364 188.0062817592373 L 227.13429070008664 184.77019956062168 L 229.47958416775336 181.25528295368068 L 231.68342502430787 177.52660431275962 L 233.77935845629105 173.53045592412937 L 235.74213195692852 169.31051030327652 L 237.55108417531227 164.91900778963486 L 239.25285503853365 160.23390783310379 L 240.82984029001045 155.27029260786554 L 242.26619972537554 150.04731693132305 L 243.54825237835604 144.5881197677848 L 244.6648327300147 138.9196666764779 L 245.60759679848996 133.07252587248973 L 246.37126808472584 127.08058211757668 L 246.95381481187627 120.98069404102756 L 247.37329882786892 114.47723578037039 L 247.59939547479956 107.90684431793557 L 247.6352087695505 100.93644901173997 L 247.47207704758017 93.94760892976933 L 247.0949639942914 86.5679830320417 L 246.52111181612494 79.22523207549506 L 245.71407583262808 71.50625202458292 L 244.7210762561988 63.8854174755831 L 243.48098962537392 55.90775166007404 L 241.9721777373103 47.56173835027221 L 240.29315604916277 39.39255919829009 L 238.33759958454706 30.880008077689013 L 236.08420377742544 22.014634387223282 L 233.69245641394102 13.413685517115937 L 231.00230904389838 4.489672606373915 L 227.9934140130663 -4.7648447169619885 L 227.7367431767434 -5.5"
             stroke-linecap="round"
             stroke-linejoin="round"
             stroke-miterlimit="10"
             stroke-width="2.5"
             stroke-opacity="0.9"
             stroke-dasharray=""
             id="path307" />
        </g>
        <g
           id="g313">
          <path
             fill="none"
             stroke="#c74440"
             class="dcg-svg-curve"
             paint-order="fill stroke markers"
             d=" M 199.68672963513234 211.62578877105753 L 199.68672963513234 211.62578877105753 L 200.9355938629872 213.79392804295628 L 202.52160262485302 216.08821269208596 L 204.50270623246084 218.5215325683891 L 206.91254940621332 221.0636337236222 L 209.7779805983257 223.6789487392677 L 213.11734578053165 226.32764979368767 L 217.03825293327762 229.03091684444865 L 221.35638573246536 231.61814947746996 L 226.00474610523327 234.04167951746035 L 230.89788067188027 236.26220863335843 L 236.10651033190493 238.31394278884375 L 241.57339853932115 240.17156476659818 L 247.44390491074154 241.87331632217874 L 253.47047389002498 243.34219492107007 L 259.8246214127812 244.6188924334991 L 266.4805019120639 245.68641563550486 L 273.4076346390893 246.53098331284434 L 280.5711469268628 247.1424454975879 L 287.9320927687286 247.51463169175233 L 295.81807385926754 247.64586066348863 L 303.8608711454559 247.5135145515875 L 312.0115171518457 247.12192116401792 L 320.6630927945287 246.43869672538023 L 329.3661318880422 245.48785713857592 L 338.56022615350116 244.2101863602819 L 347.7408176435075 242.6667914834027 L 357.3958102265643 240.76708252308518 L 366.9648054948275 238.6150716343124 L 376.9853656127767 236.08420377742544 L 386.841219248426 233.32688241074283 L 397.1204279316694 230.17606595941925 L 405.5 227.37989483713454"
             stroke-linecap="round"
             stroke-linejoin="round"
             stroke-miterlimit="10"
             stroke-width="2.5"
             stroke-opacity="0.9"
             stroke-dasharray=""
             id="path311" />
        </g>
      </g>
      <g
         id="g368">
        <title
           id="title316">Expression 4</title>
        <path
           fill="#c74440"
           stroke="none"
           paint-order="stroke fill markers"
           d=""
           fill-opacity="0.4"
           id="path318" />
        <path
           fill="#c74440"
           stroke="none"
           paint-order="stroke fill markers"
           d=""
           fill-opacity="0.4"
           id="path320" />
        <path
           fill="#c74440"
           stroke="none"
           paint-order="stroke fill markers"
           d=""
           fill-opacity="0.4"
           id="path322" />
        <path
           fill="#c74440"
           stroke="none"
           paint-order="stroke fill markers"
           d=""
           fill-opacity="0.4"
           id="path324" />
        <path
           fill="#c74440"
           stroke="none"
           paint-order="stroke fill markers"
           d=""
           fill-opacity="0.4"
           id="path326" />
        <path
           fill="#c74440"
           stroke="none"
           paint-order="stroke fill markers"
           d=""
           fill-opacity="0.4"
           id="path328" />
        <path
           fill="#c74440"
           stroke="none"
           paint-order="stroke fill markers"
           d=""
           fill-opacity="0.4"
           id="path330" />
        <path
           fill="#c74440"
           stroke="none"
           paint-order="stroke fill markers"
           d=""
           fill-opacity="0.4"
           id="path332" />
        <path
           fill="#c74440"
           stroke="none"
           paint-order="stroke fill markers"
           d=""
           fill-opacity="0.4"
           id="path334" />
        <path
           fill="#c74440"
           stroke="none"
           paint-order="stroke fill markers"
           d=""
           fill-opacity="0.4"
           id="path336" />
        <path
           fill="#c74440"
           stroke="none"
           paint-order="stroke fill markers"
           d=""
           fill-opacity="0.4"
           id="path338" />
        <path
           fill="#c74440"
           stroke="none"
           paint-order="stroke fill markers"
           d=""
           fill-opacity="0.4"
           id="path340" />
        <path
           fill="#c74440"
           stroke="none"
           paint-order="stroke fill markers"
           d=""
           fill-opacity="0.4"
           id="path342" />
        <path
           fill="#c74440"
           stroke="none"
           paint-order="stroke fill markers"
           d=""
           fill-opacity="0.4"
           id="path344" />
        <path
           fill="#c74440"
           stroke="none"
           paint-order="stroke fill markers"
           d=""
           fill-opacity="0.4"
           id="path346" />
        <path
           fill="#c74440"
           stroke="none"
           paint-order="stroke fill markers"
           d=""
           fill-opacity="0.4"
           id="path348" />
        <path
           fill="#c74440"
           stroke="none"
           paint-order="stroke fill markers"
           d=""
           fill-opacity="0.4"
           id="path350" />
        <path
           fill="#c74440"
           stroke="none"
           paint-order="stroke fill markers"
           d=""
           fill-opacity="0.4"
           id="path352" />
        <path
           fill="#c74440"
           stroke="none"
           paint-order="stroke fill markers"
           d=""
           fill-opacity="0.4"
           id="path354" />
        <path
           fill="#c74440"
           stroke="none"
           paint-order="stroke fill markers"
           d=""
           fill-opacity="0.4"
           id="path356" />
        <path
           fill="#c74440"
           stroke="none"
           paint-order="stroke fill markers"
           d=""
           fill-opacity="0.4"
           id="path358" />
        <path
           fill="#c74440"
           stroke="none"
           paint-order="stroke fill markers"
           d=""
           fill-opacity="0.4"
           id="path360" />
        <path
           fill="#c74440"
           stroke="none"
           paint-order="stroke fill markers"
           d=""
           fill-opacity="0.4"
           id="path362" />
        <path
           fill="#c74440"
           stroke="none"
           paint-order="stroke fill markers"
           d=""
           fill-opacity="0.4"
           id="path364" />
        <path
           fill="#c74440"
           stroke="none"
           paint-order="stroke fill markers"
           d=""
           fill-opacity="0.4"
           id="path366" />
      </g>
    </g>
    <g
       id="labels-7a127db6" />
  </g>
  <path
     sodipodi:type="star"
     style="fill:#c7443f;fill-opacity:1;stroke-width:5;stroke-linejoin:bevel"
     id="path3584"
     inkscape:flatsided="true"
     sodipodi:sides="3"
     sodipodi:cx="374.12381"
     sodipodi:cy="323.83176"
     sodipodi:r1="12.157725"
     sodipodi:r2="6.0788627"
     sodipodi:arg1="0.87605805"
     sodipodi:arg2="1.9232556"
     inkscape:rounded="0"
     inkscape:randomized="0"
     inkscape:transform-center-x="1.419634"
     inkscape:transform-center-y="1.7259644"
     transform="rotate(26.300243,362.31235,671.15439)"
     d="m 381.907,333.17158 -19.76331,-7.2693 16.17705,-13.48087 z"
     inkscape:export-filename="C:\Users\Rishibh P\Desktop\OneDrive - University of Toronto\Courses\MAT267\images\spiral.png"
     inkscape:export-xdpi="150"
     inkscape:export-ydpi="150" />
  <path
     sodipodi:type="star"
     style="fill:#c7443f;fill-opacity:1;stroke-width:5;stroke-linejoin:bevel"
     id="path1210"
     inkscape:flatsided="true"
     sodipodi:sides="3"
     sodipodi:cx="374.12381"
     sodipodi:cy="323.83176"
     sodipodi:r1="12.157725"
     sodipodi:r2="6.0788627"
     sodipodi:arg1="0.87605805"
     sodipodi:arg2="1.9232556"
     inkscape:rounded="0"
     inkscape:randomized="0"
     inkscape:transform-center-x="-1.2341297"
     inkscape:transform-center-y="-1.907352"
     transform="rotate(-31.907908,289.00649,167.77089)"
     d="m 381.907,333.17158 -19.76331,-7.2693 16.17705,-13.48087 z"
     inkscape:export-filename="C:\Users\Rishibh P\Desktop\OneDrive - University of Toronto\Courses\MAT267\images\spiral.png"
     inkscape:export-xdpi="150"
     inkscape:export-ydpi="150" />
  <path
     sodipodi:type="star"
     style="fill:#c7443f;fill-opacity:1;stroke-width:5;stroke-linejoin:bevel"
     id="path1212"
     inkscape:flatsided="true"
     sodipodi:sides="3"
     sodipodi:cx="374.12381"
     sodipodi:cy="323.83176"
     sodipodi:r1="12.157725"
     sodipodi:r2="6.0788627"
     sodipodi:arg1="0.87605805"
     sodipodi:arg2="1.9232556"
     inkscape:rounded="0"
     inkscape:randomized="0"
     inkscape:transform-center-x="2.089628"
     inkscape:transform-center-y="1.04454"
     transform="rotate(19.699838,-352.395,461.73619)"
     d="m 381.907,333.17158 -19.76331,-7.2693 16.17705,-13.48087 z"
     inkscape:export-filename="C:\Users\Rishibh P\Desktop\OneDrive - University of Toronto\Courses\MAT267\images\spiral.png"
     inkscape:export-xdpi="150"
     inkscape:export-ydpi="150" />
  <path
     sodipodi:type="star"
     style="fill:#c7443f;fill-opacity:1;stroke-width:5;stroke-linejoin:bevel"
     id="path1214"
     inkscape:flatsided="true"
     sodipodi:sides="3"
     sodipodi:cx="374.12381"
     sodipodi:cy="323.83176"
     sodipodi:r1="12.157725"
     sodipodi:r2="6.0788627"
     sodipodi:arg1="0.87605805"
     sodipodi:arg2="1.9232556"
     inkscape:rounded="0"
     inkscape:randomized="0"
     inkscape:transform-center-x="2.6257222"
     inkscape:transform-center-y="0.46733613"
     transform="rotate(14.21462,383.57632,-280.27995)"
     d="m 381.907,333.17158 -19.76331,-7.2693 16.17705,-13.48087 z"
     inkscape:export-filename="C:\Users\Rishibh P\Desktop\OneDrive - University of Toronto\Courses\MAT267\images\spiral.png"
     inkscape:export-xdpi="150"
     inkscape:export-ydpi="150" />
  <path
     sodipodi:type="star"
     style="fill:#c7443f;fill-opacity:1;stroke-width:5;stroke-linejoin:bevel"
     id="path1216"
     inkscape:flatsided="true"
     sodipodi:sides="3"
     sodipodi:cx="374.12381"
     sodipodi:cy="323.83176"
     sodipodi:r1="12.157725"
     sodipodi:r2="6.0788627"
     sodipodi:arg1="0.87605805"
     sodipodi:arg2="1.9232556"
     inkscape:rounded="0"
     inkscape:randomized="0"
     inkscape:transform-center-x="-0.56150591"
     inkscape:transform-center-y="2.5401806"
     transform="rotate(-74.894626,266.37942,315.81238)"
     d="m 381.907,333.17158 -19.76331,-7.2693 16.17705,-13.48087 z"
     inkscape:export-filename="C:\Users\Rishibh P\Desktop\OneDrive - University of Toronto\Courses\MAT267\images\spiral.png"
     inkscape:export-xdpi="150"
     inkscape:export-ydpi="150" />
  <path
     sodipodi:type="star"
     style="fill:#c7443f;fill-opacity:1;stroke-width:5;stroke-linejoin:bevel"
     id="path1218"
     inkscape:flatsided="true"
     sodipodi:sides="3"
     sodipodi:cx="374.12381"
     sodipodi:cy="323.83176"
     sodipodi:r1="12.157725"
     sodipodi:r2="6.0788627"
     sodipodi:arg1="0.87605805"
     sodipodi:arg2="1.9232556"
     inkscape:rounded="0"
     inkscape:randomized="0"
     inkscape:transform-center-x="-1.8494637"
     inkscape:transform-center-y="-1.2936644"
     transform="rotate(-37.907082,502.12212,575.62194)"
     d="m 381.907,333.17158 -19.76331,-7.2693 16.17705,-13.48087 z"
     inkscape:export-filename="C:\Users\Rishibh P\Desktop\OneDrive - University of Toronto\Courses\MAT267\images\spiral.png"
     inkscape:export-xdpi="150"
     inkscape:export-ydpi="150" />
  <path
     sodipodi:type="star"
     style="fill:#c7443f;fill-opacity:1;stroke-width:5;stroke-linejoin:bevel"
     id="path1220"
     inkscape:flatsided="true"
     sodipodi:sides="3"
     sodipodi:cx="374.12381"
     sodipodi:cy="323.83176"
     sodipodi:r1="12.157725"
     sodipodi:r2="6.0788627"
     sodipodi:arg1="0.87605805"
     sodipodi:arg2="1.9232556"
     inkscape:rounded="0"
     inkscape:randomized="0"
     inkscape:transform-center-x="-2.0676559"
     inkscape:transform-center-y="-1.0675695"
     transform="rotate(-40.07971,685.54756,185.57874)"
     d="m 381.907,333.17158 -19.76331,-7.2693 16.17705,-13.48087 z"
     inkscape:export-filename="C:\Users\Rishibh P\Desktop\OneDrive - University of Toronto\Courses\MAT267\images\spiral.png"
     inkscape:export-xdpi="150"
     inkscape:export-ydpi="150" />
</svg>
