<svg version="1.1" xmlns="http://www.w3.org/2000/svg" xmlns:xlink="http://www.w3.org/1999/xlink" width="800" height="800"><defs/><g transform="scale(2,2)"><g id="background-1f2a7da3"><rect fill="white" stroke="none" x="0" y="0" width="400" height="400" class="dcg-svg-background"/></g><g id="background-images-1f2a7da3"/><g id="graphpaper-1f2a7da3"><g id="grid-1f2a7da3"><g><path fill="none" stroke="rgb(0,0,0)" class="dcg-svg-minor-gridline" paint-order="fill stroke markers" d=" M 0.5 0 L 0.5 400" stroke-opacity="0.2" stroke-miterlimit="10" stroke-dasharray=""/><path fill="none" stroke="rgb(0,0,0)" class="dcg-svg-minor-gridline" paint-order="fill stroke markers" d=" M 25.5 0 L 25.5 400" stroke-opacity="0.2" stroke-miterlimit="10" stroke-dasharray=""/><path fill="none" stroke="rgb(0,0,0)" class="dcg-svg-minor-gridline" paint-order="fill stroke markers" d=" M 50.5 0 L 50.5 400" stroke-opacity="0.2" stroke-miterlimit="10" stroke-dasharray=""/><path fill="none" stroke="rgb(0,0,0)" class="dcg-svg-minor-gridline" paint-order="fill stroke markers" d=" M 75.5 0 L 75.5 400" stroke-opacity="0.2" stroke-miterlimit="10" stroke-dasharray=""/><path fill="none" stroke="rgb(0,0,0)" class="dcg-svg-minor-gridline" paint-order="fill stroke markers" d=" M 100.5 0 L 100.5 400" stroke-opacity="0.2" stroke-miterlimit="10" stroke-dasharray=""/><path fill="none" stroke="rgb(0,0,0)" class="dcg-svg-minor-gridline" paint-order="fill stroke markers" d=" M 125.5 0 L 125.5 400" stroke-opacity="0.2" stroke-miterlimit="10" stroke-dasharray=""/><path fill="none" stroke="rgb(0,0,0)" class="dcg-svg-minor-gridline" paint-order="fill stroke markers" d=" M 149.5 0 L 149.5 400" stroke-opacity="0.2" stroke-miterlimit="10" stroke-dasharray=""/><path fill="none" stroke="rgb(0,0,0)" class="dcg-svg-minor-gridline" paint-order="fill stroke markers" d=" M 174.5 0 L 174.5 400" stroke-opacity="0.2" stroke-miterlimit="10" stroke-dasharray=""/><path fill="none" stroke="rgb(0,0,0)" class="dcg-svg-minor-gridline" paint-order="fill stroke markers" d=" M 224.5 0 L 224.5 400" stroke-opacity="0.2" stroke-miterlimit="10" stroke-dasharray=""/><path fill="none" stroke="rgb(0,0,0)" class="dcg-svg-minor-gridline" paint-order="fill stroke markers" d=" M 249.5 0 L 249.5 400" stroke-opacity="0.2" stroke-miterlimit="10" stroke-dasharray=""/><path fill="none" stroke="rgb(0,0,0)" class="dcg-svg-minor-gridline" paint-order="fill stroke markers" d=" M 273.5 0 L 273.5 400" stroke-opacity="0.2" stroke-miterlimit="10" stroke-dasharray=""/><path fill="none" stroke="rgb(0,0,0)" class="dcg-svg-minor-gridline" paint-order="fill stroke markers" d=" M 298.5 0 L 298.5 400" stroke-opacity="0.2" stroke-miterlimit="10" stroke-dasharray=""/><path fill="none" stroke="rgb(0,0,0)" class="dcg-svg-minor-gridline" paint-order="fill stroke markers" d=" M 323.5 0 L 323.5 400" stroke-opacity="0.2" stroke-miterlimit="10" stroke-dasharray=""/><path fill="none" stroke="rgb(0,0,0)" class="dcg-svg-minor-gridline" paint-order="fill stroke markers" d=" M 348.5 0 L 348.5 400" stroke-opacity="0.2" stroke-miterlimit="10" stroke-dasharray=""/><path fill="none" stroke="rgb(0,0,0)" class="dcg-svg-minor-gridline" paint-order="fill stroke markers" d=" M 373.5 0 L 373.5 400" stroke-opacity="0.2" stroke-miterlimit="10" stroke-dasharray=""/><path fill="none" stroke="rgb(0,0,0)" class="dcg-svg-minor-gridline" paint-order="fill stroke markers" d=" M 398.5 0 L 398.5 400" stroke-opacity="0.2" stroke-miterlimit="10" stroke-dasharray=""/><path fill="none" stroke="rgb(0,0,0)" class="dcg-svg-minor-gridline" paint-order="fill stroke markers" d=" M 0 398.5 L 400 398.5" stroke-opacity="0.2" stroke-miterlimit="10" stroke-dasharray=""/><path fill="none" stroke="rgb(0,0,0)" class="dcg-svg-minor-gridline" paint-order="fill stroke markers" d=" M 0 373.5 L 400 373.5" stroke-opacity="0.2" stroke-miterlimit="10" stroke-dasharray=""/><path fill="none" stroke="rgb(0,0,0)" class="dcg-svg-minor-gridline" paint-order="fill stroke markers" d=" M 0 348.5 L 400 348.5" stroke-opacity="0.2" stroke-miterlimit="10" stroke-dasharray=""/><path fill="none" stroke="rgb(0,0,0)" class="dcg-svg-minor-gridline" paint-order="fill stroke markers" d=" M 0 323.5 L 400 323.5" stroke-opacity="0.2" stroke-miterlimit="10" stroke-dasharray=""/><path fill="none" stroke="rgb(0,0,0)" class="dcg-svg-minor-gridline" paint-order="fill stroke markers" d=" M 0 298.5 L 400 298.5" stroke-opacity="0.2" stroke-miterlimit="10" stroke-dasharray=""/><path fill="none" stroke="rgb(0,0,0)" class="dcg-svg-minor-gridline" paint-order="fill stroke markers" d=" M 0 273.5 L 400 273.5" stroke-opacity="0.2" stroke-miterlimit="10" stroke-dasharray=""/><path fill="none" stroke="rgb(0,0,0)" class="dcg-svg-minor-gridline" paint-order="fill stroke markers" d=" M 0 249.5 L 400 249.5" stroke-opacity="0.2" stroke-miterlimit="10" stroke-dasharray=""/><path fill="none" stroke="rgb(0,0,0)" class="dcg-svg-minor-gridline" paint-order="fill stroke markers" d=" M 0 224.5 L 400 224.5" stroke-opacity="0.2" stroke-miterlimit="10" stroke-dasharray=""/><path fill="none" stroke="rgb(0,0,0)" class="dcg-svg-minor-gridline" paint-order="fill stroke markers" d=" M 0 174.5 L 400 174.5" stroke-opacity="0.2" stroke-miterlimit="10" stroke-dasharray=""/><path fill="none" stroke="rgb(0,0,0)" class="dcg-svg-minor-gridline" paint-order="fill stroke markers" d=" M 0 149.5 L 400 149.5" stroke-opacity="0.2" stroke-miterlimit="10" stroke-dasharray=""/><path fill="none" stroke="rgb(0,0,0)" class="dcg-svg-minor-gridline" paint-order="fill stroke markers" d=" M 0 125.5 L 400 125.5" stroke-opacity="0.2" stroke-miterlimit="10" stroke-dasharray=""/><path fill="none" stroke="rgb(0,0,0)" class="dcg-svg-minor-gridline" paint-order="fill stroke markers" d=" M 0 100.5 L 400 100.5" stroke-opacity="0.2" stroke-miterlimit="10" stroke-dasharray=""/><path fill="none" stroke="rgb(0,0,0)" class="dcg-svg-minor-gridline" paint-order="fill stroke markers" d=" M 0 75.5 L 400 75.5" stroke-opacity="0.2" stroke-miterlimit="10" stroke-dasharray=""/><path fill="none" stroke="rgb(0,0,0)" class="dcg-svg-minor-gridline" paint-order="fill stroke markers" d=" M 0 50.5 L 400 50.5" stroke-opacity="0.2" stroke-miterlimit="10" stroke-dasharray=""/><path fill="none" stroke="rgb(0,0,0)" class="dcg-svg-minor-gridline" paint-order="fill stroke markers" d=" M 0 25.5 L 400 25.5" stroke-opacity="0.2" stroke-miterlimit="10" stroke-dasharray=""/><path fill="none" stroke="rgb(0,0,0)" class="dcg-svg-minor-gridline" paint-order="fill stroke markers" d=" M 0 0.5 L 400 0.5" stroke-opacity="0.2" stroke-miterlimit="10" stroke-dasharray=""/><path fill="none" stroke="rgb(0,0,0)" class="dcg-svg-major-gridline" paint-order="fill stroke markers" d=" M 0.5 0 L 0.5 400" stroke-opacity="0.2500000000000001" stroke-miterlimit="10" stroke-dasharray=""/><path fill="none" stroke="rgb(0,0,0)" class="dcg-svg-major-gridline" paint-order="fill stroke markers" d=" M 100.5 0 L 100.5 400" stroke-opacity="0.2500000000000001" stroke-miterlimit="10" stroke-dasharray=""/><path fill="none" stroke="rgb(0,0,0)" class="dcg-svg-major-gridline" paint-order="fill stroke markers" d=" M 298.5 0 L 298.5 400" stroke-opacity="0.2500000000000001" stroke-miterlimit="10" stroke-dasharray=""/><path fill="none" stroke="rgb(0,0,0)" class="dcg-svg-major-gridline" paint-order="fill stroke markers" d=" M 398.5 0 L 398.5 400" stroke-opacity="0.2500000000000001" stroke-miterlimit="10" stroke-dasharray=""/><path fill="none" stroke="rgb(0,0,0)" class="dcg-svg-major-gridline" paint-order="fill stroke markers" d=" M 0 398.5 L 400 398.5" stroke-opacity="0.2500000000000001" stroke-miterlimit="10" stroke-dasharray=""/><path fill="none" stroke="rgb(0,0,0)" class="dcg-svg-major-gridline" paint-order="fill stroke markers" d=" M 0 298.5 L 400 298.5" stroke-opacity="0.2500000000000001" stroke-miterlimit="10" stroke-dasharray=""/><path fill="none" stroke="rgb(0,0,0)" class="dcg-svg-major-gridline" paint-order="fill stroke markers" d=" M 0 100.5 L 400 100.5" stroke-opacity="0.2500000000000001" stroke-miterlimit="10" stroke-dasharray=""/><path fill="none" stroke="rgb(0,0,0)" class="dcg-svg-major-gridline" paint-order="fill stroke markers" d=" M 0 0.5 L 400 0.5" stroke-opacity="0.2500000000000001" stroke-miterlimit="10" stroke-dasharray=""/></g></g><g id="axis-1f2a7da3"><g id="yaxis-1f2a7da3"><title>Y axis</title><path fill="none" stroke="rgb(0,0,0)" class="dcg-svg-axis-line" paint-order="fill stroke markers" d=" M 200 0 L 200 400" stroke-opacity="0.9" stroke-miterlimit="10" stroke-width="1.5" stroke-dasharray=""/></g><g id="xaxis-1f2a7da3"><title>X axis</title><path fill="none" stroke="rgb(0,0,0)" class="dcg-svg-axis-line" paint-order="fill stroke markers" d=" M 0 200 L 400 200" stroke-opacity="0.9" stroke-miterlimit="10" stroke-width="1.5" stroke-dasharray=""/></g><g><g class="dcg-svg-axis-value"><text fill="none" stroke="#ffffff" font-family="Arial" font-size="14px" font-style="normal" font-weight="normal" text-decoration="normal" x="191.10693359375003" y="215.80799999999996" text-anchor="middle" stroke-miterlimit="2" stroke-width="3" stroke-dasharray="">0</text><text fill="#000000" stroke="none" font-family="Arial" font-size="14px" font-style="normal" font-weight="normal" text-decoration="normal" x="191.10693359375003" y="215.80799999999996" text-anchor="middle">0</text></g><g class="dcg-svg-axis-value dcg-svg-offcenter-axis-value"><text fill="none" stroke="#ffffff" font-family="Arial" font-size="14px" font-style="normal" font-weight="normal" text-decoration="normal" x="9.22412109375" y="215.80799999999996" text-anchor="middle" stroke-miterlimit="2" stroke-width="3" stroke-dasharray="">-4</text><text fill="#000000" stroke="none" font-family="Arial" font-size="14px" font-style="normal" font-weight="normal" text-decoration="normal" x="9.22412109375" y="215.80799999999996" text-anchor="middle">-4</text></g><g class="dcg-svg-axis-value"><text fill="none" stroke="#ffffff" font-family="Arial" font-size="14px" font-style="normal" font-weight="normal" text-decoration="normal" x="98.35869599987508" y="215.80799999999996" text-anchor="middle" stroke-miterlimit="2" stroke-width="3" stroke-dasharray="">-2</text><text fill="#000000" stroke="none" font-family="Arial" font-size="14px" font-style="normal" font-weight="normal" text-decoration="normal" x="98.35869599987508" y="215.80799999999996" text-anchor="middle">-2</text></g><g class="dcg-svg-axis-value"><text fill="none" stroke="#ffffff" font-family="Arial" font-size="14px" font-style="normal" font-weight="normal" text-decoration="normal" x="299.310249312625" y="215.80799999999996" text-anchor="middle" stroke-miterlimit="2" stroke-width="3" stroke-dasharray="">2</text><text fill="#000000" stroke="none" font-family="Arial" font-size="14px" font-style="normal" font-weight="normal" text-decoration="normal" x="299.310249312625" y="215.80799999999996" text-anchor="middle">2</text></g><g class="dcg-svg-axis-value dcg-svg-offcenter-axis-value"><text fill="none" stroke="#ffffff" font-family="Arial" font-size="14px" font-style="normal" font-weight="normal" text-decoration="normal" x="393.10693359375" y="215.80799999999996" text-anchor="middle" stroke-miterlimit="2" stroke-width="3" stroke-dasharray="">4</text><text fill="#000000" stroke="none" font-family="Arial" font-size="14px" font-style="normal" font-weight="normal" text-decoration="normal" x="393.10693359375" y="215.80799999999996" text-anchor="middle">4</text></g><g class="dcg-svg-axis-value dcg-svg-offcenter-axis-value"><text fill="none" stroke="#ffffff" font-family="Arial" font-size="14px" font-style="normal" font-weight="normal" text-decoration="normal" x="188.77587890625003" y="393.808" text-anchor="middle" stroke-miterlimit="2" stroke-width="3" stroke-dasharray="">-4</text><text fill="#000000" stroke="none" font-family="Arial" font-size="14px" font-style="normal" font-weight="normal" text-decoration="normal" x="188.77587890625003" y="393.808" text-anchor="middle">-4</text></g><g class="dcg-svg-axis-value"><text fill="none" stroke="#ffffff" font-family="Arial" font-size="14px" font-style="normal" font-weight="normal" text-decoration="normal" x="188.77587890625003" y="303.1182493126249" text-anchor="middle" stroke-miterlimit="2" stroke-width="3" stroke-dasharray="">-2</text><text fill="#000000" stroke="none" font-family="Arial" font-size="14px" font-style="normal" font-weight="normal" text-decoration="normal" x="188.77587890625003" y="303.1182493126249" text-anchor="middle">-2</text></g><g class="dcg-svg-axis-value"><text fill="none" stroke="#ffffff" font-family="Arial" font-size="14px" font-style="normal" font-weight="normal" text-decoration="normal" x="191.10693359375003" y="104.49775068737503" text-anchor="middle" stroke-miterlimit="2" stroke-width="3" stroke-dasharray="">2</text><text fill="#000000" stroke="none" font-family="Arial" font-size="14px" font-style="normal" font-weight="normal" text-decoration="normal" x="191.10693359375003" y="104.49775068737503" text-anchor="middle">2</text></g><g class="dcg-svg-axis-value dcg-svg-offcenter-axis-value"><text fill="none" stroke="#ffffff" font-family="Arial" font-size="14px" font-style="normal" font-weight="normal" text-decoration="normal" x="191.10693359375003" y="13.808" text-anchor="middle" stroke-miterlimit="2" stroke-width="3" stroke-dasharray="">4</text><text fill="#000000" stroke="none" font-family="Arial" font-size="14px" font-style="normal" font-weight="normal" text-decoration="normal" x="191.10693359375003" y="13.808" text-anchor="middle">4</text></g></g></g></g><g id="expressions-1f2a7da3"><g id="sketch-1f2a7da3"><title>Expression 2</title><path fill="#c74440" stroke="none" paint-order="stroke fill markers" d="" fill-opacity="0.4"/><path fill="#c74440" stroke="none" paint-order="stroke fill markers" d="" fill-opacity="0.4"/><path fill="#c74440" stroke="none" paint-order="stroke fill markers" d="" fill-opacity="0.4"/><path fill="#c74440" stroke="none" paint-order="stroke fill markers" d="" fill-opacity="0.4"/><path fill="#c74440" stroke="none" paint-order="stroke fill markers" d="" fill-opacity="0.4"/><path fill="#c74440" stroke="none" paint-order="stroke fill markers" d="" fill-opacity="0.4"/><path fill="#c74440" stroke="none" paint-order="stroke fill markers" d="" fill-opacity="0.4"/><path fill="#c74440" stroke="none" paint-order="stroke fill markers" d="" fill-opacity="0.4"/><path fill="#c74440" stroke="none" paint-order="stroke fill markers" d="" fill-opacity="0.4"/><path fill="#c74440" stroke="none" paint-order="stroke fill markers" d="" fill-opacity="0.4"/><path fill="#c74440" stroke="none" paint-order="stroke fill markers" d="" fill-opacity="0.4"/><path fill="#c74440" stroke="none" paint-order="stroke fill markers" d="" fill-opacity="0.4"/><path fill="#c74440" stroke="none" paint-order="stroke fill markers" d="" fill-opacity="0.4"/><path fill="#c74440" stroke="none" paint-order="stroke fill markers" d="" fill-opacity="0.4"/><path fill="#c74440" stroke="none" paint-order="stroke fill markers" d="" fill-opacity="0.4"/><path fill="#c74440" stroke="none" paint-order="stroke fill markers" d="" fill-opacity="0.4"/><path fill="#c74440" stroke="none" paint-order="stroke fill markers" d="" fill-opacity="0.4"/><path fill="#c74440" stroke="none" paint-order="stroke fill markers" d="" fill-opacity="0.4"/><path fill="#c74440" stroke="none" paint-order="stroke fill markers" d="" fill-opacity="0.4"/><path fill="#c74440" stroke="none" paint-order="stroke fill markers" d="" fill-opacity="0.4"/><path fill="#c74440" stroke="none" paint-order="stroke fill markers" d="" fill-opacity="0.4"/><path fill="#c74440" stroke="none" paint-order="stroke fill markers" d="" fill-opacity="0.4"/><path fill="#c74440" stroke="none" paint-order="stroke fill markers" d="" fill-opacity="0.4"/><path fill="#c74440" stroke="none" paint-order="stroke fill markers" d="" fill-opacity="0.4"/><path fill="#c74440" stroke="none" paint-order="stroke fill markers" d="" fill-opacity="0.4"/><path fill="#c74440" stroke="none" paint-order="stroke fill markers" d="" fill-opacity="0.4"/><path fill="#c74440" stroke="none" paint-order="stroke fill markers" d="" fill-opacity="0.4"/><path fill="#c74440" stroke="none" paint-order="stroke fill markers" d="" fill-opacity="0.4"/><path fill="#c74440" stroke="none" paint-order="stroke fill markers" d="" fill-opacity="0.4"/><path fill="#c74440" stroke="none" paint-order="stroke fill markers" d="" fill-opacity="0.4"/><path fill="#c74440" stroke="none" paint-order="stroke fill markers" d="" fill-opacity="0.4"/><path fill="#c74440" stroke="none" paint-order="stroke fill markers" d="" fill-opacity="0.4"/><path fill="#c74440" stroke="none" paint-order="stroke fill markers" d="" fill-opacity="0.4"/><path fill="#c74440" stroke="none" paint-order="stroke fill markers" d="" fill-opacity="0.4"/><path fill="#c74440" stroke="none" paint-order="stroke fill markers" d="" fill-opacity="0.4"/><path fill="#c74440" stroke="none" paint-order="stroke fill markers" d="" fill-opacity="0.4"/><path fill="#c74440" stroke="none" paint-order="stroke fill markers" d="" fill-opacity="0.4"/><path fill="#c74440" stroke="none" paint-order="stroke fill markers" d="" fill-opacity="0.4"/><path fill="#c74440" stroke="none" paint-order="stroke fill markers" d="" fill-opacity="0.4"/><path fill="#c74440" stroke="none" paint-order="stroke fill markers" d="" fill-opacity="0.4"/><path fill="#c74440" stroke="none" paint-order="stroke fill markers" d="" fill-opacity="0.4"/><path fill="#c74440" stroke="none" paint-order="stroke fill markers" d="" fill-opacity="0.4"/><path fill="#c74440" stroke="none" paint-order="stroke fill markers" d="" fill-opacity="0.4"/><path fill="#c74440" stroke="none" paint-order="stroke fill markers" d="" fill-opacity="0.4"/><path fill="#c74440" stroke="none" paint-order="stroke fill markers" d="" fill-opacity="0.4"/><path fill="#c74440" stroke="none" paint-order="stroke fill markers" d="" fill-opacity="0.4"/><path fill="#c74440" stroke="none" paint-order="stroke fill markers" d="" fill-opacity="0.4"/><path fill="#c74440" stroke="none" paint-order="stroke fill markers" d="" fill-opacity="0.4"/><path fill="#c74440" stroke="none" paint-order="stroke fill markers" d="" fill-opacity="0.4"/><g><path fill="none" stroke="#c74440" class="dcg-svg-curve" paint-order="fill stroke markers" d=" M -5.5 227.6410790051168 L -5.5 227.6410790051168 L -2.5539424687903556 228.01343792776305 L 8.491807323353456 229.13417445802858 L 18.771714228225942 229.91630064397415 L 29.19344500377975 230.4424842751353 L 39.639368715494044 230.69089112019023 L 49.293638142018075 230.66436341507722 L 58.89446545328516 230.38758430378795 L 68.35910284658506 229.86523993373694 L 78.1695660899373 229.0583662106062 L 87.61709313482808 228.02378347899207 L 97.11686591233084 226.7285769110752 L 106.90900389288818 225.12851293619298 L 116.719164692368 223.26157689090914 L 126.93071352294773 221.04813265815946 L 137.60995396434092 218.45571401508818 L 148.96037034524204 215.41657422881323 L 161.2191213619425 211.8490634664962 L 175.45101680682808 207.4128712303953 L 194.04229273202847 201.3180153894692" stroke-linecap="round" stroke-linejoin="round" stroke-miterlimit="10" stroke-width="2.5" stroke-opacity="0.9" stroke-dasharray=""/></g><g><path fill="none" stroke="#c74440" class="dcg-svg-curve" paint-order="fill stroke markers" d=" M -5.5 157.65459258809756 L -5.5 157.65459258809756 L 5.73793279709082 163.86453025326657 L 18.887972227760567 170.8143371127448 L 32.03685010446171 177.4233862256415 L 43.95514705475538 183.08336815921646 L 54.77801524864512 187.9173170307442 L 65.47509899037807 192.37466590680492 L 75.14586685597365 196.0981316495228 L 83.90882517991719 199.19251537819386 L 92.49732230761323 201.93945728900994 L 100.82150614793157 204.30332788824154 L 108.3062387109689 206.1523510196656 L 115.51352617304023 207.66152449447196 L 122.39670589785223 208.8319890201045 L 128.92390425426706 209.67697279784295 L 135.07612782586816 210.21935303722555 L 141.1302484866646 210.49618799948098 L 146.98501970862898 210.50763329162282 L 152.78174967111627 210.25938733244845 L 158.56415829085162 209.74657052193757 L 164.2993036305614 208.9734950594653 L 170.15187842354138 207.9173774594018 L 176.24010346117095 206.54762635188274 L 182.85982704942379 204.7797503260637 L 190.6962611343111 202.39400465729787 L 196.77068872856879 200.4085500572891" stroke-linecap="round" stroke-linejoin="round" stroke-miterlimit="10" stroke-width="2.5" stroke-opacity="0.9" stroke-dasharray=""/></g><g><path fill="none" stroke="#c74440" class="dcg-svg-curve" paint-order="fill stroke markers" d=" M 50.534626031062615 50.534626031062544 L 50.534626031062615 50.534626031062544 L 199.49908472510907 199.499084725109" stroke-linecap="round" stroke-linejoin="round" stroke-miterlimit="10" stroke-width="2.5" stroke-opacity="0.9" stroke-dasharray=""/></g><g><path fill="none" stroke="#c74440" class="dcg-svg-curve" paint-order="fill stroke markers" d=" M 199.50000000000003 0.8795013747500775 L 199.50000000000003 0.8795013747500775 L 207.38877580065193 14.252513529195824 L 214.42414086030334 26.62068622006484 L 220.68086783111076 38.062973293857226 L 226.22753895858924 48.65202274082685 L 231.12704942030769 58.454683221429434 L 235.4370699846077 67.53246982477356 L 239.21047227037485 75.94199234253745 L 242.49571962445043 83.73534907729845 L 245.33722639013016 90.96048896102423 L 247.77568811665634 97.66154453586313 L 250.11665428623155 104.73011816505158 L 252.03044455190067 111.22262737284285 L 253.56286561681927 117.18956787069749 L 254.75532006743083 122.6768835804657 L 255.64521615861833 127.7263810702633 L 256.2663398793373 132.37610612436208 L 256.64919275802015 136.66068591099622 L 256.8212985501827 140.61163989498516 L 256.7938214294146 144.69330219869136 L 256.5626338209931 148.42595605065773 L 256.15589266350884 151.84289608284257 L 255.59861418405484 154.97409454837697 L 254.82978205585323 158.1508062701183 L 253.92929908775182 161.0411601647545 L 252.81461716139665 163.92494501672826 L 251.48092764571362 166.75717780238804 L 249.93114933052047 169.50044789707582 L 248.17564601108398 172.1252700786462 L 246.2315170612021 174.60997024228305 L 243.98917160114613 177.07599135177026 L 241.34608086237267 179.5774303854584 L 238.2267101268665 182.11211384746474 L 234.6045397100894 184.6358820579416 L 230.63378201692367 187.01900732989537 L 226.10055382331035 189.37782189439585 L 220.95182000327495 191.7159622272321 L 214.87534337017377 194.14919805639576 L 207.1374808172361 196.92719156645438 L 202.22748072164936 198.58961939292888" stroke-linecap="round" stroke-linejoin="round" stroke-miterlimit="10" stroke-width="2.5" stroke-opacity="0.9" stroke-dasharray=""/></g><g><path fill="none" stroke="#c74440" class="dcg-svg-curve" paint-order="fill stroke markers" d=" M 357.95943770589776 -5.5 L 357.95943770589776 -5.5 L 358.7226254307741 -0.7158928593979113 L 359.8112542500839 7.490095486711425 L 360.63132406946636 15.286591671709914 L 361.20253703114867 22.696088501391387 L 361.5433674713511 29.739795716701508 L 361.67113501501166 36.43771418266141 L 361.6020733822652 42.80870576737783 L 361.3513951570278 48.87055916192253 L 360.9333527534494 54.640051877261385 L 360.36129580225116 60.1330086406648 L 359.64772516602784 65.36435640108135 L 358.6210667499576 71.31641920532331 L 357.42624680609373 76.93482506123439 L 356.0806265242628 82.24085976507774 L 354.6002263507585 87.25437530032718 L 352.9998223223688 91.99388837876614 L 351.2930356324261 96.47667216127002 L 349.1840151955687 101.40354768561826 L 346.96546534517785 106.0266212179277 L 344.6539268143578 110.36779767448093 L 341.9174745825823 115.00981642075453 L 339.0992394502563 119.33767899634955 L 335.853240927143 123.86238475457736 L 332.5489911859055 128.05406947186322 L 328.8332462699357 132.35668512680286 L 324.7189439590433 136.6999212224273 L 320.22848564444394 141.02120246088157 L 315.3935221568238 145.26687508217967 L 310.254175405604 149.3927725387146 L 304.50276627094075 153.61396615027172 L 298.22712865107417 157.82043830691006 L 291.5344324104475 161.92272141170298 L 284.5462360444118 165.8529019465912 L 276.8183542604441 169.84891893622134 L 268.6256870789733 173.75230878582585 L 259.56455936775694 177.74280594807934 L 249.60842489622755 181.80971664111684 L 238.36772775896551 186.09142624342903 L 224.96170114473486 190.88741109344784 L 206.86364752000074 197.04244920937393 L 204.95587671818967 197.68015406074878" stroke-linecap="round" stroke-linejoin="round" stroke-miterlimit="10" stroke-width="2.5" stroke-opacity="0.9" stroke-dasharray=""/></g><g><path fill="none" stroke="#c74440" class="dcg-svg-curve" paint-order="fill stroke markers" d=" M 405.5 105.44562691390547 L 405.5 105.44562691390547 L 399.8482457344555 109.81131837725087 L 391.9575211373357 115.51352617304013 L 383.60034894286724 121.16408445789108 L 374.84912809918853 126.70536935176074 L 365.7833293401379 132.0903381215242 L 355.9195109565732 137.58938630899553 L 345.4298591481279 143.07796124462288 L 334.501998984191 148.45333932153895 L 322.86409364288295 153.84558110155018 L 310.40295387735983 159.29292332852916 L 297.18281967492635 164.75890513728953 L 282.79559179707985 170.40185082711426 L 266.63186394725795 176.433774045535 L 248.2313606186473 182.99557023502734 L 225.47661614427992 190.8019877061484 L 207.68427271472999 196.7706887285687" stroke-linecap="round" stroke-linejoin="round" stroke-miterlimit="10" stroke-width="2.5" stroke-opacity="0.9" stroke-dasharray=""/></g><g><path fill="none" stroke="#c74440" class="dcg-svg-curve" paint-order="fill stroke markers" d=" M -5.5 251.81900582977437 L -5.5 251.81900582977437 L 6.0917389265677215 250.29679121111894 L 19.237743975992572 248.3033039295648 L 32.81655727228898 245.96913797538204 L 46.562505310217524 243.32713683173927 L 60.23856016576378 240.4279116360547 L 74.69125468841942 237.08245655936636 L 89.37520917836424 233.40328486076857 L 104.60012653985144 229.31227264978926 L 120.89922252856513 224.65172204948556 L 138.89578306943625 219.21494731567836 L 159.33480626965297 212.74535405807134 L 185.89231109579393 204.03029414698597 L 191.31389673548819 202.2274807216493" stroke-linecap="round" stroke-linejoin="round" stroke-miterlimit="10" stroke-width="2.5" stroke-opacity="0.9" stroke-dasharray=""/></g><g><path fill="none" stroke="#c74440" class="dcg-svg-curve" paint-order="fill stroke markers" d=" M -5.5 237.48530353874162 L -5.5 237.48530353874162 L 0.5435275937295914 237.6580265618981 L 11.710552524745056 237.71239289726066 L 22.94092276751628 237.49099379276413 L 33.354540770031285 237.03311657749128 L 43.74409932468278 236.3301638930551 L 54.675518208786826 235.32220961386793 L 65.30572156611046 234.07678502837828 L 76.1219152817533 232.54167209684513 L 86.92444743068846 230.74166091728227 L 97.97706918188 228.62983252572147 L 109.36796591479012 226.17731870890478 L 121.02702662948172 223.3918510916537 L 133.30001425542767 220.18134233886397 L 146.45399910568383 216.4573522161602 L 161.1672524636143 212.00011991671622 L 178.70988392188153 206.38526207250027 L 194.0425978236588 201.31832048109953" stroke-linecap="round" stroke-linejoin="round" stroke-miterlimit="10" stroke-width="2.5" stroke-opacity="0.9" stroke-dasharray=""/></g><g><path fill="none" stroke="#c74440" class="dcg-svg-curve" paint-order="fill stroke markers" d=" M -5.5 172.5003020959418 L -5.5 172.5003020959418 L -4.651035966476651 172.92448025128553 L 8.596279344415604 179.20895997846364 L 20.73134731429886 184.65420905296028 L 31.86481478394571 189.36016917807805 L 43.07228966673359 193.78809233781854 L 53.303749168915026 197.5318329887365 L 62.66224224700421 200.68187783713668 L 71.9826122057963 203.5337901668764 L 80.47626684051282 205.86213928506388 L 88.85010670318137 207.8825349090741 L 97.0177136392928 209.56753294802826 L 104.40932807665209 210.82958697045405 L 111.57372935706921 211.7965548381056 L 118.46265107815658 212.4721624464645 L 125.40636759817946 212.88512242650475 L 131.9376851714561 213.0144128759828 L 138.3415331038093 212.88601069726465 L 144.77293852311524 212.49391401340935 L 151.06188613231464 211.85010258959176 L 157.4473135982679 210.93203126037918 L 163.96609532978027 209.72543706999872 L 170.73508880391242 208.1996691272342 L 178.06414256086845 206.26622898618115 L 186.45029167223407 203.7622234502141 L 196.7709938201991 200.4088551489194" stroke-linecap="round" stroke-linejoin="round" stroke-miterlimit="10" stroke-width="2.5" stroke-opacity="0.9" stroke-dasharray=""/></g><g><path fill="none" stroke="#c74440" class="dcg-svg-curve" paint-order="fill stroke markers" d=" M 100.18975068737508 100.18975068737501 L 100.18975068737508 100.18975068737501 L 199.4993898167394 199.49938981673935" stroke-linecap="round" stroke-linejoin="round" stroke-miterlimit="10" stroke-width="2.5" stroke-opacity="0.9" stroke-dasharray=""/></g><g><path fill="none" stroke="#c74440" class="dcg-svg-curve" paint-order="fill stroke markers" d=" M 249.1551246563125 50.534626031062544 L 249.1551246563125 50.534626031062544 L 253.0432494349653 59.9069871635092 L 256.40029090026184 68.59683626002334 L 259.27505218838724 76.65715765113367 L 261.7122383601667 84.13672214240438 L 263.75279116325805 91.08042496437974 L 265.43419669636364 97.5295965365296 L 266.79076816220925 103.52228823437184 L 267.85390571975495 109.09353517260297 L 268.6523352840299 114.27559785492406 L 269.2123279729692 119.09818439217594 L 269.55790176362444 123.58865485332905 L 269.71835890086396 128.34618248709933 L 269.65711350461044 132.7372301250179 L 269.4009789421624 136.7931706715109 L 268.97410886812884 140.54257372290658 L 268.39824715022417 144.0114600155406 L 267.5965885504361 147.60808170341215 L 266.6559421999982 150.91019374048338 L 265.4744948152866 154.26720206860344 L 264.1752065878025 157.32841416006855 L 262.6374622430151 160.39000138599388 L 260.8604694693677 163.4049598836562 L 258.85129228318795 166.33396380058807 L 256.6244998406675 169.14574501234205 L 254.03926120873635 171.9837518270442 L 251.12433261584096 174.76914596465014 L 247.76724947436227 177.5639043022802 L 243.8932801178284 180.3706665348344 L 239.6300957898713 183.0647822751156 L 234.87444815655076 185.69892701458255 L 229.5406901060887 188.30121373646168 L 223.48970017408635 190.91955873424638 L 216.39385157826 193.67043495889862 L 207.23617784702444 196.90262703500105 L 202.22778581327967 198.58992448455925" stroke-linecap="round" stroke-linejoin="round" stroke-miterlimit="10" stroke-width="2.5" stroke-opacity="0.9" stroke-dasharray=""/></g><g><path fill="none" stroke="#c74440" class="dcg-svg-curve" paint-order="fill stroke markers" d=" M 398.1204986252499 0.8795013747500775 L 398.1204986252499 0.8795013747500775 L 398.00445324195454 8.629354753962218 L 397.6684265266199 16.003471570002546 L 397.1297189334567 23.02223643729792 L 396.4045345138725 29.704876497007433 L 395.5080465263924 36.06952823622038 L 394.45445919089906 42.133300427526535 L 393.25706581241667 47.912333414660225 L 391.9283034865384 53.42185495678109 L 390.47980458622976 58.676232831580194 L 388.59881666283763 64.66373111214023 L 386.57848344374554 70.32528853139388 L 384.43488835585924 75.68141349764761 L 382.1828456766749 80.75124033450476 L 379.83599230192186 85.55262353697537 L 376.99484562530864 90.8371212951933 L 374.05987357875927 95.80343136983691 L 371.047546739387 100.47421934792743 L 367.5292109105326 105.47716239683433 L 363.9491998264392 110.15006599358532 L 359.86996332594674 115.04509237966005 L 355.7572859006718 119.58935053907811 L 351.1718975955118 124.26423943368411 L 346.13507555010455 128.99489409120224 L 340.67798091257447 133.71433743195433 L 334.8413044657404 138.36474332260747 L 328.2392886451378 143.20463167993807 L 321.3892141766374 147.82578085682658 L 313.95540658999664 152.44926950284463 L 306.06660768908404 156.97765250217304 L 297.865429671032 161.33559735930183 L 289.166037718496 165.62873676466754 L 279.59190175675934 170.0241448439309 L 269.30213595926904 174.4287576661216 L 257.91742561575353 178.988865383692 L 245.14433633428527 183.79752821055757 L 229.98819357955432 189.19386189410483 L 209.96931959567428 196.00447400466354 L 204.95618180981998 197.68045915237914" stroke-linecap="round" stroke-linejoin="round" stroke-miterlimit="10" stroke-width="2.5" stroke-opacity="0.9" stroke-dasharray=""/></g><g><path fill="none" stroke="#c74440" class="dcg-svg-curve" paint-order="fill stroke markers" d=" M 405.5 115.56055924268684 L 405.5 115.56055924268684 L 404.11304876466295 116.38716034503778 L 393.388064593314 122.41802748569222 L 382.4205139896287 128.24926445965212 L 370.6751045935261 134.16090407894353 L 358.3622051329432 140.03208048536555 L 345.14792739005827 146.00789639818123 L 331.3889995559521 151.91896589682983 L 316.53457688727326 157.99436711025578 L 300.4525368987656 164.26835467406823 L 282.4729626032084 170.97478453307284 L 262.1715312250933 178.23942182838334 L 237.9237834329773 186.6074931785243 L 207.6845778063603 196.77099382019904" stroke-linecap="round" stroke-linejoin="round" stroke-miterlimit="10" stroke-width="2.5" stroke-opacity="0.9" stroke-dasharray=""/></g><g><path fill="none" stroke="#c74440" class="dcg-svg-curve" paint-order="fill stroke markers" d=" M -5.5 256.55839922349503 L -5.5 256.55839922349503 L 7.872733063660007 254.0392612087363 L 22.811896859852272 250.96302465716536 L 38.519826296798456 247.4517031138813 L 54.54132509922045 243.59070506379686 L 71.0026669828897 239.34645582109468 L 88.26525490166317 234.61631410639416 L 106.58269027152865 229.3153204010449 L 126.66889857712691 223.21380489898067 L 149.44638935048556 216.00003011755902 L 178.0260920439818 206.6433010563686 L 191.3142018271185 202.22778581327964" stroke-linecap="round" stroke-linejoin="round" stroke-miterlimit="10" stroke-width="2.5" stroke-opacity="0.9" stroke-dasharray=""/></g><g><path fill="none" stroke="#c74440" class="dcg-svg-curve" paint-order="fill stroke markers" d=" M -5.5 250.14835935420507 L -5.5 250.14835935420507 L -1.0709730798635886 249.7007718092386 L 11.939715668543132 248.10765103013662 L 24.743445390044172 246.27014948806908 L 37.95830725874307 244.09574966918208 L 51.3252633041073 241.61410599551726 L 64.61401197081561 238.8730893845682 L 78.13762684650337 235.8137605228916 L 92.44888560922602 232.29507094936125 L 107.2751799911339 228.36627848997375 L 123.13512838083035 223.87514874671734 L 140.1550413223252 218.76851790087676 L 159.702138577754 212.6095347060361 L 184.66077355432247 204.4382382429515 L 194.04290291528912 201.31862557272984" stroke-linecap="round" stroke-linejoin="round" stroke-miterlimit="10" stroke-width="2.5" stroke-opacity="0.9" stroke-dasharray=""/></g><g><path fill="none" stroke="#c74440" class="dcg-svg-curve" paint-order="fill stroke markers" d=" M 0.8795013747501397 199.49999999999997 L 0.8795013747501397 199.49999999999997 L 12.335497045847008 203.16797452415557 L 22.9275237442875 206.27735275271993 L 33.67702080138248 209.1343652730083 L 43.574423168368575 211.4790233282025 L 52.70455942723576 213.3815310281184 L 61.8778045368657 215.0244549749596 L 70.98568197423067 216.37221809541046 L 79.32375777720243 217.3433933673349 L 87.537898726038 218.04086569783922 L 95.55802324192928 218.46108906348823 L 103.3277632941674 218.61145349244404 L 111.22046138375816 218.49549689638206 L 118.70353024101158 218.12777171334466 L 126.09877899852074 217.51253422173295 L 133.58589527566957 216.63200246967057 L 141.22108661808002 215.46798186263572 L 148.95519575599772 214.02079381616562 L 157.01480210657263 212.2387093590044 L 165.569833407405 210.06568498807619 L 174.85344096722332 207.42358240706315 L 185.83964959620832 204.00282040464413 L 196.7712989118294 200.40916024054977" stroke-linecap="round" stroke-linejoin="round" stroke-miterlimit="10" stroke-width="2.5" stroke-opacity="0.9" stroke-dasharray=""/></g><g><path fill="none" stroke="#c74440" class="dcg-svg-curve" paint-order="fill stroke markers" d=" M 149.84487534368756 149.8448753436875 L 149.84487534368756 149.8448753436875 L 199.49969490836972 199.49969490836966" stroke-linecap="round" stroke-linejoin="round" stroke-miterlimit="10" stroke-width="2.5" stroke-opacity="0.9" stroke-dasharray=""/></g><g><path fill="none" stroke="#c74440" class="dcg-svg-curve" paint-order="fill stroke markers" d=" M 298.810249312625 100.18975068737501 L 298.810249312625 100.18975068737501 L 298.6977230692787 105.56146079782258 L 298.3764409402204 110.57298629998189 L 297.8692365456637 115.25134200841012 L 297.1969377617442 119.62142154398191 L 296.37853290620836 123.70616670733011 L 295.43132340811957 127.52672324828546 L 294.2112226090477 131.59451219287251 L 292.86468108537184 135.36932669123934 L 291.41077204720744 138.8754846695943 L 289.66799615096096 142.5263117684877 L 287.8325524994445 145.8937548931344 L 285.70760407866726 149.33430633254548 L 283.29234918374 152.78938221193854 L 280.5941687506184 156.20738161593485 L 277.62864295033586 159.54467526953903 L 274.41905631902694 162.76604355561673 L 270.76852615849447 166.0374419737474 L 266.72605082932563 169.27054124361416 L 261.9298458956459 172.68390299591624 L 256.93016125332065 175.85343354879384 L 251.45108009702048 178.9648972758681 L 245.34680853414022 182.07777790146702 L 238.64396416900925 185.1592465068978 L 231.0682101284314 188.3170658436332 L 222.23251325359237 191.6815577475995 L 211.1773957815997 195.57544491605393 L 202.22809090491003 198.59022957618956" stroke-linecap="round" stroke-linejoin="round" stroke-miterlimit="10" stroke-width="2.5" stroke-opacity="0.9" stroke-dasharray=""/></g><g><path fill="none" stroke="#c74440" class="dcg-svg-curve" paint-order="fill stroke markers" d=" M 405.5 101.0101394677443 L 405.5 101.0101394677443 L 405.1671292913095 101.3143995213407 L 398.74435365589454 106.80585983530375 L 391.75651526447183 112.38481826413692 L 384.25311653488853 117.97451297069023 L 376.29387068180904 123.5079056957016 L 367.9474550616481 128.9284321634641 L 359.28976802352554 134.19012940605438 L 349.8586005612409 139.55690558442274 L 339.8176830186092 144.9066638471863 L 329.3464701399291 150.13918695636679 L 318.18436885560277 155.3810006659018 L 306.2223681474188 160.66895171570036 L 293.5218698079066 165.96744401493208 L 279.6904862993501 171.429685052052 L 264.14150122157974 177.26017313814336 L 246.4311679831309 183.5942263885029 L 224.52016665820886 191.1205927560678 L 204.9564869014503 197.68076424400945" stroke-linecap="round" stroke-linejoin="round" stroke-miterlimit="10" stroke-width="2.5" stroke-opacity="0.9" stroke-dasharray=""/></g><g><path fill="none" stroke="#c74440" class="dcg-svg-curve" paint-order="fill stroke markers" d=" M 405.5 123.80765396761434 L 405.5 123.80765396761434 L 400.3400446681576 126.09877899852069 L 383.4293119813055 133.29244134626651 L 365.2405737101119 140.71081574335125 L 345.8553573457795 148.30209108019613 L 325.130620818294 156.11210827696124 L 302.25664829216964 164.4284112806652 L 276.4384251280628 173.5126343591928 L 245.33984555386422 184.14834802569007 L 207.6848828979906 196.77129891182935" stroke-linecap="round" stroke-linejoin="round" stroke-miterlimit="10" stroke-width="2.5" stroke-opacity="0.9" stroke-dasharray=""/></g><g><path fill="none" stroke="#c74440" class="dcg-svg-curve" paint-order="fill stroke markers" d=" M -5.5 261.819126263369 L -5.5 261.819126263369 L 5.824563186354317 258.9811583797561 L 25.599275505933722 253.7504033032468 L 46.420428476694404 247.96453544750494 L 68.43911277396806 241.56313871432968 L 92.0910005399135 234.4010679796345 L 118.21440491501403 226.2011242657786 L 148.91045208588943 216.2675476293922 L 191.3145069187488 202.22809090490995" stroke-linecap="round" stroke-linejoin="round" stroke-miterlimit="10" stroke-width="2.5" stroke-opacity="0.9" stroke-dasharray=""/></g><g><path fill="none" stroke="#c74440" class="dcg-svg-curve" paint-order="fill stroke markers" d=" M -5.5 267.8333333333333 L -5.5 267.8333333333333 L 194.04320800691943 201.31893066436018" stroke-linecap="round" stroke-linejoin="round" stroke-miterlimit="10" stroke-width="2.5" stroke-opacity="0.9" stroke-dasharray=""/></g><g><path fill="none" stroke="#c74440" class="dcg-svg-curve" paint-order="fill stroke markers" d=" M 50.534626031062615 249.15512465631244 L 50.534626031062615 249.15512465631244 L 196.77160400345971 200.40946533218008" stroke-linecap="round" stroke-linejoin="round" stroke-miterlimit="10" stroke-width="2.5" stroke-opacity="0.9" stroke-dasharray=""/></g><g><path fill="none" stroke="#c74440" class="dcg-svg-curve" paint-order="fill stroke markers" d=" M 348.46537396893746 149.8448753436875 L 348.46537396893746 149.8448753436875 L 202.22839599654034 198.59053466781987" stroke-linecap="round" stroke-linejoin="round" stroke-miterlimit="10" stroke-width="2.5" stroke-opacity="0.9" stroke-dasharray=""/></g><g><path fill="none" stroke="#c74440" class="dcg-svg-curve" paint-order="fill stroke markers" d=" M 405.5 130.83333333333331 L 405.5 130.83333333333331 L 204.95679199308066 197.68106933563976" stroke-linecap="round" stroke-linejoin="round" stroke-miterlimit="10" stroke-width="2.5" stroke-opacity="0.9" stroke-dasharray=""/></g><g><path fill="none" stroke="#c74440" class="dcg-svg-curve" paint-order="fill stroke markers" d=" M 405.5 130.83333333333331 L 405.5 130.83333333333331 L 207.68518798962094 196.77160400345966" stroke-linecap="round" stroke-linejoin="round" stroke-miterlimit="10" stroke-width="2.5" stroke-opacity="0.9" stroke-dasharray=""/></g><g><path fill="none" stroke="#c74440" class="dcg-svg-curve" paint-order="fill stroke markers" d=" M -5.5 267.8333333333333 L -5.5 267.8333333333333 L 191.31481201037914 202.22839599654029" stroke-linecap="round" stroke-linejoin="round" stroke-miterlimit="10" stroke-width="2.5" stroke-opacity="0.9" stroke-dasharray=""/></g><g><path fill="none" stroke="#c74440" class="dcg-svg-curve" paint-order="fill stroke markers" d=" M -5.5 297.11520626975874 L -5.5 297.11520626975874 L 0.25564634410558995 292.19414016469614 L 7.243484735528244 286.61518173586296 L 14.74688346511153 281.0254870293097 L 22.706129318191035 275.4920943042983 L 31.05254493835197 270.07156783653585 L 39.71023197647453 264.80987059394556 L 49.14139943875914 259.4430944155772 L 59.18231698139083 254.09333615281363 L 69.65352986007095 248.86081304363316 L 80.81563114439733 243.61899933409813 L 92.77763185258124 238.33104828429958 L 105.47813019209345 233.03255598506786 L 119.30951370064999 227.5703149479479 L 134.8584987784203 221.7398268618566 L 152.56883201686915 215.40577361149707 L 174.47983334179122 207.87940724393212 L 194.04351309854974 201.3192357559905" stroke-linecap="round" stroke-linejoin="round" stroke-miterlimit="10" stroke-width="2.5" stroke-opacity="0.9" stroke-dasharray=""/></g><g><path fill="none" stroke="#c74440" class="dcg-svg-curve" paint-order="fill stroke markers" d=" M 100.18975068737508 298.81024931262493 L 100.18975068737508 298.81024931262493 L 100.30227693072136 293.43853920217737 L 100.62355905977971 288.42701370001805 L 101.13076345433636 283.7486579915898 L 101.80306223825583 279.37857845601803 L 102.62146709379171 275.29383329266983 L 103.56867659188049 271.4732767517144 L 104.78877739095239 267.40548780712743 L 106.13531891462824 263.6306733087606 L 107.58922795279263 260.12451533040564 L 109.33200384903911 256.47368823151226 L 111.16744750055558 253.10624510686552 L 113.29239592133277 249.6656936674544 L 115.70765081626013 246.21061778806134 L 118.40583124938166 242.7926183840651 L 121.37135704966417 239.4553247304609 L 124.58094368097318 236.23395644438318 L 128.2314738415056 232.96255802625254 L 132.2739491706744 229.72945875638578 L 137.07015410435417 226.31609700408367 L 142.0698387466794 223.1465664512061 L 147.5489199029796 220.0351027241318 L 153.65319146585986 216.92222209853293 L 160.35603583099083 213.8407534931021 L 167.93178987156867 210.6829341563667 L 176.76748674640768 207.31844225240044 L 187.8226042184004 203.424555083946 L 196.77190909509005 200.4097704238104" stroke-linecap="round" stroke-linejoin="round" stroke-miterlimit="10" stroke-width="2.5" stroke-opacity="0.9" stroke-dasharray=""/></g><g><path fill="none" stroke="#c74440" class="dcg-svg-curve" paint-order="fill stroke markers" d=" M 249.1551246563125 249.15512465631244 L 249.1551246563125 249.15512465631244 L 199.50030509163034 199.50030509163028" stroke-linecap="round" stroke-linejoin="round" stroke-miterlimit="10" stroke-width="2.5" stroke-opacity="0.9" stroke-dasharray=""/></g><g><path fill="none" stroke="#c74440" class="dcg-svg-curve" paint-order="fill stroke markers" d=" M 398.1204986252499 199.49999999999997 L 398.1204986252499 199.49999999999997 L 386.6645029541531 195.83202547584435 L 376.07247625571256 192.72264724727998 L 365.3229791986176 189.8656347269916 L 355.4255768316315 187.52097667179743 L 346.29544057276433 185.61846897188158 L 337.12219546313435 183.9755450250403 L 328.0143180257694 182.62778190458945 L 319.67624222279767 181.65660663266505 L 311.46210127396205 180.95913430216072 L 303.4419767580708 180.53891093651168 L 295.6722367058327 180.3885465075559 L 287.7795386162419 180.50450310361788 L 280.2964697589885 180.8722282866553 L 272.9012210014793 181.48746577826702 L 265.4141047243305 182.36799753032938 L 257.77891338192006 183.53201813736422 L 250.04480424400234 184.9792061838343 L 241.98519789342743 186.76129064099553 L 233.43016659259504 188.9343150119238 L 224.14655903277674 191.57641759293682 L 213.16035040379177 194.9971795953558 L 202.22870108817065 198.59083975945018" stroke-linecap="round" stroke-linejoin="round" stroke-miterlimit="10" stroke-width="2.5" stroke-opacity="0.9" stroke-dasharray=""/></g><g><path fill="none" stroke="#c74440" class="dcg-svg-curve" paint-order="fill stroke markers" d=" M 405.5 148.7505828845671 L 405.5 148.7505828845671 L 400.0709730798637 149.29922819076134 L 387.06028433145696 150.8923489698633 L 374.25655460995586 152.72985051193083 L 361.04169274125695 154.90425033081783 L 347.67473669589276 157.38589400448265 L 334.38598802918443 160.12691061543174 L 320.8623731534967 163.1862394771083 L 306.55111439077405 166.7049290506387 L 291.7248200088662 170.6337215100262 L 275.8648716191697 175.12485125328257 L 258.84495867767487 180.2314820991232 L 239.2978614222461 186.3904652939638 L 214.33922644567758 194.56176175704843 L 204.95709708471097 197.68137442727007" stroke-linecap="round" stroke-linejoin="round" stroke-miterlimit="10" stroke-width="2.5" stroke-opacity="0.9" stroke-dasharray=""/></g><g><path fill="none" stroke="#c74440" class="dcg-svg-curve" paint-order="fill stroke markers" d=" M 405.5 136.93027088008697 L 405.5 136.93027088008697 L 393.1754368136458 140.01884162024385 L 373.40072449406637 145.24959669675314 L 352.5795715233056 151.035464552495 L 330.560887226032 157.43686128567023 L 306.9089994600866 164.59893202036545 L 280.785595084986 172.7988757342213 L 250.08954791411065 182.73245237060772 L 207.68549308125125 196.77190909508997" stroke-linecap="round" stroke-linejoin="round" stroke-miterlimit="10" stroke-width="2.5" stroke-opacity="0.9" stroke-dasharray=""/></g><g><path fill="none" stroke="#c74440" class="dcg-svg-curve" paint-order="fill stroke markers" d=" M -5.5 274.7483257098128 L -5.5 274.7483257098128 L -1.340044668157455 272.90122100147926 L 15.5706880186946 265.70755865373343 L 33.759426289888175 258.2891842566487 L 53.14464265422058 250.6979089198038 L 73.86937918170604 242.88789172303868 L 96.74335170783044 234.5715887193347 L 122.56157487193722 225.48736564080713 L 153.66015444613583 214.8516519743099 L 191.31511710200945 202.2287010881706" stroke-linecap="round" stroke-linejoin="round" stroke-miterlimit="10" stroke-width="2.5" stroke-opacity="0.9" stroke-dasharray=""/></g><g><path fill="none" stroke="#c74440" class="dcg-svg-curve" paint-order="fill stroke markers" d=" M 0.8795013747501397 398.12049862524987 L 0.8795013747501397 398.12049862524987 L 0.9955467580455184 390.3706452460377 L 1.3315734733801954 382.9965284299974 L 1.8702810665433431 375.977763562702 L 2.595465486127597 369.2951235029925 L 3.491953473607668 362.93047176377956 L 4.5455408091010225 356.8666995724734 L 5.742934187583392 351.0876665853397 L 7.071696513461651 345.5781450432188 L 8.52019541377033 340.32376716841975 L 10.401183337162418 334.33626888785966 L 12.421516556254524 328.6747114686061 L 14.565111644140783 323.3185865023524 L 16.81715432332519 318.2487596654952 L 19.164007698078198 313.44737646302457 L 22.005154374691443 308.16287870480664 L 24.940126421240816 303.19656863016303 L 27.952453260613098 298.5257806520725 L 31.470789089467498 293.52283760316556 L 35.050800173560845 288.8499340064146 L 39.13003667405334 283.95490762033984 L 43.24271409932831 279.41064946092183 L 47.828102404488284 274.7357605663159 L 52.86492444989555 270.0051059087977 L 58.322019087425595 265.2856625680456 L 64.15869553425969 260.6352566773925 L 70.76071135486227 255.7953683200618 L 77.6107858233627 251.17421914317336 L 85.04459341000342 246.5507304971553 L 92.93339231091603 242.02234749782687 L 101.13457032896807 237.66440264069809 L 109.83396228150409 233.3712632353324 L 119.4080982432407 228.975855156069 L 129.697864040731 224.57124233387833 L 141.08257438424653 220.0111346163079 L 153.8556636657148 215.20247178944234 L 169.01180642044574 209.80613810589512 L 189.0306804043258 202.9955259953364 L 194.04381819018008 201.3195408476208" stroke-linecap="round" stroke-linejoin="round" stroke-miterlimit="10" stroke-width="2.5" stroke-opacity="0.9" stroke-dasharray=""/></g><g><path fill="none" stroke="#c74440" class="dcg-svg-curve" paint-order="fill stroke markers" d=" M 149.84487534368756 348.4653739689374 L 149.84487534368756 348.4653739689374 L 145.95675056503475 339.09301283649074 L 142.59970909973822 330.40316373997655 L 139.72494781161282 322.34284234886627 L 137.28776163983335 314.86327785759556 L 135.24720883674203 307.91957503562014 L 133.56580330363644 301.47040346347035 L 132.2092318377908 295.4777117656281 L 131.1460942802451 289.906464827397 L 130.34766471597015 284.72440214507594 L 129.78767202703088 279.90181560782395 L 129.44209823637564 275.4113451466709 L 129.28164109913607 270.65381751290056 L 129.34288649538965 266.26276987498204 L 129.59902105783763 262.20682932848905 L 130.02589113187125 258.45742627709336 L 130.60175284977592 254.98853998445935 L 131.40341144956398 251.39191829658776 L 132.34405780000188 248.08980625951656 L 133.52550518471347 244.7327979313965 L 134.82479341219755 241.67158583993134 L 136.362537756985 238.60999861400606 L 138.13953053063238 235.59504011634374 L 140.1487077168121 232.66603619941188 L 142.37550015933255 229.85425498765787 L 144.9607387912637 227.01624817295576 L 147.87566738415913 224.2308540353498 L 151.23275052563778 221.43609569771974 L 155.10671988217166 218.62933346516553 L 159.3699042101288 215.93521772488432 L 164.12555184344927 213.30107298541736 L 169.45930989391135 210.69878626353827 L 175.5102998259137 208.08044126575356 L 182.60614842174002 205.3295650411013 L 191.76382215297562 202.09737296499887 L 196.77221418672036 200.4100755154407" stroke-linecap="round" stroke-linejoin="round" stroke-miterlimit="10" stroke-width="2.5" stroke-opacity="0.9" stroke-dasharray=""/></g><g><path fill="none" stroke="#c74440" class="dcg-svg-curve" paint-order="fill stroke markers" d=" M 298.810249312625 298.81024931262493 L 298.810249312625 298.81024931262493 L 199.50061018326065 199.5006101832606" stroke-linecap="round" stroke-linejoin="round" stroke-miterlimit="10" stroke-width="2.5" stroke-opacity="0.9" stroke-dasharray=""/></g><g><path fill="none" stroke="#c74440" class="dcg-svg-curve" paint-order="fill stroke markers" d=" M 405.5 226.99933998380945 L 405.5 226.99933998380945 L 403.65103596647674 226.0755197487144 L 390.40372065558444 219.7910400215363 L 378.2686526857012 214.34579094703963 L 367.13518521605437 209.6398308219219 L 355.9277103332665 205.21190766218137 L 345.696250831085 201.46816701126343 L 336.33775775299586 198.31812216286326 L 327.0173877942038 195.46620983312351 L 318.5237331594872 193.13786071493604 L 310.1498932968187 191.11746509092583 L 301.9822863607073 189.4324670519717 L 294.59067192334794 188.17041302954587 L 287.42627064293083 187.20344516189436 L 280.5373489218435 186.52783755353542 L 273.5936324018206 186.1148775734952 L 267.06231482854395 185.98558712401714 L 260.65846689619076 186.1139893027353 L 254.22706147688487 186.5060859865906 L 247.93811386768542 187.1498974104082 L 241.55268640173222 188.06796873962077 L 235.03390467021978 189.2745629300012 L 228.26491119608764 190.8003308727657 L 220.93585743913164 192.73377101381882 L 212.54970832776598 195.23777654978585 L 202.22900617980096 198.59114485108051" stroke-linecap="round" stroke-linejoin="round" stroke-miterlimit="10" stroke-width="2.5" stroke-opacity="0.9" stroke-dasharray=""/></g><g><path fill="none" stroke="#c74440" class="dcg-svg-curve" paint-order="fill stroke markers" d=" M 405.5 161.54327629654122 L 405.5 161.54327629654122 L 398.45647240627045 161.3419734381018 L 387.289447475255 161.2876071027393 L 376.0590772324838 161.50900620723579 L 365.64545922996876 161.96688342250866 L 355.25590067531726 162.66983610694487 L 344.32448179121326 163.677790386132 L 333.6942784338896 164.92321497162163 L 322.8780847182468 166.4583279031548 L 312.07555256931164 168.25833908271767 L 301.0229308181201 170.37016747427847 L 289.63203408520997 172.82268129109517 L 277.9729733705184 175.60814890834624 L 265.6999857445724 178.81865766113594 L 252.54600089431628 182.54264778383975 L 237.83274753638577 186.9998800832837 L 220.29011607811856 192.61473792749965 L 204.95740217634128 197.68167951890044" stroke-linecap="round" stroke-linejoin="round" stroke-miterlimit="10" stroke-width="2.5" stroke-opacity="0.9" stroke-dasharray=""/></g><g><path fill="none" stroke="#c74440" class="dcg-svg-curve" paint-order="fill stroke markers" d=" M 405.5 142.25322208063426 L 405.5 142.25322208063426 L 391.12726693634005 144.96073879126365 L 376.1881031401478 148.0369753428346 L 360.4801737032016 151.5482968861186 L 344.4586749007796 155.40929493620308 L 327.99733301711035 159.65354417890526 L 310.73474509833693 164.38368589360576 L 292.4173097284714 169.68467959895506 L 272.3311014228732 175.78619510101925 L 249.55361064951452 182.9999698824409 L 220.97390795601828 192.3566989436313 L 207.68579817288156 196.77221418672033" stroke-linecap="round" stroke-linejoin="round" stroke-miterlimit="10" stroke-width="2.5" stroke-opacity="0.9" stroke-dasharray=""/></g><g><path fill="none" stroke="#c74440" class="dcg-svg-curve" paint-order="fill stroke markers" d=" M -5.5 282.84345649969066 L -5.5 282.84345649969066 L -5.113048764662855 282.61283965496216 L 5.6119354066860465 276.5819725143077 L 16.57948601037136 270.7507355403478 L 28.324895406474003 264.83909592105647 L 40.63779486705686 258.9679195146344 L 53.85207260994178 252.9921036018187 L 67.61100044404792 247.08103410317014 L 82.46542311272682 241.00563288974413 L 98.54746310123453 234.73164532593168 L 116.52703739679168 228.0252154669271 L 136.82846877490678 220.7605781716166 L 161.07621656702273 212.39250682147562 L 191.3154221936398 202.2290061798009" stroke-linecap="round" stroke-linejoin="round" stroke-miterlimit="10" stroke-width="2.5" stroke-opacity="0.9" stroke-dasharray=""/></g><g><path fill="none" stroke="#c74440" class="dcg-svg-curve" paint-order="fill stroke markers" d=" M 41.20008792813319 405.5 L 41.20008792813319 405.5 L 40.27737456922597 399.71589285939785 L 39.18874574991617 391.5099045132885 L 38.368675930533705 383.71340832829003 L 37.7974629688514 376.30391149860856 L 37.45663252864901 369.26020428329844 L 37.32886498498841 362.56228581733853 L 37.39792661773487 356.1912942326221 L 37.64860484297222 350.1294408380774 L 38.06664724655066 344.3599481227385 L 38.63870419774889 338.8669913593351 L 39.352274833972196 333.6356435989186 L 40.378933250042444 327.68358079467663 L 41.57375319390633 322.0651749387655 L 42.91937347573726 316.7591402349222 L 44.399773649241574 311.74562469967276 L 46.00017767763127 307.0061116212338 L 47.70696436757397 302.5233278387299 L 49.8159848044314 297.5964523143817 L 52.03453465482224 292.97337878207225 L 54.346073185642226 288.63220232551896 L 57.08252541741778 283.99018357924535 L 59.900760549743815 279.6623210036504 L 63.14675907285705 275.1376152454226 L 66.45100881409459 270.9459305281367 L 70.16675373006433 266.64331487319714 L 74.28105604095673 262.30007877757265 L 78.77151435555616 257.9787975391184 L 83.6064778431763 253.73312491782025 L 88.74582459439608 249.6072274612853 L 94.4972337290593 245.38603384972822 L 100.7728713489259 241.17956169308988 L 107.46556758955255 237.07727858829693 L 114.45376395558826 233.14709805340874 L 122.18164573955593 229.1510810637786 L 130.37431292102679 225.24769121417407 L 139.43544063224311 221.2571940519206 L 149.39157510377248 217.1902833588831 L 160.63227224103454 212.90857375657092 L 174.03829885526523 208.11258890655205 L 192.13635247999932 201.95755079062602 L 194.04412328181039 201.3198459392511" stroke-linecap="round" stroke-linejoin="round" stroke-miterlimit="10" stroke-width="2.5" stroke-opacity="0.9" stroke-dasharray=""/></g><g><path fill="none" stroke="#c74440" class="dcg-svg-curve" paint-order="fill stroke markers" d=" M 199.50000000000003 398.12049862524987 L 199.50000000000003 398.12049862524987 L 191.61122419934813 384.7474864708041 L 184.57585913969672 372.3793137799351 L 178.3191321688893 360.9370267061427 L 172.77246104141085 350.34797725917304 L 167.87295057969237 340.5453167785705 L 163.56293001539242 331.46753017522633 L 159.7895277296252 323.0580076574625 L 156.50428037554963 315.26465092270143 L 153.6627736098699 308.03951103897566 L 151.22431188334374 301.3384554641368 L 148.88334571376853 294.26988183494836 L 146.96955544809938 287.7773726271571 L 145.4371343831808 281.81043212930246 L 144.24467993256926 276.32311641953424 L 143.35478384138176 271.2736189297366 L 142.73366012066276 266.62389387563786 L 142.3508072419799 262.33931408900366 L 142.1787014498174 258.3883601050148 L 142.20617857058545 254.3066978013086 L 142.43736617900697 250.5740439493422 L 142.84410733649125 247.15710391715737 L 143.40138581594522 244.02590545162298 L 144.17021794414686 240.84919372988162 L 145.07070091224827 237.9588398352454 L 146.1853828386034 235.07505498327166 L 147.51907235428646 232.2428221976119 L 149.06885066947956 229.49955210292413 L 150.8243539889161 226.87472992135375 L 152.76848293879797 224.39002975771686 L 155.01082839885393 221.92400864822966 L 157.6539191376274 219.42256961454152 L 160.77328987313362 216.8878861525352 L 164.3954602899107 214.36411794205833 L 168.36621798307638 211.98099267010454 L 172.8994461766897 209.62217810560406 L 178.04817999672514 207.28403777276785 L 184.1246566298263 204.85080194360418 L 191.86251918276395 202.07280843354556 L 196.7725192783507 200.41038060707103" stroke-linecap="round" stroke-linejoin="round" stroke-miterlimit="10" stroke-width="2.5" stroke-opacity="0.9" stroke-dasharray=""/></g><g><path fill="none" stroke="#c74440" class="dcg-svg-curve" paint-order="fill stroke markers" d=" M 348.46537396893746 348.4653739689374 L 348.46537396893746 348.4653739689374 L 199.500915274891 199.50091527489093" stroke-linecap="round" stroke-linejoin="round" stroke-miterlimit="10" stroke-width="2.5" stroke-opacity="0.9" stroke-dasharray=""/></g><g><path fill="none" stroke="#c74440" class="dcg-svg-curve" paint-order="fill stroke markers" d=" M 405.5 241.897994598291 L 405.5 241.897994598291 L 393.26206720290924 235.13546974673338 L 380.1120277722395 228.18566288725512 L 366.9631498955383 221.5766137743584 L 355.0448529452447 215.91663184078345 L 344.2219847513549 211.08268296925576 L 333.524901009622 206.625334093195 L 323.85413314402643 202.90186835047712 L 315.0911748200829 199.80748462180605 L 306.50267769238684 197.06054271099 L 298.17849385206847 194.69667211175837 L 290.69376128903116 192.84764898033436 L 283.48647382695987 191.33847550552795 L 276.60329410214786 190.16801097989543 L 270.076095745733 189.32302720215696 L 263.92387217413193 188.7806469627744 L 257.8697515133354 188.50381200051893 L 252.0149802913711 188.49236670837712 L 246.2182503288838 188.74061266755152 L 240.4358417091485 189.25342947806237 L 234.70069636943867 190.02650494053464 L 228.84812157645865 191.08262254059815 L 222.75989653882914 192.45237364811717 L 216.14017295057627 194.22024967393622 L 208.30373886568896 196.60599534270207 L 202.2293112714313 198.59144994271082" stroke-linecap="round" stroke-linejoin="round" stroke-miterlimit="10" stroke-width="2.5" stroke-opacity="0.9" stroke-dasharray=""/></g><g><path fill="none" stroke="#c74440" class="dcg-svg-curve" paint-order="fill stroke markers" d=" M 405.5 171.48531327293662 L 405.5 171.48531327293662 L 401.55394246879047 170.9865620722369 L 390.5081926766466 169.86582554197133 L 380.22828577177415 169.08369935602576 L 369.8065549962203 168.5575157248646 L 359.36063128450604 168.3091088798097 L 349.706361857982 168.3356365849227 L 340.1055345467149 168.612415696212 L 330.640897153415 169.13476006626297 L 320.83043391006277 169.9416337893937 L 311.382906865172 170.97621652100784 L 301.8831340876692 172.27142308892468 L 292.0909961071119 173.87148706380697 L 282.28083530763206 175.7384231090908 L 272.06928647705234 177.95186734184045 L 261.3900460356591 180.5442859849118 L 250.03962965475804 183.5834257711867 L 237.78087863805754 187.1509365335037 L 223.54898319317203 191.58712876960465 L 204.95770726797159 197.68198461053072" stroke-linecap="round" stroke-linejoin="round" stroke-miterlimit="10" stroke-width="2.5" stroke-opacity="0.9" stroke-dasharray=""/></g><g><path fill="none" stroke="#c74440" class="dcg-svg-curve" paint-order="fill stroke markers" d=" M 405.5 147.04967525178733 L 405.5 147.04967525178733 L 392.90826107343236 148.70320878888097 L 379.7622560240075 150.6966960704351 L 366.1834427277111 153.0308620246179 L 352.4374946897825 155.67286316826068 L 338.7614398342363 158.57208836394526 L 324.3087453115806 161.91754344063358 L 309.6247908216358 165.5967151392314 L 294.3998734601486 169.68772735021068 L 278.1007774714349 174.3482779505144 L 260.10421693056384 179.78505268432158 L 239.6651937303471 186.25464594192857 L 213.10768890420613 194.96970585301395 L 207.68610326451187 196.77251927835064" stroke-linecap="round" stroke-linejoin="round" stroke-miterlimit="10" stroke-width="2.5" stroke-opacity="0.9" stroke-dasharray=""/></g><g><path fill="none" stroke="#c74440" class="dcg-svg-curve" paint-order="fill stroke markers" d=" M -5.5 292.7819241687804 L -5.5 292.7819241687804 L -0.84824573445536 289.188681622749 L 7.042478862664396 283.48647382695975 L 15.399651057132811 277.83591554210886 L 24.150871900811552 272.2946306482392 L 33.21667065986213 266.90966187847573 L 43.08048904342686 261.4106136910044 L 53.570140851872196 255.922038755377 L 64.49800101580907 250.546660678461 L 76.13590635711714 245.1544188984498 L 88.59704612264024 239.7070766714708 L 101.81718032507372 234.24109486271038 L 116.20440820292023 228.59814917288568 L 132.3681360527421 222.56622595446495 L 150.76863938135278 216.0044297649726 L 173.52338385572014 208.19801229385155 L 191.31572728527007 202.22931127143121" stroke-linecap="round" stroke-linejoin="round" stroke-miterlimit="10" stroke-width="2.5" stroke-opacity="0.9" stroke-dasharray=""/></g></g><g id="sketch-1f2a7da3"><title>Expression 4</title><path fill="#c74440" stroke="none" paint-order="stroke fill markers" d="" fill-opacity="0.4"/><path fill="#c74440" stroke="none" paint-order="stroke fill markers" d="" fill-opacity="0.4"/><path fill="#c74440" stroke="none" paint-order="stroke fill markers" d="" fill-opacity="0.4"/><path fill="#c74440" stroke="none" paint-order="stroke fill markers" d="" fill-opacity="0.4"/><path fill="#c74440" stroke="none" paint-order="stroke fill markers" d="" fill-opacity="0.4"/><path fill="#c74440" stroke="none" paint-order="stroke fill markers" d="" fill-opacity="0.4"/><path fill="#c74440" stroke="none" paint-order="stroke fill markers" d="" fill-opacity="0.4"/><path fill="#c74440" stroke="none" paint-order="stroke fill markers" d="" fill-opacity="0.4"/><path fill="#c74440" stroke="none" paint-order="stroke fill markers" d="" fill-opacity="0.4"/><path fill="#c74440" stroke="none" paint-order="stroke fill markers" d="" fill-opacity="0.4"/><path fill="#c74440" stroke="none" paint-order="stroke fill markers" d="" fill-opacity="0.4"/><path fill="#c74440" stroke="none" paint-order="stroke fill markers" d="" fill-opacity="0.4"/><path fill="#c74440" stroke="none" paint-order="stroke fill markers" d="" fill-opacity="0.4"/><path fill="#c74440" stroke="none" paint-order="stroke fill markers" d="" fill-opacity="0.4"/><path fill="#c74440" stroke="none" paint-order="stroke fill markers" d="" fill-opacity="0.4"/><path fill="#c74440" stroke="none" paint-order="stroke fill markers" d="" fill-opacity="0.4"/><path fill="#c74440" stroke="none" paint-order="stroke fill markers" d="" fill-opacity="0.4"/><path fill="#c74440" stroke="none" paint-order="stroke fill markers" d="" fill-opacity="0.4"/><path fill="#c74440" stroke="none" paint-order="stroke fill markers" d="" fill-opacity="0.4"/><path fill="#c74440" stroke="none" paint-order="stroke fill markers" d="" fill-opacity="0.4"/><path fill="#c74440" stroke="none" paint-order="stroke fill markers" d="" fill-opacity="0.4"/><path fill="#c74440" stroke="none" paint-order="stroke fill markers" d="" fill-opacity="0.4"/><path fill="#c74440" stroke="none" paint-order="stroke fill markers" d="" fill-opacity="0.4"/><path fill="#c74440" stroke="none" paint-order="stroke fill markers" d="" fill-opacity="0.4"/><path fill="#c74440" stroke="none" paint-order="stroke fill markers" d="" fill-opacity="0.4"/><path fill="#c74440" stroke="none" paint-order="stroke fill markers" d="" fill-opacity="0.4"/><path fill="#c74440" stroke="none" paint-order="stroke fill markers" d="" fill-opacity="0.4"/><path fill="#c74440" stroke="none" paint-order="stroke fill markers" d="" fill-opacity="0.4"/><path fill="#c74440" stroke="none" paint-order="stroke fill markers" d="" fill-opacity="0.4"/><path fill="#c74440" stroke="none" paint-order="stroke fill markers" d="" fill-opacity="0.4"/><path fill="#c74440" stroke="none" paint-order="stroke fill markers" d="" fill-opacity="0.4"/><path fill="#c74440" stroke="none" paint-order="stroke fill markers" d="" fill-opacity="0.4"/><path fill="#c74440" stroke="none" paint-order="stroke fill markers" d="" fill-opacity="0.4"/><path fill="#c74440" stroke="none" paint-order="stroke fill markers" d="" fill-opacity="0.4"/><path fill="#c74440" stroke="none" paint-order="stroke fill markers" d="" fill-opacity="0.4"/><path fill="#c74440" stroke="none" paint-order="stroke fill markers" d="" fill-opacity="0.4"/><path fill="#c74440" stroke="none" paint-order="stroke fill markers" d="" fill-opacity="0.4"/><path fill="#c74440" stroke="none" paint-order="stroke fill markers" d="" fill-opacity="0.4"/><path fill="#c74440" stroke="none" paint-order="stroke fill markers" d="" fill-opacity="0.4"/><path fill="#c74440" stroke="none" paint-order="stroke fill markers" d="" fill-opacity="0.4"/><path fill="#c74440" stroke="none" paint-order="stroke fill markers" d="" fill-opacity="0.4"/><path fill="#c74440" stroke="none" paint-order="stroke fill markers" d="" fill-opacity="0.4"/><path fill="#c74440" stroke="none" paint-order="stroke fill markers" d="" fill-opacity="0.4"/><path fill="#c74440" stroke="none" paint-order="stroke fill markers" d="" fill-opacity="0.4"/><path fill="#c74440" stroke="none" paint-order="stroke fill markers" d="" fill-opacity="0.4"/><path fill="#c74440" stroke="none" paint-order="stroke fill markers" d="" fill-opacity="0.4"/><path fill="#c74440" stroke="none" paint-order="stroke fill markers" d="" fill-opacity="0.4"/><path fill="#c74440" stroke="none" paint-order="stroke fill markers" d="" fill-opacity="0.4"/><path fill="#c74440" stroke="none" paint-order="stroke fill markers" d="" fill-opacity="0.4"/></g><g id="sketch-1f2a7da3"><title>Expression 15</title><path fill="#000000" stroke="none" paint-order="stroke fill markers" d="" fill-opacity="0.4"/><g><path fill="none" stroke="#000000" class="dcg-svg-curve" paint-order="fill stroke markers" d=" M -0.5 266.16666666666663 L -0.5 266.16666666666663 L 399.5 132.83333333333331" stroke-linecap="round" stroke-linejoin="round" stroke-miterlimit="10" stroke-width="2.5" stroke-opacity="0.9" stroke-dasharray=""/></g></g><g id="sketch-1f2a7da3"><title>Expression 16</title><path fill="#000000" stroke="none" paint-order="stroke fill markers" d="" fill-opacity="0.4"/><g><path fill="none" stroke="#000000" class="dcg-svg-curve" paint-order="fill stroke markers" d=" M -0.5 -0.5000000000000568 L -0.5 -0.5000000000000568 L 399.5 399.4999999999999" stroke-linecap="round" stroke-linejoin="round" stroke-miterlimit="10" stroke-width="2.5" stroke-opacity="0.9" stroke-dasharray=""/></g></g></g><g id="labels-1f2a7da3"/></g></svg>